{
.appVersion = "1230";
classes = (
{
automatic = 1;

glyphs = (
{
glyphname = A;
layers = (
{
anchors = (
{
name = bottom;
position = "{237, 0}";
},
{
name = ogonek;
position = "{512, 0}";
},
{
name = top;
position = "{332, 686}";
}
);
background = {
paths = (
{
closed = 1;
nodes = (
"391 686 LINE",
"278 686 LINE",
"-36 0 LINE",
"51 0 LINE",
"119 151 LINE",
"395 151 LINE",
"421 0 LINE",
"512 0 LINE"
);
},
{
closed = 1;
nodes = (
"381 235 LINE",
"157 235 LINE",
"294 538 LINE SMOOTH",
"304 560 OFFCURVE",
"322 614 OFFCURVE",
"322 614 CURVE",
"326 614 LINE",
"326 614 OFFCURVE",
"327 561 OFFCURVE",
"331 538 CURVE SMOOTH"
);
}
);
};
layerId = UUID0;
paths = (
{
closed = 1;
nodes = (
"50 0 LINE",
"119 153 LINE",
"394 153 LINE",
"420 0 LINE",
"511 0 LINE",
"390 686 LINE",
"277 686 LINE",
"-37 0 LINE"
);
},
{
closed = 1;
nodes = (
"293 538 LINE SMOOTH",
"303 560 OFFCURVE",
"321 614 OFFCURVE",
"321 614 CURVE",
"325 614 LINE",
"325 614 OFFCURVE",
"326 561 OFFCURVE",
"330 538 CURVE SMOOTH",
"381 233 LINE",
"155 233 LINE"
);
}
);
width = 547;
},
{
anchors = (
{
name = bottom;
position = "{252, 0}";
},
{
name = ogonek;
position = "{551, 0}";
},
{
name = top;
position = "{352, 686}";
}
);
layerId = "F1687A9F-F053-405E-AE0C-19A259C4FF7F";
paths = (
{
closed = 1;
nodes = (
"95 0 LINE",
"154 135 LINE",
"399 135 LINE",
"421 0 LINE",
"551 0 LINE",
"428 686 LINE",
"281 686 LINE",
"-33 0 LINE"
);
},
{
closed = 1;
nodes = (
"288 437 LINE SMOOTH",
"310 486 OFFCURVE",
"334 570 OFFCURVE",
"334 570 CURVE",
"338 570 LINE",
"338 570 OFFCURVE",
"342 489 OFFCURVE",
"350 437 CURVE SMOOTH",
"380 249 LINE",
"205 249 LINE"
);
}
);
width = 592;
}
);
leftKerningGroup = A;
rightKerningGroup = A;
unicode = 0041;
},
{
color = 0;
glyphname = Aringacute;
layers = (
{
background = {
paths = (
{
closed = 1;
nodes = (
"421 0 LINE",
"512 0 LINE",
"391 686 LINE",
"278 686 LINE",
"-36 0 LINE",
"51 0 LINE",
"120 153 LINE",
"395 153 LINE"
);
},
{
closed = 1;
nodes = (
"294 538 LINE SMOOTH",
"304 560 OFFCURVE",
"322 614 OFFCURVE",
"322 614 CURVE",
"326 614 LINE",
"326 614 OFFCURVE",
"327 561 OFFCURVE",
"331 538 CURVE SMOOTH",
"382 233 LINE",
"156 233 LINE"
);
}
);
};
layerId = UUID0;
paths = (
{
closed = 1;
nodes = (
"50 0 LINE",
"119 153 LINE",
"394 153 LINE",
"420 0 LINE",
"511 0 LINE",
"394 665 LINE",
"414 682 OFFCURVE",
"427 708 OFFCURVE",
"427 737 CURVE SMOOTH",
"427 785 OFFCURVE",
"391 821 OFFCURVE",
"341 821 CURVE SMOOTH",
"291 821 OFFCURVE",
"242 781 OFFCURVE",
"242 723 CURVE SMOOTH",
"242 699 OFFCURVE",
"251 678 OFFCURVE",
"267 663 CURVE",
"-37 0 LINE"
);
},
{
closed = 1;
nodes = (
"293 538 LINE SMOOTH",
"303 560 OFFCURVE",
"321 614 OFFCURVE",
"321 614 CURVE",
"325 614 LINE",
"325 614 OFFCURVE",
"326 561 OFFCURVE",
"330 538 CURVE SMOOTH",
"381 233 LINE",
"155 233 LINE"
);
},
{
closed = 1;
nodes = (
"305 679 OFFCURVE",
"287 701 OFFCURVE",
"287 726 CURVE SMOOTH",
"287 758 OFFCURVE",
"310 781 OFFCURVE",
"338 781 CURVE SMOOTH",
"364 781 OFFCURVE",
"383 759 OFFCURVE",
"383 734 CURVE SMOOTH",
"383 702 OFFCURVE",
"359 679 OFFCURVE",
"332 679 CURVE SMOOTH"
);
},
{
closed = 1;
nodes = (
"373 848 LINE",
"465 954 LINE",
"464 957 LINE",
"374 957 LINE",
"303 848 LINE"
);
}
);
width = 547;
},
{
layerId = "F1687A9F-F053-405E-AE0C-19A259C4FF7F";
paths = (
{
closed = 1;
nodes = (
"95 0 LINE",
"154 135 LINE",
"399 135 LINE",
"421 0 LINE",
"551 0 LINE",
"432 664 LINE",
"448 680 OFFCURVE",
"457 703 OFFCURVE",
"457 727 CURVE SMOOTH",
"457 777 OFFCURVE",
"415 820 OFFCURVE",
"362 820 CURVE SMOOTH",
"308 820 OFFCURVE",
"265 778 OFFCURVE",
"265 727 CURVE SMOOTH",
"265 709 OFFCURVE",
"270 694 OFFCURVE",
"278 680 CURVE",
"-33 0 LINE"
);
},
{
closed = 1;
nodes = (
"288 437 LINE SMOOTH",
"310 486 OFFCURVE",
"334 570 OFFCURVE",
"334 570 CURVE",
"338 570 LINE",
"338 570 OFFCURVE",
"342 489 OFFCURVE",
"350 437 CURVE",
"380 249 LINE",
"205 249 LINE"
);
},
{
closed = 1;
nodes = (
"335 682 OFFCURVE",
"315 701 OFFCURVE",
"315 727 CURVE SMOOTH",
"315 752 OFFCURVE",
"335 772 OFFCURVE",
"362 772 CURVE SMOOTH",
"387 772 OFFCURVE",
"408 752 OFFCURVE",
"408 727 CURVE SMOOTH",
"408 701 OFFCURVE",
"387 682 OFFCURVE",
"362 682 CURVE SMOOTH"
);
},
{
closed = 1;
nodes = (
"418 848 LINE",
"511 954 LINE",
"510 957 LINE",
"390 957 LINE",
"319 848 LINE"
);
}
);
width = 592;
}
);
leftKerningGroup = A;
rightKerningGroup = A;
unicode = 01FA;
},
{
glyphname = AE;
layers = (
{
anchors = (
{
name = top;
position = "{530, 686}";
}
);
background = {
paths = (
{
closed = 1;
nodes = (
"833 686 LINE",
"331 686 LINE",
"-43 0 LINE",
"49 0 LINE",
"127 151 LINE",
"398 151 LINE",
"410 0 LINE",
"755 0 LINE",
"743 84 LINE",
"494 84 LINE",
"475 309 LINE",
"740 309 LINE",
"752 393 LINE",
"468 393 LINE",
"451 602 LINE",
"808 602 LINE"
);
},
{
closed = 1;
nodes = (
"363 602 LINE",
"363 602 OFFCURVE",
"365 549 OFFCURVE",
"367 526 CURVE SMOOTH",
"391 235 LINE",
"171 235 LINE",
"323 526 LINE SMOOTH",
"335 549 OFFCURVE",
"359 602 OFFCURVE",
"359 602 CURVE"
);
}
);
};
layerId = UUID0;
paths = (
{
closed = 1;
nodes = (
"49 0 LINE",
"128 153 LINE",
"397 153 LINE",
"410 0 LINE",
"739 0 LINE",
"751 80 LINE",
"495 80 LINE",
"475 311 LINE",
"733 311 LINE",
"744 391 LINE",
"469 391 LINE",
"451 606 LINE",
"818 606 LINE",
"830 686 LINE",
"331 686 LINE",
"-43 0 LINE"
);
},
{
closed = 1;
nodes = (
"323 526 LINE SMOOTH",
"335 549 OFFCURVE",
"359 602 OFFCURVE",
"359 602 CURVE",
"363 602 LINE",
"363 602 OFFCURVE",
"365 549 OFFCURVE",
"367 526 CURVE SMOOTH",
"391 233 LINE",
"170 233 LINE"
);
}
);
width = 820;
},
{
anchors = (
{
name = top;
position = "{424, 686}";
}
);
background = {
paths = (
{
closed = 1;
nodes = (
"303 686 LINE",
"-52 0 LINE",
"78 0 LINE",
"145 135 LINE",
"385 135 LINE",
"397 0 LINE",
"765 0 LINE",
"748 114 LINE",
"514 114 LINE",
"496 294 LINE",
"743 294 LINE",
"759 408 LINE",
"485 408 LINE",
"468 572 LINE",
"806 572 LINE",
"837 686 LINE"
);
},
{
closed = 1;
nodes = (
"374 249 LINE",
"201 249 LINE",
"295 437 LINE SMOOTH",
"319 485 OFFCURVE",
"341 570 OFFCURVE",
"341 570 CURVE",
"345 570 LINE"
);
}
);
};
layerId = "F1687A9F-F053-405E-AE0C-19A259C4FF7F";
paths = (
{
closed = 1;
nodes = (
"78 0 LINE",
"145 135 LINE",
"385 135 LINE",
"397 0 LINE",
"741 0 LINE",
"757 114 LINE",
"514 114 LINE",
"496 294 LINE",
"733 294 LINE",
"749 408 LINE",
"485 408 LINE",
"468 572 LINE",
"815 572 LINE",
"831 686 LINE",
"303 686 LINE",
"-52 0 LINE"
);
},
{
closed = 1;
nodes = (
"295 437 LINE",
"319 485 OFFCURVE",
"341 570 OFFCURVE",
"341 570 CURVE",
"345 570 LINE",
"347 543 OFFCURVE",
"350 515 OFFCURVE",
"352 488 CURVE",
"374 249 LINE",
"201 249 LINE"
);
}
);
width = 820;
}
);
leftKerningGroup = AE;
rightKerningGroup = AE;
unicode = 00C6;
},
{
glyphname = B;
layers = (
{
background = {
paths = (
{
closed = 1;
nodes = (
"131 686 LINE",
"34 0 LINE",
"284 0 LINE SMOOTH",
"396 0 OFFCURVE",
"505 78 OFFCURVE",
"505 206 CURVE SMOOTH",
"505 282 OFFCURVE",
"463 336 OFFCURVE",
"406 356 CURVE",
"407 360 LINE",
"475 382 OFFCURVE",
"536 446 OFFCURVE",
"536 535 CURVE SMOOTH",
"536 626 OFFCURVE",
"470 686 OFFCURVE",
"371 686 CURVE SMOOTH"
);
},
{
closed = 1;
nodes = (
"310 309 LINE SMOOTH",
"376 309 OFFCURVE",
"414 263 OFFCURVE",
"414 205 CURVE SMOOTH",
"414 129 OFFCURVE",
"352 84 OFFCURVE",
"284 84 CURVE SMOOTH",
"134 84 LINE",
"166 309 LINE"
);
},
{
closed = 1;
nodes = (
"349 602 LINE SMOOTH",
"405 602 OFFCURVE",
"440 570 OFFCURVE",
"440 510 CURVE SMOOTH",
"440 447 OFFCURVE",
"391 393 OFFCURVE",
"314 393 CURVE SMOOTH",
"178 393 LINE",
"207 602 LINE"
);
}
);
};
layerId = UUID0;
paths = (
{
closed = 1;
nodes = (
"293 0 LINE SMOOTH",
"400 0 OFFCURVE",
"506 77 OFFCURVE",
"506 206 CURVE SMOOTH",
"506 282 OFFCURVE",
"465 336 OFFCURVE",
"407 356 CURVE",
"408 360 LINE",
"476 383 OFFCURVE",
"537 451 OFFCURVE",
"537 541 CURVE SMOOTH",
"537 629 OFFCURVE",
"471 686 OFFCURVE",
"372 686 CURVE SMOOTH",
"131 686 LINE",
"34 0 LINE"
);
},
{
closed = 1;
nodes = (
"166 311 LINE",
"311 311 LINE SMOOTH",
"377 311 OFFCURVE",
"415 263 OFFCURVE",
"415 206 CURVE SMOOTH",
"415 125 OFFCURVE",
"355 80 OFFCURVE",
"293 80 CURVE SMOOTH",
"134 80 LINE"
);
},
{
closed = 1;
nodes = (
"207 606 LINE",
"340 606 LINE SMOOTH",
"402 606 OFFCURVE",
"442 578 OFFCURVE",
"442 518 CURVE SMOOTH",
"442 453 OFFCURVE",
"392 391 OFFCURVE",
"314 391 CURVE SMOOTH",
"177 391 LINE"
);
}
);
width = 547;
},
{
background = {
paths = (
{
closed = 1;
nodes = (
"114 686 LINE",
"18 0 LINE",
"327 0 LINE SMOOTH",
"440 0 OFFCURVE",
"551 77 OFFCURVE",
"551 204 CURVE SMOOTH",
"551 281 OFFCURVE",
"510 336 OFFCURVE",
"453 356 CURVE",
"454 360 LINE",
"520 382 OFFCURVE",
"581 446 OFFCURVE",
"581 534 CURVE SMOOTH",
"581 625 OFFCURVE",
"512 686 OFFCURVE",
"409 686 CURVE SMOOTH"
);
},
{
closed = 1;
nodes = (
"202 408 LINE",
"225 572 LINE",
"377 572 LINE",
"421 572 OFFCURVE",
"448 549 OFFCURVE",
"448 503 CURVE SMOOTH",
"448 453 OFFCURVE",
"410 408 OFFCURVE",
"345 408 CURVE SMOOTH"
);
},
{
closed = 1;
nodes = (
"160 114 LINE",
"186 295 LINE",
"337 295 LINE",
"395 295 OFFCURVE",
"422 262 OFFCURVE",
"422 218 CURVE SMOOTH",
"422 150 OFFCURVE",
"377 114 OFFCURVE",
"321 114 CURVE SMOOTH"
);
}
);
};
layerId = "F1687A9F-F053-405E-AE0C-19A259C4FF7F";
paths = (
{
closed = 1;
nodes = (
"327 0 LINE SMOOTH",
"440 0 OFFCURVE",
"551 77 OFFCURVE",
"551 204 CURVE SMOOTH",
"551 281 OFFCURVE",
"510 336 OFFCURVE",
"453 356 CURVE",
"454 360 LINE",
"520 382 OFFCURVE",
"581 446 OFFCURVE",
"581 534 CURVE SMOOTH",
"581 625 OFFCURVE",
"512 686 OFFCURVE",
"409 686 CURVE SMOOTH",
"124 686 LINE",
"28 0 LINE"
);
},
{
closed = 1;
nodes = (
"196 295 LINE",
"337 295 LINE",
"395 295 OFFCURVE",
"422 262 OFFCURVE",
"422 218 CURVE SMOOTH",
"422 150 OFFCURVE",
"377 114 OFFCURVE",
"321 114 CURVE SMOOTH",
"170 114 LINE"
);
},
{
closed = 1;
nodes = (
"235 572 LINE",
"377 572 LINE",
"421 572 OFFCURVE",
"448 549 OFFCURVE",
"448 503 CURVE SMOOTH",
"448 453 OFFCURVE",
"410 408 OFFCURVE",
"345 408 CURVE SMOOTH",
"212 408 LINE"
);
}
);
width = 592;
}
);
leftKerningGroup = B;
rightKerningGroup = B;
unicode = 0042;
},
{
glyphname = C;
layers = (
{
anchors = (
{
name = bottom;
position = "{263, 0}";
},
{
name = top;
position = "{351, 686}";
}
);
layerId = UUID0;
paths = (
{
closed = 1;
nodes = (
"437 -12 OFFCURVE",
"523 106 OFFCURVE",
"541 242 CURVE",
"454 242 LINE",
"440 151 OFFCURVE",
"384 70 OFFCURVE",
"282 70 CURVE SMOOTH",
"191 70 OFFCURVE",
"141 133 OFFCURVE",
"141 246 CURVE SMOOTH",
"141 320 OFFCURVE",
"164 617 OFFCURVE",
"352 617 CURVE SMOOTH",
"438 617 OFFCURVE",
"479 563 OFFCURVE",
"479 459 CURVE SMOOTH",
"479 437 LINE",
"570 437 LINE",
"570 453 LINE SMOOTH",
"570 620 OFFCURVE",
"495 698 OFFCURVE",
"353 698 CURVE SMOOTH",
"117 698 OFFCURVE",
"51 421 OFFCURVE",
"51 241 CURVE SMOOTH",
"51 67 OFFCURVE",
"142 -12 OFFCURVE",
"285 -12 CURVE SMOOTH"
);
}
);
width = 592;
},
{
anchors = (
{
name = bottom;
position = "{273, 0}";
},
{
name = top;
position = "{364, 686}";
}
);
layerId = "F1687A9F-F053-405E-AE0C-19A259C4FF7F";
paths = (
{
closed = 1;
nodes = (
"447 -12 OFFCURVE",
"535 111 OFFCURVE",
"566 254 CURVE",
"441 254 LINE",
"423 170 OFFCURVE",
"377 98 OFFCURVE",
"287 98 CURVE SMOOTH",
"210 98 OFFCURVE",
"174 156 OFFCURVE",
"174 255 CURVE SMOOTH",
"174 383 OFFCURVE",
"207 588 OFFCURVE",
"353 588 CURVE SMOOTH",
"419 588 OFFCURVE",
"459 538 OFFCURVE",
"459 449 CURVE SMOOTH",
"459 431 LINE",
"589 431 LINE",
"589 444 LINE SMOOTH",
"589 614 OFFCURVE",
"497 698 OFFCURVE",
"353 698 CURVE SMOOTH",
"126 698 OFFCURVE",
"45 461 OFFCURVE",
"45 250 CURVE SMOOTH",
"45 72 OFFCURVE",
"133 -12 OFFCURVE",
"284 -12 CURVE SMOOTH"
);
}
);
width = 592;
}
);
leftKerningGroup = C;
rightKerningGroup = C;
unicode = 0043;
},
{
glyphname = D;
layers = (
{
anchors = (
{
name = center;
position = "{276, 343}";
},
{
name = top;
position = "{324, 686}";
}
);
background = {
paths = (
{
closed = 1;
nodes = (
"131 686 LINE",
"34 0 LINE",
"247 0 LINE SMOOTH",
"480 0 OFFCURVE",
"563 242 OFFCURVE",
"563 431 CURVE SMOOTH",
"563 600 OFFCURVE",
"479 686 OFFCURVE",
"334 686 CURVE SMOOTH"
);
},
{
closed = 1;
nodes = (
"324 602 LINE SMOOTH",
"417 602 OFFCURVE",
"472 544 OFFCURVE",
"472 429 CURVE SMOOTH",
"472 287 OFFCURVE",
"425 84 OFFCURVE",
"251 84 CURVE SMOOTH",
"134 84 LINE",
"207 602 LINE"
);
}
);
};
layerId = UUID0;
paths = (
{
closed = 1;
nodes = (
"265 0 LINE SMOOTH",
"484 0 OFFCURVE",
"563 251 OFFCURVE",
"563 429 CURVE SMOOTH",
"563 600 OFFCURVE",
"479 686 OFFCURVE",
"334 686 CURVE SMOOTH",
"131 686 LINE",
"34 0 LINE"
);
},
{
closed = 1;
nodes = (
"207 606 LINE",
"324 606 LINE SMOOTH",
"417 606 OFFCURVE",
"472 548 OFFCURVE",
"472 428 CURVE SMOOTH",
"472 288 OFFCURVE",
"427 80 OFFCURVE",
"255 80 CURVE SMOOTH",
"134 80 LINE"
);
}
);
width = 592;
},
{
anchors = (
{
name = center;
position = "{311, 343}";
},
{
name = top;
position = "{328, 686}";
}
);
background = {
paths = (
{
closed = 1;
nodes = (
"114 686 LINE",
"18 0 LINE",
"264 0 LINE",
"491 0 OFFCURVE",
"576 240 OFFCURVE",
"576 426 CURVE SMOOTH",
"576 599 OFFCURVE",
"487 686 OFFCURVE",
"335 686 CURVE SMOOTH"
);
},
{
closed = 1;
nodes = (
"161 114 LINE",
"225 572 LINE",
"317 572 LINE",
"398 572 OFFCURVE",
"447 520 OFFCURVE",
"447 417 CURVE SMOOTH",
"447 297 OFFCURVE",
"406 114 OFFCURVE",
"253 114 CURVE SMOOTH"
);
}
);
};
layerId = "F1687A9F-F053-405E-AE0C-19A259C4FF7F";
paths = (
{
closed = 1;
nodes = (
"264 0 LINE",
"491 0 OFFCURVE",
"576 240 OFFCURVE",
"576 426 CURVE SMOOTH",
"576 599 OFFCURVE",
"487 686 OFFCURVE",
"335 686 CURVE SMOOTH",
"124 686 LINE",
"28 0 LINE"
);
},
{
closed = 1;
nodes = (
"235 572 LINE",
"317 572 LINE",
"398 572 OFFCURVE",
"447 520 OFFCURVE",
"447 417 CURVE SMOOTH",
"447 297 OFFCURVE",
"406 114 OFFCURVE",
"253 114 CURVE SMOOTH",
"171 114 LINE"
);
}
);
width = 592;
}
);
leftKerningGroup = D;
rightKerningGroup = D;
unicode = 0044;
},
{
glyphname = Eth;
layers = (
{
background = {
paths = (
{
closed = 1;
nodes = (
"131 686 LINE",
"88 387 LINE",
"23 387 LINE",
"14 323 LINE",
"79 323 LINE",
"34 0 LINE",
"247 0 LINE SMOOTH",
"480 0 OFFCURVE",
"563 242 OFFCURVE",
"563 431 CURVE SMOOTH",
"563 600 OFFCURVE",
"479 686 OFFCURVE",
"334 686 CURVE SMOOTH"
);
},
{
closed = 1;
nodes = (
"324 602 LINE SMOOTH",
"417 602 OFFCURVE",
"472 544 OFFCURVE",
"472 429 CURVE SMOOTH",
"472 287 OFFCURVE",
"425 84 OFFCURVE",
"251 84 CURVE SMOOTH",
"134 84 LINE",
"167 323 LINE",
"324 323 LINE",
"333 387 LINE",
"176 387 LINE",
"207 602 LINE"
);
}
);
};
layerId = UUID0;
paths = (
{
closed = 1;
nodes = (
"265 0 LINE SMOOTH",
"484 0 OFFCURVE",
"563 251 OFFCURVE",
"563 429 CURVE SMOOTH",
"563 600 OFFCURVE",
"479 686 OFFCURVE",
"334 686 CURVE SMOOTH",
"131 686 LINE",
"88 387 LINE",
"23 387 LINE",
"14 323 LINE",
"79 323 LINE",
"34 0 LINE"
);
},
{
closed = 1;
nodes = (
"167 323 LINE",
"324 323 LINE",
"333 387 LINE",
"176 387 LINE",
"207 606 LINE",
"324 606 LINE SMOOTH",
"417 606 OFFCURVE",
"472 548 OFFCURVE",
"472 428 CURVE SMOOTH",
"472 288 OFFCURVE",
"427 80 OFFCURVE",
"255 80 CURVE SMOOTH",
"134 80 LINE"
);
}
);
width = 592;
},
{
background = {
paths = (
{
closed = 1;
nodes = (
"61 312 LINE",
"18 0 LINE",
"264 0 LINE SMOOTH",
"491 0 OFFCURVE",
"576 240 OFFCURVE",
"576 426 CURVE SMOOTH",
"576 599 OFFCURVE",
"487 686 OFFCURVE",
"335 686 CURVE SMOOTH",
"114 686 LINE",
"73 397 LINE",
"24 397 LINE",
"13 312 LINE"
);
},
{
closed = 1;
nodes = (
"161 114 LINE",
"188 312 LINE",
"312 312 LINE",
"324 397 LINE",
"200 397 LINE",
"225 572 LINE",
"317 572 LINE SMOOTH",
"398 572 OFFCURVE",
"447 520 OFFCURVE",
"447 417 CURVE SMOOTH",
"447 297 OFFCURVE",
"406 114 OFFCURVE",
"253 114 CURVE SMOOTH"
);
}
);
};
layerId = "F1687A9F-F053-405E-AE0C-19A259C4FF7F";
paths = (
{
closed = 1;
nodes = (
"264 0 LINE",
"491 0 OFFCURVE",
"576 240 OFFCURVE",
"576 426 CURVE SMOOTH",
"576 599 OFFCURVE",
"487 686 OFFCURVE",
"335 686 CURVE SMOOTH",
"124 686 LINE",
"83 397 LINE",
"34 397 LINE",
"23 312 LINE",
"71 312 LINE",
"28 0 LINE"
);
},
{
closed = 1;
nodes = (
"198 312 LINE",
"322 312 LINE",
"334 397 LINE",
"210 397 LINE",
"235 572 LINE",
"317 572 LINE",
"398 572 OFFCURVE",
"447 520 OFFCURVE",
"447 417 CURVE SMOOTH",
"447 297 OFFCURVE",
"406 114 OFFCURVE",
"253 114 CURVE SMOOTH",
"171 114 LINE"
);
}
);
width = 592;
}
);
leftKerningGroup = D;
rightKerningGroup = D;
unicode = 00D0;
},
{
glyphname = Dcroat;
layers = (
{
background = {
paths = (
{
closed = 1;
nodes = (
"131 686 LINE",
"88 387 LINE",
"23 387 LINE",
"14 323 LINE",
"79 323 LINE",
"34 0 LINE",
"247 0 LINE SMOOTH",
"480 0 OFFCURVE",
"563 242 OFFCURVE",
"563 431 CURVE SMOOTH",
"563 600 OFFCURVE",
"479 686 OFFCURVE",
"334 686 CURVE SMOOTH"
);
},
{
closed = 1;
nodes = (
"324 602 LINE SMOOTH",
"417 602 OFFCURVE",
"472 544 OFFCURVE",
"472 429 CURVE SMOOTH",
"472 287 OFFCURVE",
"425 84 OFFCURVE",
"251 84 CURVE SMOOTH",
"134 84 LINE",
"167 323 LINE",
"324 323 LINE",
"333 387 LINE",
"176 387 LINE",
"207 602 LINE"
);
}
);
};
layerId = UUID0;
paths = (
{
closed = 1;
nodes = (
"265 0 LINE SMOOTH",
"484 0 OFFCURVE",
"563 251 OFFCURVE",
"563 429 CURVE SMOOTH",
"563 600 OFFCURVE",
"479 686 OFFCURVE",
"334 686 CURVE SMOOTH",
"131 686 LINE",
"88 387 LINE",
"23 387 LINE",
"14 323 LINE",
"79 323 LINE",
"34 0 LINE"
);
},
{
closed = 1;
nodes = (
"167 323 LINE",
"324 323 LINE",
"333 387 LINE",
"176 387 LINE",
"207 606 LINE",
"324 606 LINE SMOOTH",
"417 606 OFFCURVE",
"472 548 OFFCURVE",
"472 428 CURVE SMOOTH",
"472 288 OFFCURVE",
"427 80 OFFCURVE",
"255 80 CURVE SMOOTH",
"134 80 LINE"
);
}
);
width = 592;
},
{
background = {
paths = (
{
closed = 1;
nodes = (
"61 312 LINE",
"18 0 LINE",
"264 0 LINE SMOOTH",
"491 0 OFFCURVE",
"576 240 OFFCURVE",
"576 426 CURVE SMOOTH",
"576 599 OFFCURVE",
"487 686 OFFCURVE",
"335 686 CURVE SMOOTH",
"114 686 LINE",
"73 397 LINE",
"24 397 LINE",
"13 312 LINE"
);
},
{
closed = 1;
nodes = (
"161 114 LINE",
"188 312 LINE",
"312 312 LINE",
"324 397 LINE",
"200 397 LINE",
"225 572 LINE",
"317 572 LINE SMOOTH",
"398 572 OFFCURVE",
"447 520 OFFCURVE",
"447 417 CURVE SMOOTH",
"447 297 OFFCURVE",
"406 114 OFFCURVE",
"253 114 CURVE SMOOTH"
);
}
);
};
layerId = "F1687A9F-F053-405E-AE0C-19A259C4FF7F";
paths = (
{
closed = 1;
nodes = (
"264 0 LINE SMOOTH",
"491 0 OFFCURVE",
"576 240 OFFCURVE",
"576 426 CURVE SMOOTH",
"576 599 OFFCURVE",
"487 686 OFFCURVE",
"335 686 CURVE SMOOTH",
"124 686 LINE",
"83 397 LINE",
"34 397 LINE",
"23 312 LINE",
"71 312 LINE",
"28 0 LINE"
);
},
{
closed = 1;
nodes = (
"198 312 LINE",
"322 312 LINE",
"334 397 LINE",
"210 397 LINE",
"235 572 LINE",
"317 572 LINE SMOOTH",
"398 572 OFFCURVE",
"447 520 OFFCURVE",
"447 417 CURVE SMOOTH",
"447 297 OFFCURVE",
"406 114 OFFCURVE",
"253 114 CURVE SMOOTH",
"171 114 LINE"
);
}
);
width = 592;
}
);
leftKerningGroup = D;
rightKerningGroup = D;
unicode = 0110;
},
{
glyphname = E;
layers = (
{
anchors = (
{
name = bottom;
position = "{265, 0}";
},
{
name = ogonek;
position = "{463, 0}";
},
{
name = top;
position = "{342, 686}";
}
);
background = {
paths = (
{
closed = 1;
nodes = (
"560 686 LINE",
"131 686 LINE",
"34 0 LINE",
"482 0 LINE",
"470 84 LINE",
"134 84 LINE",
"166 309 LINE",
"467 309 LINE",
"479 393 LINE",
"178 393 LINE",
"207 602 LINE",
"535 602 LINE"
);
}
);
};
layerId = UUID0;
paths = (
{
closed = 1;
nodes = (
"463 0 LINE",
"475 80 LINE",
"134 80 LINE",
"166 311 LINE",
"457 311 LINE",
"468 391 LINE",
"177 391 LINE",
"207 606 LINE",
"542 606 LINE",
"554 686 LINE",
"131 686 LINE",
"34 0 LINE"
);
}
);
width = 547;
},
{
anchors = (
{
name = bottom;
position = "{248, 0}";
},
{
name = ogonek;
position = "{466, 0}";
},
{
name = top;
position = "{344, 686}";
}
);
background = {
paths = (
{
closed = 1;
nodes = (
"114 686 LINE",
"18 0 LINE",
"493 0 LINE",
"476 114 LINE",
"160 114 LINE",
"186 294 LINE",
"471 294 LINE",
"487 408 LINE",
"202 408 LINE",
"225 572 LINE",
"534 572 LINE",
"565 686 LINE"
);
}
);
};
layerId = "F1687A9F-F053-405E-AE0C-19A259C4FF7F";
paths = (
{
closed = 1;
nodes = (
"466 0 LINE",
"482 114 LINE",
"170 114 LINE",
"196 294 LINE",
"458 294 LINE",
"474 408 LINE",
"212 408 LINE",
"235 572 LINE",
"540 572 LINE",
"556 686 LINE",
"124 686 LINE",
"28 0 LINE"
);
}
);
width = 547;
}
);
leftKerningGroup = I;
rightKerningGroup = E;
unicode = 0045;
},
{
glyphname = F;
layers = (
{
background = {
paths = (
{
closed = 1;
nodes = (
"533 686 LINE",
"131 686 LINE",
"34 0 LINE",
"122 0 LINE",
"165 302 LINE",
"439 302 LINE",
"451 386 LINE",
"177 386 LINE",
"207 602 LINE",
"508 602 LINE"
);
}
);
};
layerId = UUID0;
paths = (
{
closed = 1;
nodes = (
"122 0 LINE",
"165 304 LINE",
"437 304 LINE",
"448 384 LINE",
"176 384 LINE",
"207 606 LINE",
"515 606 LINE",
"527 686 LINE",
"131 686 LINE",
"34 0 LINE"
);
}
);
width = 501;
},
{
background = {
paths = (
{
closed = 1;
nodes = (
"114 686 LINE",
"18 0 LINE",
"144 0 LINE",
"184 285 LINE",
"436 285 LINE",
"452 399 LINE",
"200 399 LINE",
"225 572 LINE",
"501 572 LINE",
"532 686 LINE"
);
}
);
};
layerId = "F1687A9F-F053-405E-AE0C-19A259C4FF7F";
paths = (
{
closed = 1;
nodes = (
"155 0 LINE",
"195 285 LINE",
"427 285 LINE",
"443 399 LINE",
"211 399 LINE",
"235 572 LINE",
"508 572 LINE",
"523 686 LINE",
"125 686 LINE",
"28 0 LINE"
);
}
);
width = 501;
}
);
leftKerningGroup = I;
rightKerningGroup = F;
unicode = 0046;
},
{
glyphname = Fhook;
layers = (
{
layerId = UUID0;
paths = (
{
closed = 1;
nodes = (
"81 -182 OFFCURVE",
"105 -121 OFFCURVE",
"114 -61 CURVE SMOOTH",
"166 304 LINE",
"437 304 LINE",
"448 384 LINE",
"176 384 LINE",
"207 606 LINE",
"515 606 LINE",
"527 686 LINE",
"131 686 LINE",
"25 -65 LINE SMOOTH",
"21 -96 OFFCURVE",
"2 -113 OFFCURVE",
"-29 -113 CURVE SMOOTH",
"-73 -113 LINE",
"-83 -170 LINE",
"-67 -176 OFFCURVE",
"-33 -182 OFFCURVE",
"-9 -182 CURVE SMOOTH"
);
}
);
width = 501;
},
{
layerId = "F1687A9F-F053-405E-AE0C-19A259C4FF7F";
paths = (
{
closed = 1;
nodes = (
"102 -182 OFFCURVE",
"140 -114 OFFCURVE",
"149 -48 CURVE SMOOTH",
"195 285 LINE",
"427 285 LINE",
"443 399 LINE",
"211 399 LINE",
"235 572 LINE",
"508 572 LINE",
"523 686 LINE",
"125 686 LINE",
"23 -40 LINE SMOOTH",
"19 -69 OFFCURVE",
"0 -85 OFFCURVE",
"-29 -85 CURVE SMOOTH",
"-78 -85 LINE",
"-92 -167 LINE",
"-72 -175 OFFCURVE",
"-25 -182 OFFCURVE",
"5 -182 CURVE SMOOTH"
);
}
);
width = 501;
}
);
leftKerningGroup = Fhook;
rightKerningGroup = Fhook;
unicode = 0191;
},
{
glyphname = G;
layers = (
{
anchors = (
{
name = bottom;
position = "{297, 0}";
},
{
name = top;
position = "{370, 686}";
}
);
background = {
paths = (
{
closed = 1;
nodes = (
"119 698 OFFCURVE",
"50 421 OFFCURVE",
"50 241 CURVE SMOOTH",
"50 67 OFFCURVE",
"142 -12 OFFCURVE",
"285 -12 CURVE SMOOTH",
"365 -12 OFFCURVE",
"425 22 OFFCURVE",
"467 76 CURVE",
"475 0 LINE",
"533 0 LINE",
"584 359 LINE",
"316 359 LINE",
"304 278 LINE",
"484 278 LINE",
"478 242 LINE SMOOTH",
"463 150 OFFCURVE",
"404 70 OFFCURVE",
"293 70 CURVE SMOOTH",
"189 70 OFFCURVE",
"140 133 OFFCURVE",
"140 246 CURVE SMOOTH",
"140 335 OFFCURVE",
"166 617 OFFCURVE",
"363 617 CURVE SMOOTH",
"460 617 OFFCURVE",
"505 563 OFFCURVE",
"505 459 CURVE SMOOTH",
"505 452 LINE",
"596 452 LINE",
"596 619 OFFCURVE",
"517 698 OFFCURVE",
"364 698 CURVE SMOOTH"
);
}
);
};
layerId = UUID0;
paths = (
{
closed = 1;
nodes = (
"365 -12 OFFCURVE",
"425 22 OFFCURVE",
"467 76 CURVE",
"475 0 LINE",
"533 0 LINE",
"584 357 LINE",
"315 357 LINE",
"304 280 LINE",
"522 280 LINE",
"490 318 LINE",
"478 242 LINE SMOOTH",
"463 150 OFFCURVE",
"404 70 OFFCURVE",
"293 70 CURVE SMOOTH",
"189 70 OFFCURVE",
"140 133 OFFCURVE",
"140 246 CURVE SMOOTH",
"140 335 OFFCURVE",
"166 617 OFFCURVE",
"363 617 CURVE SMOOTH",
"460 617 OFFCURVE",
"505 563 OFFCURVE",
"505 459 CURVE SMOOTH",
"505 452 LINE",
"596 452 LINE",
"596 619 OFFCURVE",
"517 698 OFFCURVE",
"364 698 CURVE SMOOTH",
"119 698 OFFCURVE",
"50 421 OFFCURVE",
"50 241 CURVE SMOOTH",
"50 67 OFFCURVE",
"142 -12 OFFCURVE",
"285 -12 CURVE SMOOTH"
);
}
);
width = 638;
},
{
anchors = (
{
name = bottom;
position = "{272, 0}";
},
{
name = top;
position = "{368, 686}";
}
);
layerId = "F1687A9F-F053-405E-AE0C-19A259C4FF7F";
paths = (
{
closed = 1;
nodes = (
"350 -12 OFFCURVE",
"412 22 OFFCURVE",
"458 76 CURVE",
"470 0 LINE",
"552 0 LINE",
"604 373 LINE",
"322 373 LINE",
"306 263 LINE",
"514 263 LINE",
"467 308 LINE",
"459 263 LINE SMOOTH",
"443 164 OFFCURVE",
"392 98 OFFCURVE",
"297 98 CURVE SMOOTH",
"212 98 OFFCURVE",
"174 156 OFFCURVE",
"174 255 CURVE SMOOTH",
"174 383 OFFCURVE",
"211 588 OFFCURVE",
"372 588 CURVE SMOOTH",
"440 588 OFFCURVE",
"483 542 OFFCURVE",
"483 456 CURVE SMOOTH",
"483 447 LINE",
"613 447 LINE",
"613 616 OFFCURVE",
"518 698 OFFCURVE",
"367 698 CURVE SMOOTH",
"130 698 OFFCURVE",
"45 451 OFFCURVE",
"45 250 CURVE SMOOTH",
"45 72 OFFCURVE",
"127 -12 OFFCURVE",
"269 -12 CURVE SMOOTH"
);
}
);
width = 638;
}
);
leftKerningGroup = O;
rightKerningGroup = C;
unicode = 0047;
},
{
glyphname = H;
layers = (
{
anchors = (
{
name = center;
position = "{336, 540}";
},
{
name = top;
position = "{354, 686}";
}
);
background = {
paths = (
{
closed = 1;
nodes = (
"583 686 LINE",
"495 686 LINE",
"454 393 LINE",
"178 393 LINE",
"219 686 LINE",
"131 686 LINE",
"34 0 LINE",
"122 0 LINE",
"166 309 LINE",
"442 309 LINE",
"398 0 LINE",
"486 0 LINE"
);
}
);
};
layerId = UUID0;
paths = (
{
closed = 1;
nodes = (
"121 0 LINE",
"165 311 LINE",
"441 311 LINE",
"397 0 LINE",
"485 0 LINE",
"582 686 LINE",
"494 686 LINE",
"452 391 LINE",
"176 391 LINE",
"218 686 LINE",
"130 686 LINE",
"33 0 LINE"
);
}
);
width = 592;
},
{
anchors = (
{
name = center;
position = "{336, 540}";
},
{
name = top;
position = "{357, 686}";
}
);
background = {
paths = (
{
closed = 1;
nodes = (
"114 686 LINE",
"18 0 LINE",
"145 0 LINE",
"186 294 LINE",
"420 294 LINE",
"378 0 LINE",
"505 0 LINE",
"601 686 LINE",
"474 686 LINE",
"436 408 LINE",
"202 408 LINE",
"241 686 LINE"
);
}
);
};
layerId = "F1687A9F-F053-405E-AE0C-19A259C4FF7F";
paths = (
{
closed = 1;
nodes = (
"153 0 LINE",
"194 294 LINE",
"408 294 LINE",
"366 0 LINE",
"493 0 LINE",
"589 686 LINE",
"462 686 LINE",
"424 408 LINE",
"210 408 LINE",
"249 686 LINE",
"122 686 LINE",
"26 0 LINE"
);
}
);
width = 592;
}
);
leftKerningGroup = I;
rightKerningGroup = I;
unicode = 0048;
},
{
glyphname = Hbar;
layers = (
{
background = {
paths = (
{
closed = 1;
nodes = (
"122 0 LINE",
"166 306 LINE",
"441 306 LINE",
"398 0 LINE",
"486 0 LINE",
"555 490 LINE",
"608 490 LINE",
"619 562 LINE",
"565 562 LINE",
"583 686 LINE",
"495 686 LINE",
"478 562 LINE",
"202 562 LINE",
"219 686 LINE",
"131 686 LINE",
"113 562 LINE",
"57 562 LINE",
"46 490 LINE",
"103 490 LINE",
"34 0 LINE"
);
},
{
closed = 1;
nodes = (
"192 490 LINE",
"468 490 LINE",
"454 386 LINE",
"178 386 LINE"
);
}
);
};
components = (
{
name = H;
},
{
name = strokelongcomb;
transform = "{1, 0, 0, 1, 44, 170}";
}
);
layerId = UUID0;
width = 592;
},
{
background = {
paths = (
{
closed = 1;
nodes = (
"155 0 LINE",
"195 286 LINE",
"409 286 LINE",
"368 0 LINE",
"495 0 LINE",
"563 490 LINE",
"611 490 LINE",
"625 577 LINE",
"575 577 LINE",
"591 686 LINE",
"464 686 LINE",
"449 577 LINE",
"236 577 LINE",
"251 686 LINE",
"124 686 LINE",
"109 577 LINE",
"60 577 LINE",
"47 490 LINE",
"96 490 LINE",
"28 0 LINE"
);
},
{
closed = 1;
nodes = (
"223 490 LINE",
"437 490 LINE",
"425 400 LINE",
"211 400 LINE"
);
}
);
};
components = (
{
name = H;
},
{
name = strokelongcomb;
transform = "{1, 0, 0, 1, 34, 170}";
}
);
layerId = "F1687A9F-F053-405E-AE0C-19A259C4FF7F";
width = 592;
}
);
leftKerningGroup = I;
rightKerningGroup = I;
unicode = 0126;
},
{
glyphname = Hcircumflex;
layers = (
{
background = {
paths = (
{
closed = 1;
nodes = (
"122 0 LINE",
"166 311 LINE",
"442 311 LINE",
"398 0 LINE",
"486 0 LINE",
"583 686 LINE",
"495 686 LINE",
"453 391 LINE",
"177 391 LINE",
"219 686 LINE",
"131 686 LINE",
"34 0 LINE"
);
},
{
closed = 1;
nodes = (
"319 748 LINE",
"375 827 LINE",
"408 748 LINE",
"485 748 LINE",
"419 883 LINE",
"341 883 LINE",
"236 748 LINE"
);
}
);
};
components = (
{
name = H;
},
{
name = circumflexcomb.case;
transform = "{1, 0, 0, 1, 192, 160}";
}
);
layerId = UUID0;
width = 592;
},
{
background = {
paths = (
{
closed = 1;
nodes = (
"155 0 LINE",
"196 294 LINE",
"410 294 LINE",
"368 0 LINE",
"495 0 LINE",
"591 686 LINE",
"464 686 LINE",
"426 408 LINE",
"212 408 LINE",
"251 686 LINE",
"124 686 LINE",
"28 0 LINE"
);
},
{
closed = 1;
nodes = (
"327 748 LINE",
"378 817 LINE",
"412 748 LINE",
"502 748 LINE",
"436 883 LINE",
"338 883 LINE",
"234 748 LINE"
);
}
);
};
components = (
{
name = H;
},
{
name = circumflexcomb.case;
transform = "{1, 0, 0, 1, 185, 160}";
}
);
layerId = "F1687A9F-F053-405E-AE0C-19A259C4FF7F";
width = 592;
}
);
leftKerningGroup = I;
rightKerningGroup = I;
unicode = 0124;
},
{
glyphname = I;
layers = (
{
anchors = (
{
name = bottom;
position = "{77, 0}";
},
{
name = ogonek;
position = "{112, 0}";
},
{
name = top;
position = "{176, 686}";
},
{
name = topleft;
position = "{79, 686}";
}
);
layerId = UUID0;
paths = (
{
closed = 1;
nodes = (
"122 0 LINE",
"219 686 LINE",
"131 686 LINE",
"34 0 LINE"
);
}
);
width = 228;
},
{
anchors = (
{
name = bottom;
position = "{77, 0}";
},
{
name = ogonek;
position = "{128, 0}";
},
{
name = top;
position = "{178, 686}";
},
{
name = topleft;
position = "{79, 686}";
}
);
layerId = "F1687A9F-F053-405E-AE0C-19A259C4FF7F";
paths = (
{
closed = 1;
nodes = (
"145 0 LINE",
"241 686 LINE",
"114 686 LINE",
"18 0 LINE"
);
}
);
width = 228;
}
);
leftKerningGroup = I;
rightKerningGroup = I;
unicode = 0049;
},
{
glyphname = IJ;
layers = (
{
layerId = UUID0;
paths = (
{
closed = 1;
nodes = (
"480 -12 OFFCURVE",
"545 49 OFFCURVE",
"561 163 CURVE SMOOTH",
"635 686 LINE",
"547 686 LINE",
"472 158 LINE SMOOTH",
"464 100 OFFCURVE",
"432 69 OFFCURVE",
"382 69 CURVE SMOOTH",
"338 69 OFFCURVE",
"314 92 OFFCURVE",
"314 137 CURVE SMOOTH",
"314 144 OFFCURVE",
"315 151 OFFCURVE",
"323 208 CURVE",
"236 208 LINE",
"228 149 OFFCURVE",
"227 136 OFFCURVE",
"227 124 CURVE SMOOTH",
"227 35 OFFCURVE",
"282 -12 OFFCURVE",
"380 -12 CURVE SMOOTH"
);
},
{
closed = 1;
nodes = (
"122 0 LINE",
"219 686 LINE",
"131 686 LINE",
"34 0 LINE"
);
}
);
width = 638;
},
{
background = {
paths = (
{
closed = 1;
nodes = (
"226 37 OFFCURVE",
"294 -12 OFFCURVE",
"416 -12 CURVE SMOOTH",
"532 -12 OFFCURVE",
"605 49 OFFCURVE",
"621 163 CURVE SMOOTH",
"695 686 LINE",
"568 686 LINE",
"496 173 LINE SMOOTH",
"489 125 OFFCURVE",
"465 98 OFFCURVE",
"421 98 CURVE SMOOTH",
"377 98 OFFCURVE",
"354 119 OFFCURVE",
"354 158 CURVE SMOOTH",
"354 162 OFFCURVE",
"354 168 OFFCURVE",
"361 216 CURVE",
"236 216 LINE",
"227 151 OFFCURVE",
"226 140 OFFCURVE",
"226 129 CURVE SMOOTH"
);
}
);
};
layerId = "F1687A9F-F053-405E-AE0C-19A259C4FF7F";
paths = (
{
closed = 1;
nodes = (
"526 -12 OFFCURVE",
"595 49 OFFCURVE",
"611 163 CURVE SMOOTH",
"685 686 LINE",
"558 686 LINE",
"486 173 LINE SMOOTH",
"479 125 OFFCURVE",
"457 98 OFFCURVE",
"416 98 CURVE SMOOTH",
"375 98 OFFCURVE",
"354 119 OFFCURVE",
"354 158 CURVE SMOOTH",
"354 162 OFFCURVE",
"354 168 OFFCURVE",
"361 216 CURVE",
"240 216 LINE",
"231 151 OFFCURVE",
"230 140 OFFCURVE",
"230 129 CURVE SMOOTH",
"230 37 OFFCURVE",
"297 -12 OFFCURVE",
"416 -12 CURVE SMOOTH"
);
},
{
closed = 1;
nodes = (
"145 0 LINE",
"241 686 LINE",
"114 686 LINE",
"18 0 LINE"
);
}
);
width = 684;
}
);
leftKerningGroup = IJ;
rightKerningGroup = IJ;
unicode = 0132;
},
{
glyphname = J;
layers = (
{
anchors = (
{
name = top;
position = "{364, 686}";
}
);
layerId = UUID0;
paths = (
{
closed = 1;
nodes = (
"252 -12 OFFCURVE",
"317 49 OFFCURVE",
"333 163 CURVE SMOOTH",
"407 686 LINE",
"319 686 LINE",
"244 158 LINE SMOOTH",
"236 100 OFFCURVE",
"204 69 OFFCURVE",
"154 69 CURVE SMOOTH",
"110 69 OFFCURVE",
"86 92 OFFCURVE",
"86 137 CURVE SMOOTH",
"86 144 OFFCURVE",
"87 151 OFFCURVE",
"95 208 CURVE",
"8 208 LINE",
"0 149 OFFCURVE",
"-1 136 OFFCURVE",
"-1 124 CURVE SMOOTH",
"-1 35 OFFCURVE",
"54 -12 OFFCURVE",
"152 -12 CURVE SMOOTH"
);
}
);
width = 410;
},
{
anchors = (
{
name = top;
position = "{402, 686}";
}
);
background = {
paths = (
{
closed = 1;
nodes = (
"-2 37 OFFCURVE",
"66 -12 OFFCURVE",
"188 -12 CURVE SMOOTH",
"304 -12 OFFCURVE",
"377 49 OFFCURVE",
"393 163 CURVE SMOOTH",
"467 686 LINE",
"340 686 LINE",
"268 173 LINE SMOOTH",
"261 125 OFFCURVE",
"237 98 OFFCURVE",
"193 98 CURVE SMOOTH",
"149 98 OFFCURVE",
"126 119 OFFCURVE",
"126 158 CURVE SMOOTH",
"126 162 OFFCURVE",
"126 168 OFFCURVE",
"133 216 CURVE",
"8 216 LINE",
"-1 151 OFFCURVE",
"-2 140 OFFCURVE",
"-2 129 CURVE SMOOTH"
);
}
);
};
layerId = "F1687A9F-F053-405E-AE0C-19A259C4FF7F";
paths = (
{
closed = 1;
nodes = (
"298 -12 OFFCURVE",
"367 49 OFFCURVE",
"383 163 CURVE SMOOTH",
"457 686 LINE",
"330 686 LINE",
"258 173 LINE SMOOTH",
"251 125 OFFCURVE",
"229 98 OFFCURVE",
"188 98 CURVE SMOOTH",
"147 98 OFFCURVE",
"126 119 OFFCURVE",
"126 158 CURVE SMOOTH",
"126 162 OFFCURVE",
"126 168 OFFCURVE",
"133 216 CURVE",
"12 216 LINE",
"3 151 OFFCURVE",
"2 140 OFFCURVE",
"2 129 CURVE SMOOTH",
"2 37 OFFCURVE",
"69 -12 OFFCURVE",
"188 -12 CURVE SMOOTH"
);
}
);
width = 456;
}
);
leftKerningGroup = J;
rightKerningGroup = U;
unicode = 004A;
},
{
glyphname = K;
layers = (
{
anchors = (
{
name = bottom;
position = "{222, 0}";
},
{
name = top;
position = "{317, 686}";
}
);
background = {
paths = (
{
closed = 1;
nodes = (
"589 686 LINE",
"484 686 LINE",
"168 329 LINE",
"219 686 LINE",
"131 686 LINE",
"34 0 LINE",
"122 0 LINE",
"152 215 LINE",
"256 317 LINE",
"401 0 LINE",
"499 0 LINE",
"320 383 LINE"
);
}
);
};
layerId = UUID0;
paths = (
{
closed = 1;
nodes = (
"122 0 LINE",
"152 213 LINE",
"279 335 LINE",
"401 0 LINE",
"499 0 LINE",
"344 409 LINE",
"589 686 LINE",
"484 686 LINE",
"168 329 LINE",
"219 686 LINE",
"131 686 LINE",
"34 0 LINE"
);
}
);
width = 547;
},
{
anchors = (
{
name = bottom;
position = "{262, 0}";
},
{
name = top;
position = "{359, 686}";
}
);
background = {
paths = (
{
closed = 1;
nodes = (
"114 686 LINE",
"18 0 LINE",
"146 0 LINE",
"169 166 LINE",
"296 288 LINE",
"411 0 LINE",
"552 0 LINE",
"389 393 LINE",
"642 686 LINE",
"492 686 LINE",
"193 340 LINE",
"242 686 LINE"
);
}
);
};
layerId = "F1687A9F-F053-405E-AE0C-19A259C4FF7F";
paths = (
{
closed = 1;
nodes = (
"156 0 LINE",
"180 175 LINE",
"304 307 LINE",
"412 0 LINE",
"552 0 LINE",
"399 405 LINE",
"642 686 LINE",
"492 686 LINE",
"204 348 LINE",
"252 686 LINE",
"124 686 LINE",
"28 0 LINE"
);
}
);
width = 592;
}
);
leftKerningGroup = I;
rightKerningGroup = K;
unicode = 004B;
},
{
glyphname = L;
layers = (
{
anchors = (
{
name = bottom;
position = "{198, 0}";
},
{
name = center;
position = "{358, 350}";
},
{
name = top;
position = "{177, 686}";
},
{
name = topright;
position = "{297, 526}";
}
);
background = {
paths = (
{
closed = 1;
nodes = (
"219 686 LINE",
"131 686 LINE",
"34 0 LINE",
"421 0 LINE",
"409 84 LINE",
"134 84 LINE"
);
}
);
};
layerId = UUID0;
paths = (
{
closed = 1;
nodes = (
"402 0 LINE",
"414 80 LINE",
"134 80 LINE",
"219 686 LINE",
"131 686 LINE",
"34 0 LINE"
);
}
);
width = 456;
},
{
anchors = (
{
name = bottom;
position = "{262, 0}";
},
{
name = center;
position = "{390, 360}";
},
{
name = top;
position = "{188, 686}";
},
{
name = topright;
position = "{329, 526}";
}
);
background = {
paths = (
{
closed = 1;
nodes = (
"114 686 LINE",
"18 0 LINE",
"471 0 LINE",
"452 120 LINE",
"162 120 LINE",
"241 686 LINE"
);
}
);
};
layerId = "F1687A9F-F053-405E-AE0C-19A259C4FF7F";
paths = (
{
closed = 1;
nodes = (
"442 0 LINE",
"459 120 LINE",
"172 120 LINE",
"251 686 LINE",
"124 686 LINE",
"28 0 LINE"
);
}
);
width = 501;
}
);
leftKerningGroup = I;
rightKerningGroup = L;
unicode = 004C;
},
{
glyphname = Lcaron;
layers = (
{
background = {
paths = (
{
closed = 1;
nodes = (
"402 0 LINE",
"414 80 LINE",
"134 80 LINE",
"219 686 LINE",
"131 686 LINE",
"34 0 LINE"
);
},
{
closed = 1;
nodes = (
"377 454 LINE",
"441 587 LINE",
"455 686 LINE",
"355 686 LINE",
"340 578 LINE",
"373 578 LINE",
"322 454 LINE"
);
}
);
};
components = (
{
name = L;
},
{
name = caroncomb.alt;
transform = "{1, 0, 0, 1, 260, 0}";
}
);
layerId = UUID0;
width = 456;
},
{
background = {
paths = (
{
closed = 1;
nodes = (
"442 0 LINE",
"459 120 LINE",
"172 120 LINE",
"251 686 LINE",
"124 686 LINE",
"28 0 LINE"
);
},
{
closed = 1;
nodes = (
"382 393 LINE",
"472 561 LINE",
"489 686 LINE",
"351 686 LINE",
"332 549 LINE",
"383 549 LINE",
"310 393 LINE"
);
}
);
};
components = (
{
name = L;
},
{
name = caroncomb.alt;
transform = "{1, 0, 0, 1, 292, 0}";
}
);
layerId = "F1687A9F-F053-405E-AE0C-19A259C4FF7F";
width = 501;
}
);
leftKerningGroup = I;
rightKerningGroup = L;
unicode = 013D;
},
{
glyphname = Ldot;
layers = (
{
background = {
paths = (
{
closed = 1;
nodes = (
"402 0 LINE",
"414 80 LINE",
"134 80 LINE",
"219 686 LINE",
"131 686 LINE",
"34 0 LINE"
);
},
{
closed = 1;
nodes = (
"400 288 LINE",
"416 399 LINE",
"314 399 LINE",
"299 288 LINE"
);
}
);
};
components = (
{
name = L;
},
{
name = periodcentered.loclCAT.case;
transform = "{1, 0, 0, 1, 204, -36}";
}
);
layerId = UUID0;
width = 456;
},
{
background = {
paths = (
{
closed = 1;
nodes = (
"442 0 LINE",
"459 120 LINE",
"172 120 LINE",
"251 686 LINE",
"124 686 LINE",
"28 0 LINE"
);
},
{
closed = 1;
nodes = (
"438 411 LINE",
"456 526 LINE",
"348 526 LINE",
"332 411 LINE"
);
}
);
};
components = (
{
name = L;
},
{
name = periodcentered.loclCAT.case;
transform = "{1, 0, 0, 1, 235, -33}";
}
);
layerId = "F1687A9F-F053-405E-AE0C-19A259C4FF7F";
width = 501;
}
);
leftKerningGroup = I;
rightKerningGroup = L;
unicode = 013F;
},
{
glyphname = Lslash;
layers = (
{
layerId = UUID0;
paths = (
{
closed = 1;
nodes = (
"402 0 LINE",
"414 80 LINE",
"134 80 LINE",
"167 314 LINE",
"341 453 LINE",
"353 536 LINE",
"178 396 LINE",
"219 686 LINE",
"131 686 LINE",
"81 331 LINE",
"5 271 LINE",
"-7 190 LINE",
"69 250 LINE",
"34 0 LINE"
);
}
);
width = 456;
},
{
layerId = "F1687A9F-F053-405E-AE0C-19A259C4FF7F";
paths = (
{
closed = 1;
nodes = (
"442 0 LINE",
"459 120 LINE",
"172 120 LINE",
"201 332 LINE",
"348 433 LINE",
"362 541 LINE",
"216 440 LINE",
"251 686 LINE",
"124 686 LINE",
"78 359 LINE",
"4 302 LINE",
"-9 196 LINE",
"63 252 LINE",
"28 0 LINE"
);
}
);
width = 501;
}
);
leftKerningGroup = H;
rightKerningGroup = L;
unicode = 0141;
},
{
glyphname = M;
layers = (
{
layerId = UUID0;
paths = (
{
closed = 1;
nodes = (
"103 0 LINE",
"173 498 LINE",
"175 514 OFFCURVE",
"183 584 OFFCURVE",
"183 584 CURVE",
"187 584 LINE",
"187 584 OFFCURVE",
"192 513 OFFCURVE",
"194 498 CURVE SMOOTH",
"259 0 LINE",
"338 0 LINE",
"545 498 LINE",
"554 518 OFFCURVE",
"576 584 OFFCURVE",
"576 584 CURVE",
"580 584 LINE",
"580 584 OFFCURVE",
"568 518 OFFCURVE",
"565 498 CURVE SMOOTH",
"495 0 LINE",
"583 0 LINE",
"680 686 LINE",
"545 686 LINE",
"359 236 LINE SMOOTH",
"342 194 OFFCURVE",
"321 102 OFFCURVE",
"321 102 CURVE",
"317 102 LINE",
"317 102 OFFCURVE",
"316 192 OFFCURVE",
"310 236 CURVE SMOOTH",
"253 686 LINE",
"121 686 LINE",
"24 0 LINE"
);
}
);
width = 683;
},
{
background = {
paths = (
{
closed = 1;
nodes = (
"109 686 LINE",
"14 0 LINE",
"125 0 LINE",
"187 437 LINE SMOOTH",
"191 464 OFFCURVE",
"197 547 OFFCURVE",
"197 547 CURVE",
"201 547 LINE",
"246 0 LINE",
"358 0 LINE",
"557 547 LINE",
"561 547 LINE",
"561 547 OFFCURVE",
"545 468 OFFCURVE",
"541 437 CURVE SMOOTH",
"480 0 LINE",
"601 0 LINE",
"697 686 LINE",
"515 686 LINE",
"373 300 LINE SMOOTH",
"359 260 OFFCURVE",
"335 145 OFFCURVE",
"335 145 CURVE",
"331 145 LINE",
"331 145 OFFCURVE",
"327 255 OFFCURVE",
"323 300 CURVE SMOOTH",
"291 686 LINE"
);
}
);
};
layerId = "F1687A9F-F053-405E-AE0C-19A259C4FF7F";
paths = (
{
closed = 1;
nodes = (
"129 0 LINE",
"191 437 LINE SMOOTH",
"195 464 OFFCURVE",
"201 547 OFFCURVE",
"201 547 CURVE",
"205 547 LINE",
"208 511 OFFCURVE",
"210 476 OFFCURVE",
"213 440 CURVE",
"248 0 LINE",
"358 0 LINE",
"515 441 LINE",
"528 476 OFFCURVE",
"540 512 OFFCURVE",
"553 547 CURVE",
"557 547 LINE",
"557 547 OFFCURVE",
"541 468 OFFCURVE",
"537 437 CURVE SMOOTH",
"476 0 LINE",
"593 0 LINE",
"689 686 LINE",
"516 686 LINE",
"381 312 LINE SMOOTH",
"366 272 OFFCURVE",
"336 153 OFFCURVE",
"336 153 CURVE",
"332 153 LINE",
"332 153 OFFCURVE",
"329 263 OFFCURVE",
"325 308 CURVE SMOOTH",
"294 686 LINE",
"117 686 LINE",
"21 0 LINE"
);
}
);
width = 683;
}
);
leftKerningGroup = I;
rightKerningGroup = I;
unicode = 004D;
},
{
glyphname = N;
layers = (
{
anchors = (
{
name = bottom;
position = "{259, 0}";
},
{
name = top;
position = "{356, 686}";
}
);
layerId = UUID0;
paths = (
{
closed = 1;
nodes = (
"112 0 LINE",
"174 437 LINE",
"178 465 OFFCURVE",
"183 528 OFFCURVE",
"183 528 CURVE",
"186 529 LINE",
"186 529 OFFCURVE",
"206 466 OFFCURVE",
"219 437 CURVE SMOOTH",
"416 0 LINE",
"485 0 LINE",
"582 686 LINE",
"503 686 LINE",
"442 255 LINE SMOOTH",
"439 233 OFFCURVE",
"432 164 OFFCURVE",
"432 164 CURVE",
"429 163 LINE",
"429 163 OFFCURVE",
"408 229 OFFCURVE",
"397 255 CURVE",
"202 686 LINE",
"130 686 LINE",
"33 0 LINE"
);
}
);
width = 592;
},
{
anchors = (
{
name = bottom;
position = "{262, 0}";
},
{
name = top;
position = "{359, 686}";
}
);
background = {
paths = (
{
closed = 1;
nodes = (
"114 686 LINE",
"18 0 LINE",
"136 0 LINE",
"190 388 LINE SMOOTH",
"193 409 OFFCURVE",
"193 455 OFFCURVE",
"193 455 CURVE",
"197 458 LINE",
"197 458 OFFCURVE",
"213 404 OFFCURVE",
"219 388 CURVE",
"390 0 LINE",
"505 0 LINE",
"601 686 LINE",
"482 686 LINE",
"428 298 LINE",
"427 285 OFFCURVE",
"425 231 OFFCURVE",
"425 231 CURVE",
"422 228 LINE",
"422 228 OFFCURVE",
"408 278 OFFCURVE",
"399 298 CURVE SMOOTH",
"229 686 LINE"
);
}
);
};
layerId = "F1687A9F-F053-405E-AE0C-19A259C4FF7F";
paths = (
{
closed = 1;
nodes = (
"140 0 LINE",
"193 382 LINE SMOOTH",
"196 400 OFFCURVE",
"199 439 OFFCURVE",
"199 439 CURVE",
"203 442 LINE",
"203 442 OFFCURVE",
"219 392 OFFCURVE",
"225 378 CURVE SMOOTH",
"382 0 LINE",
"495 0 LINE",
"591 686 LINE",
"478 686 LINE",
"425 304 LINE SMOOTH",
"423 293 OFFCURVE",
"418 247 OFFCURVE",
"418 247 CURVE",
"415 244 LINE",
"415 244 OFFCURVE",
"400 291 OFFCURVE",
"393 308 CURVE SMOOTH",
"236 686 LINE",
"124 686 LINE",
"28 0 LINE"
);
}
);
width = 592;
}
);
leftKerningGroup = I;
rightKerningGroup = I;
unicode = 004E;
},
{
glyphname = Eng;
layers = (
{
layerId = UUID0;
paths = (
{
closed = 1;
nodes = (
"436 -182 OFFCURVE",
"468 -121 OFFCURVE",
"477 -61 CURVE",
"582 686 LINE",
"503 686 LINE",
"442 255 LINE SMOOTH",
"439 233 OFFCURVE",
"432 164 OFFCURVE",
"432 164 CURVE",
"429 163 LINE",
"429 163 OFFCURVE",
"408 229 OFFCURVE",
"397 255 CURVE",
"202 686 LINE",
"130 686 LINE",
"33 0 LINE",
"112 0 LINE",
"174 437 LINE",
"178 465 OFFCURVE",
"183 528 OFFCURVE",
"183 528 CURVE",
"186 529 LINE",
"186 529 OFFCURVE",
"206 466 OFFCURVE",
"219 437 CURVE SMOOTH",
"406 21 LINE",
"394 -65 LINE SMOOTH",
"390 -96 OFFCURVE",
"373 -113 OFFCURVE",
"342 -113 CURVE SMOOTH",
"298 -113 LINE",
"290 -170 LINE",
"306 -176 OFFCURVE",
"333 -182 OFFCURVE",
"357 -182 CURVE SMOOTH"
);
}
);
width = 593;
},
{
background = {
paths = (
{
closed = 1;
nodes = (
"114 686 LINE",
"18 0 LINE",
"136 0 LINE",
"190 388 LINE SMOOTH",
"193 409 OFFCURVE",
"193 455 OFFCURVE",
"193 455 CURVE",
"197 458 LINE",
"197 458 OFFCURVE",
"213 404 OFFCURVE",
"219 388 CURVE",
"388 4 LINE",
"383 -33 LINE SMOOTH",
"378 -64 OFFCURVE",
"361 -81 OFFCURVE",
"330 -81 CURVE SMOOTH",
"287 -81 LINE",
"275 -170 LINE",
"294 -176 OFFCURVE",
"331 -182 OFFCURVE",
"361 -182 CURVE SMOOTH",
"455 -182 OFFCURVE",
"490 -111 OFFCURVE",
"500 -41 CURVE SMOOTH",
"601 686 LINE",
"482 686 LINE",
"428 298 LINE",
"427 285 OFFCURVE",
"425 231 OFFCURVE",
"425 231 CURVE",
"422 228 LINE",
"422 228 OFFCURVE",
"408 278 OFFCURVE",
"399 298 CURVE SMOOTH",
"229 686 LINE"
);
}
);
};
layerId = "F1687A9F-F053-405E-AE0C-19A259C4FF7F";
paths = (
{
closed = 1;
nodes = (
"445 -182 OFFCURVE",
"479 -111 OFFCURVE",
"489 -41 CURVE SMOOTH",
"591 686 LINE",
"478 686 LINE",
"425 304 LINE SMOOTH",
"423 293 OFFCURVE",
"418 247 OFFCURVE",
"418 247 CURVE",
"415 244 LINE",
"415 244 OFFCURVE",
"400 291 OFFCURVE",
"393 308 CURVE SMOOTH",
"236 686 LINE",
"124 686 LINE",
"28 0 LINE",
"140 0 LINE",
"193 382 LINE SMOOTH",
"196 400 OFFCURVE",
"199 439 OFFCURVE",
"199 439 CURVE",
"203 442 LINE",
"203 442 OFFCURVE",
"219 392 OFFCURVE",
"225 378 CURVE SMOOTH",
"379 7 LINE",
"373 -33 LINE SMOOTH",
"368 -64 OFFCURVE",
"351 -81 OFFCURVE",
"320 -81 CURVE",
"277 -81 LINE",
"265 -170 LINE",
"284 -176 OFFCURVE",
"321 -182 OFFCURVE",
"351 -182 CURVE SMOOTH"
);
}
);
width = 604;
}
);
leftKerningGroup = I;
rightKerningGroup = I;
unicode = 014A;
},
{
glyphname = Nhookleft;
layers = (
{
layerId = UUID0;
paths = (
{
closed = 1;
nodes = (
"65 -182 OFFCURVE",
"95 -121 OFFCURVE",
"103 -61 CURVE SMOOTH",
"174 437 LINE SMOOTH",
"177 457 OFFCURVE",
"181 501 OFFCURVE",
"183 528 CURVE",
"186 529 LINE",
"195 502 OFFCURVE",
"210 458 OFFCURVE",
"219 437 CURVE SMOOTH",
"416 0 LINE",
"485 0 LINE",
"582 686 LINE",
"503 686 LINE",
"442 255 LINE SMOOTH",
"440 239 OFFCURVE",
"435 194 OFFCURVE",
"432 164 CURVE",
"429 163 LINE",
"420 191 OFFCURVE",
"405 236 OFFCURVE",
"397 255 CURVE SMOOTH",
"202 686 LINE",
"130 686 LINE",
"24 -65 LINE SMOOTH",
"20 -96 OFFCURVE",
"2 -113 OFFCURVE",
"-29 -113 CURVE SMOOTH",
"-72 -113 LINE",
"-80 -170 LINE",
"-64 -176 OFFCURVE",
"-37 -182 OFFCURVE",
"-13 -182 CURVE SMOOTH"
);
}
);
width = 592;
},
{
layerId = "F1687A9F-F053-405E-AE0C-19A259C4FF7F";
paths = (
{
closed = 1;
nodes = (
"85 -182 OFFCURVE",
"123 -118 OFFCURVE",
"132 -55 CURVE SMOOTH",
"193 382 LINE SMOOTH",
"195 395 OFFCURVE",
"198 422 OFFCURVE",
"199 439 CURVE",
"203 442 LINE",
"210 421 OFFCURVE",
"221 388 OFFCURVE",
"225 378 CURVE SMOOTH",
"382 0 LINE",
"495 0 LINE",
"591 686 LINE",
"478 686 LINE",
"425 304 LINE SMOOTH",
"424 296 OFFCURVE",
"420 267 OFFCURVE",
"418 247 CURVE",
"415 244 LINE",
"409 264 OFFCURVE",
"398 296 OFFCURVE",
"393 308 CURVE SMOOTH",
"236 686 LINE",
"124 686 LINE",
"20 -53 LINE SMOOTH",
"16 -83 OFFCURVE",
"-1 -100 OFFCURVE",
"-31 -100 CURVE SMOOTH",
"-77 -100 LINE",
"-87 -169 LINE",
"-69 -175 OFFCURVE",
"-38 -182 OFFCURVE",
"-11 -182 CURVE SMOOTH"
);
}
);
width = 592;
}
);
leftKerningGroup = H;
rightKerningGroup = H;
unicode = 019D;
},
{
glyphname = O;
layers = (
{
anchors = (
{
name = bottom;
position = "{284, 0}";
},
{
name = center;
position = "{332, 343}";
},
{
name = ogonek;
position = "{320, 0}";
},
{
name = top;
position = "{381, 686}";
},
{
name = topleft;
position = "{81, 686}";
},
{
name = topright;
position = "{453, 686}";
}
);
layerId = UUID0;
paths = (
{
closed = 1;
nodes = (
"531 -12 OFFCURVE",
"607 246 OFFCURVE",
"607 437 CURVE SMOOTH",
"607 612 OFFCURVE",
"519 698 OFFCURVE",
"369 698 CURVE SMOOTH",
"128 698 OFFCURVE",
"53 438 OFFCURVE",
"53 247 CURVE SMOOTH",
"53 73 OFFCURVE",
"140 -12 OFFCURVE",
"290 -12 CURVE SMOOTH"
);
},
{
closed = 1;
nodes = (
"197 69 OFFCURVE",
"143 128 OFFCURVE",
"143 249 CURVE SMOOTH",
"143 398 OFFCURVE",
"188 617 OFFCURVE",
"368 617 CURVE SMOOTH",
"461 617 OFFCURVE",
"516 557 OFFCURVE",
"516 437 CURVE SMOOTH",
"516 290 OFFCURVE",
"472 69 OFFCURVE",
"291 69 CURVE SMOOTH"
);
}
);
width = 638;
},
{
anchors = (
{
name = bottom;
position = "{282, 0}";
},
{
name = center;
position = "{330, 343}";
},
{
name = ogonek;
position = "{323, 0}";
},
{
name = top;
position = "{383, 686}";
},
{
name = topleft;
position = "{79, 686}";
},
{
name = topright;
position = "{441, 686}";
}
);
layerId = "F1687A9F-F053-405E-AE0C-19A259C4FF7F";
paths = (
{
closed = 1;
nodes = (
"532 -12 OFFCURVE",
"619 234 OFFCURVE",
"619 435 CURVE SMOOTH",
"619 614 OFFCURVE",
"524 698 OFFCURVE",
"364 698 CURVE SMOOTH",
"126 698 OFFCURVE",
"41 451 OFFCURVE",
"41 250 CURVE SMOOTH",
"41 72 OFFCURVE",
"135 -12 OFFCURVE",
"295 -12 CURVE SMOOTH"
);
},
{
closed = 1;
nodes = (
"208 98 OFFCURVE",
"170 156 OFFCURVE",
"170 255 CURVE SMOOTH",
"170 383 OFFCURVE",
"207 588 OFFCURVE",
"369 588 CURVE SMOOTH",
"450 588 OFFCURVE",
"489 530 OFFCURVE",
"489 430 CURVE SMOOTH",
"489 303 OFFCURVE",
"451 98 OFFCURVE",
"290 98 CURVE SMOOTH"
);
}
);
width = 638;
}
);
leftKerningGroup = O;
rightKerningGroup = O;
unicode = 004F;
},
{
glyphname = Oslash;
layers = (
{
anchors = (
{
name = bottom;
position = "{282, 0}";
},
{
name = top;
position = "{379, 686}";
}
);
background = {
paths = (
{
closed = 1;
nodes = (
"114 -37 LINE",
"151 21 LINE",
"188 -1 OFFCURVE",
"234 -12 OFFCURVE",
"288 -12 CURVE SMOOTH",
"529 -12 OFFCURVE",
"605 246 OFFCURVE",
"605 437 CURVE SMOOTH",
"605 522 OFFCURVE",
"584 586 OFFCURVE",
"545 630 CURVE",
"605 723 LINE",
"541 723 LINE",
"503 664 LINE",
"467 687 OFFCURVE",
"421 698 OFFCURVE",
"367 698 CURVE SMOOTH",
"126 698 OFFCURVE",
"51 438 OFFCURVE",
"51 247 CURVE SMOOTH",
"51 162 OFFCURVE",
"71 99 OFFCURVE",
"110 56 CURVE",
"50 -37 LINE"
);
},
{
closed = 1;
nodes = (
"253 69 OFFCURVE",
"223 77 OFFCURVE",
"199 95 CURVE",
"491 547 LINE",
"506 519 OFFCURVE",
"514 482 OFFCURVE",
"514 437 CURVE SMOOTH",
"514 290 OFFCURVE",
"470 69 OFFCURVE",
"289 69 CURVE SMOOTH"
);
},
{
closed = 1;
nodes = (
"149 166 OFFCURVE",
"141 203 OFFCURVE",
"141 249 CURVE SMOOTH",
"141 398 OFFCURVE",
"186 617 OFFCURVE",
"366 617 CURVE SMOOTH",
"401 617 OFFCURVE",
"432 608 OFFCURVE",
"455 590 CURVE",
"163 138 LINE"
);
}
);
};
components = (
{
name = O;
}
);
layerId = UUID0;
paths = (
{
closed = 1;
nodes = (
"114 -37 LINE",
"605 723 LINE",
"541 723 LINE",
"50 -37 LINE"
);
}
);
width = 638;
},
{
anchors = (
{
name = bottom;
position = "{282, 0}";
},
{
name = top;
position = "{383, 686}";
}
);
background = {
paths = (
{
closed = 1;
nodes = (
"129 -37 LINE",
"163 16 LINE",
"201 -2 OFFCURVE",
"246 -12 OFFCURVE",
"299 -12 CURVE SMOOTH",
"536 -12 OFFCURVE",
"623 234 OFFCURVE",
"623 435 CURVE SMOOTH",
"623 520 OFFCURVE",
"601 584 OFFCURVE",
"561 628 CURVE",
"623 723 LINE",
"539 723 LINE",
"504 670 LINE",
"467 689 OFFCURVE",
"421 698 OFFCURVE",
"368 698 CURVE SMOOTH",
"130 698 OFFCURVE",
"45 451 OFFCURVE",
"45 250 CURVE SMOOTH",
"45 165 OFFCURVE",
"66 101 OFFCURVE",
"106 58 CURVE",
"45 -37 LINE"
);
},
{
closed = 1;
nodes = (
"267 98 OFFCURVE",
"245 104 OFFCURVE",
"228 115 CURVE",
"482 507 LINE",
"489 485 OFFCURVE",
"493 459 OFFCURVE",
"493 430 CURVE SMOOTH",
"493 303 OFFCURVE",
"455 98 OFFCURVE",
"294 98 CURVE SMOOTH"
);
},
{
closed = 1;
nodes = (
"177 199 OFFCURVE",
"174 225 OFFCURVE",
"174 255 CURVE SMOOTH",
"174 383 OFFCURVE",
"211 588 OFFCURVE",
"373 588 CURVE SMOOTH",
"399 588 OFFCURVE",
"422 582 OFFCURVE",
"439 570 CURVE",
"184 177 LINE"
);
}
);
};
components = (
{
name = O;
}
);
layerId = "F1687A9F-F053-405E-AE0C-19A259C4FF7F";
paths = (
{
closed = 1;
nodes = (
"129 -37 LINE",
"623 723 LINE",
"539 723 LINE",
"45 -37 LINE"
);
}
);
width = 638;
}
);
leftKerningGroup = O;
rightKerningGroup = O;
unicode = 00D8;
},
{
glyphname = OE;
layers = (
{
anchors = (
{
name = top;
position = "{410, 686}";
}
);
background = {
paths = (
{
closed = 1;
nodes = (
"100 698 OFFCURVE",
"40 394 OFFCURVE",
"40 231 CURVE SMOOTH",
"40 68 OFFCURVE",
"106 -12 OFFCURVE",
"223 -12 CURVE SMOOTH",
"287 -12 OFFCURVE",
"341 14 OFFCURVE",
"386 68 CURVE",
"376 0 LINE",
"754 0 LINE",
"741 84 LINE",
"476 84 LINE",
"508 309 LINE",
"738 309 LINE",
"750 393 LINE",
"520 393 LINE",
"549 602 LINE",
"806 602 LINE",
"831 686 LINE",
"473 686 LINE",
"463 618 LINE",
"434 671 OFFCURVE",
"386 698 OFFCURVE",
"322 698 CURVE SMOOTH"
);
},
{
closed = 1;
nodes = (
"393 617 OFFCURVE",
"434 562 OFFCURVE",
"434 451 CURVE SMOOTH",
"434 331 OFFCURVE",
"403 69 OFFCURVE",
"244 69 CURVE SMOOTH",
"172 69 OFFCURVE",
"131 124 OFFCURVE",
"131 235 CURVE SMOOTH",
"131 354 OFFCURVE",
"169 617 OFFCURVE",
"321 617 CURVE SMOOTH"
);
}
);
};
layerId = UUID0;
paths = (
{
closed = 1;
nodes = (
"287 -12 OFFCURVE",
"341 14 OFFCURVE",
"386 68 CURVE",
"376 0 LINE",
"742 0 LINE",
"754 80 LINE",
"476 80 LINE",
"508 311 LINE",
"736 311 LINE",
"747 391 LINE",
"519 391 LINE",
"549 606 LINE",
"821 606 LINE",
"833 686 LINE",
"473 686 LINE",
"463 618 LINE",
"434 671 OFFCURVE",
"386 698 OFFCURVE",
"322 698 CURVE SMOOTH",
"100 698 OFFCURVE",
"40 394 OFFCURVE",
"40 231 CURVE SMOOTH",
"40 68 OFFCURVE",
"106 -12 OFFCURVE",
"223 -12 CURVE SMOOTH"
);
},
{
closed = 1;
nodes = (
"172 69 OFFCURVE",
"131 124 OFFCURVE",
"131 235 CURVE SMOOTH",
"131 354 OFFCURVE",
"169 617 OFFCURVE",
"321 617 CURVE SMOOTH",
"393 617 OFFCURVE",
"434 562 OFFCURVE",
"434 451 CURVE SMOOTH",
"434 331 OFFCURVE",
"403 69 OFFCURVE",
"244 69 CURVE SMOOTH"
);
}
);
width = 820;
},
{
anchors = (
{
name = top;
position = "{410, 686}";
}
);
background = {
paths = (
{
closed = 1;
nodes = (
"285 -12 OFFCURVE",
"339 11 OFFCURVE",
"384 61 CURVE",
"375 0 LINE",
"780 0 LINE",
"763 114 LINE",
"517 114 LINE",
"543 294 LINE",
"758 294 LINE",
"774 408 LINE",
"559 408 LINE",
"582 572 LINE",
"820 572 LINE",
"852 686 LINE",
"471 686 LINE",
"462 624 LINE",
"428 674 OFFCURVE",
"375 698 OFFCURVE",
"308 698 CURVE SMOOTH",
"98 698 OFFCURVE",
"40 397 OFFCURVE",
"40 232 CURVE SMOOTH",
"40 66 OFFCURVE",
"109 -12 OFFCURVE",
"225 -12 CURVE SMOOTH"
);
},
{
closed = 1;
nodes = (
"202 98 OFFCURVE",
"169 138 OFFCURVE",
"169 233 CURVE SMOOTH",
"169 257 OFFCURVE",
"171 286 OFFCURVE",
"183 368 CURVE SMOOTH",
"204 520 OFFCURVE",
"250 588 OFFCURVE",
"327 588 CURVE SMOOTH",
"395 588 OFFCURVE",
"432 551 OFFCURVE",
"432 453 CURVE SMOOTH",
"432 429 OFFCURVE",
"429 400 OFFCURVE",
"418 318 CURVE SMOOTH",
"396 161 OFFCURVE",
"347 98 OFFCURVE",
"266 98 CURVE SMOOTH"
);
}
);
};
layerId = "F1687A9F-F053-405E-AE0C-19A259C4FF7F";
paths = (
{
closed = 1;
nodes = (
"285 -12 OFFCURVE",
"339 11 OFFCURVE",
"384 61 CURVE",
"375 0 LINE",
"757 0 LINE",
"772 114 LINE",
"517 114 LINE",
"543 294 LINE",
"748 294 LINE",
"764 408 LINE",
"559 408 LINE",
"582 572 LINE",
"830 572 LINE",
"846 686 LINE",
"471 686 LINE",
"462 624 LINE",
"428 674 OFFCURVE",
"375 698 OFFCURVE",
"308 698 CURVE SMOOTH",
"98 698 OFFCURVE",
"40 397 OFFCURVE",
"40 232 CURVE SMOOTH",
"40 66 OFFCURVE",
"109 -12 OFFCURVE",
"225 -12 CURVE SMOOTH"
);
},
{
closed = 1;
nodes = (
"202 98 OFFCURVE",
"169 138 OFFCURVE",
"169 233 CURVE SMOOTH",
"169 380 OFFCURVE",
"206 588 OFFCURVE",
"327 588 CURVE SMOOTH",
"395 588 OFFCURVE",
"432 551 OFFCURVE",
"432 453 CURVE SMOOTH",
"432 301 OFFCURVE",
"395 98 OFFCURVE",
"266 98 CURVE SMOOTH"
);
}
);
width = 820;
}
);
leftKerningGroup = O;
rightKerningGroup = E;
unicode = 0152;
},
{
glyphname = P;
layers = (
{
background = {
paths = (
{
closed = 1;
nodes = (
"131 686 LINE",
"34 0 LINE",
"122 0 LINE",
"162 281 LINE",
"319 281 LINE SMOOTH",
"458 281 OFFCURVE",
"555 370 OFFCURVE",
"555 515 CURVE SMOOTH",
"555 618 OFFCURVE",
"493 686 OFFCURVE",
"366 686 CURVE SMOOTH"
);
},
{
closed = 1;
nodes = (
"361 602 LINE SMOOTH",
"427 602 OFFCURVE",
"462 563 OFFCURVE",
"462 499 CURVE SMOOTH",
"462 417 OFFCURVE",
"404 365 OFFCURVE",
"328 365 CURVE SMOOTH",
"174 365 LINE",
"207 602 LINE"
);
}
);
};
layerId = UUID0;
paths = (
{
closed = 1;
nodes = (
"122 0 LINE",
"162 283 LINE",
"323 283 LINE SMOOTH",
"460 283 OFFCURVE",
"555 367 OFFCURVE",
"555 512 CURVE SMOOTH",
"555 615 OFFCURVE",
"493 686 OFFCURVE",
"366 686 CURVE SMOOTH",
"131 686 LINE",
"34 0 LINE"
);
},
{
closed = 1;
nodes = (
"207 606 LINE",
"361 606 LINE SMOOTH",
"427 606 OFFCURVE",
"462 562 OFFCURVE",
"462 496 CURVE SMOOTH",
"462 414 OFFCURVE",
"406 363 OFFCURVE",
"332 363 CURVE SMOOTH",
"174 363 LINE"
);
}
);
width = 547;
},
{
background = {
paths = (
{
closed = 1;
nodes = (
"114 686 LINE",
"18 0 LINE",
"144 0 LINE",
"182 266 LINE",
"323 266 LINE",
"452 266 OFFCURVE",
"552 363 OFFCURVE",
"552 509 CURVE SMOOTH",
"552 612 OFFCURVE",
"490 686 OFFCURVE",
"361 686 CURVE SMOOTH"
);
},
{
closed = 1;
nodes = (
"198 379 LINE",
"225 572 LINE",
"338 572 LINE",
"391 572 OFFCURVE",
"421 539 OFFCURVE",
"421 489 CURVE SMOOTH",
"421 420 OFFCURVE",
"377 379 OFFCURVE",
"316 379 CURVE SMOOTH"
);
}
);
};
layerId = "F1687A9F-F053-405E-AE0C-19A259C4FF7F";
paths = (
{
closed = 1;
nodes = (
"154 0 LINE",
"192 266 LINE",
"323 266 LINE",
"452 266 OFFCURVE",
"552 363 OFFCURVE",
"552 509 CURVE SMOOTH",
"552 612 OFFCURVE",
"490 686 OFFCURVE",
"361 686 CURVE SMOOTH",
"124 686 LINE",
"28 0 LINE"
);
},
{
closed = 1;
nodes = (
"235 572 LINE",
"338 572 LINE",
"391 572 OFFCURVE",
"421 539 OFFCURVE",
"421 489 CURVE SMOOTH",
"421 420 OFFCURVE",
"377 379 OFFCURVE",
"316 379 CURVE SMOOTH",
"208 379 LINE"
);
}
);
width = 547;
}
);
leftKerningGroup = I;
rightKerningGroup = P;
unicode = 0050;
},
{
glyphname = Thorn;
layers = (
{
background = {
paths = (
{
closed = 1;
nodes = (
"219 686 LINE",
"131 686 LINE",
"34 0 LINE",
"122 0 LINE",
"143 146 LINE",
"300 146 LINE SMOOTH",
"439 146 OFFCURVE",
"536 235 OFFCURVE",
"536 380 CURVE SMOOTH",
"536 483 OFFCURVE",
"474 551 OFFCURVE",
"347 551 CURVE SMOOTH",
"200 551 LINE"
);
},
{
closed = 1;
nodes = (
"342 467 LINE SMOOTH",
"408 467 OFFCURVE",
"443 428 OFFCURVE",
"443 364 CURVE SMOOTH",
"443 282 OFFCURVE",
"385 230 OFFCURVE",
"309 230 CURVE SMOOTH",
"155 230 LINE",
"188 467 LINE"
);
}
);
};
layerId = UUID0;
paths = (
{
closed = 1;
nodes = (
"122 0 LINE",
"143 146 LINE",
"300 146 LINE SMOOTH",
"439 146 OFFCURVE",
"536 235 OFFCURVE",
"536 380 CURVE SMOOTH",
"536 483 OFFCURVE",
"474 551 OFFCURVE",
"347 551 CURVE SMOOTH",
"200 551 LINE",
"219 686 LINE",
"131 686 LINE",
"34 0 LINE"
);
},
{
closed = 1;
nodes = (
"189 471 LINE",
"342 471 LINE",
"408 471 OFFCURVE",
"443 430 OFFCURVE",
"443 364 CURVE SMOOTH",
"443 280 OFFCURVE",
"385 226 OFFCURVE",
"309 226 CURVE SMOOTH",
"154 226 LINE"
);
}
);
width = 547;
},
{
background = {
paths = (
{
closed = 1;
nodes = (
"114 686 LINE",
"18 0 LINE",
"145 0 LINE",
"165 142 LINE",
"306 142 LINE SMOOTH",
"435 142 OFFCURVE",
"535 239 OFFCURVE",
"535 385 CURVE SMOOTH",
"535 488 OFFCURVE",
"473 562 OFFCURVE",
"344 562 CURVE SMOOTH",
"224 562 LINE",
"241 686 LINE"
);
},
{
closed = 1;
nodes = (
"181 255 LINE",
"208 448 LINE",
"321 448 LINE SMOOTH",
"374 448 OFFCURVE",
"404 415 OFFCURVE",
"404 365 CURVE SMOOTH",
"404 296 OFFCURVE",
"360 255 OFFCURVE",
"299 255 CURVE SMOOTH"
);
}
);
};
layerId = "F1687A9F-F053-405E-AE0C-19A259C4FF7F";
paths = (
{
closed = 1;
nodes = (
"155 0 LINE",
"175 142 LINE",
"306 142 LINE SMOOTH",
"435 142 OFFCURVE",
"535 239 OFFCURVE",
"535 385 CURVE SMOOTH",
"535 488 OFFCURVE",
"473 562 OFFCURVE",
"344 562 CURVE SMOOTH",
"234 562 LINE",
"251 686 LINE",
"124 686 LINE",
"28 0 LINE"
);
},
{
closed = 1;
nodes = (
"218 448 LINE",
"321 448 LINE",
"374 448 OFFCURVE",
"404 415 OFFCURVE",
"404 365 CURVE SMOOTH",
"404 296 OFFCURVE",
"360 255 OFFCURVE",
"299 255 CURVE SMOOTH",
"191 255 LINE"
);
}
);
width = 547;
}
);
leftKerningGroup = I;
rightKerningGroup = P;
unicode = 00DE;
},
{
glyphname = Q;
layers = (
{
background = {
paths = (
{
closed = 1;
nodes = (
"128 698 OFFCURVE",
"51 438 OFFCURVE",
"51 247 CURVE SMOOTH",
"51 99 OFFCURVE",
"113 16 OFFCURVE",
"224 -6 CURVE",
"224 -6 OFFCURVE",
"223 -20 OFFCURVE",
"223 -26 CURVE SMOOTH",
"223 -83 OFFCURVE",
"257 -145 OFFCURVE",
"375 -145 CURVE SMOOTH",
"451 -145 OFFCURVE",
"514 -116 OFFCURVE",
"514 -116 CURVE",
"521 -70 LINE",
"395 -70 LINE SMOOTH",
"342 -70 OFFCURVE",
"321 -47 OFFCURVE",
"321 -17 CURVE SMOOTH",
"321 -10 LINE",
"530 13 OFFCURVE",
"605 251 OFFCURVE",
"605 437 CURVE SMOOTH",
"605 612 OFFCURVE",
"517 698 OFFCURVE",
"367 698 CURVE SMOOTH"
);
},
{
closed = 1;
nodes = (
"459 617 OFFCURVE",
"514 557 OFFCURVE",
"514 437 CURVE SMOOTH",
"514 290 OFFCURVE",
"470 69 OFFCURVE",
"289 69 CURVE SMOOTH",
"195 69 OFFCURVE",
"141 128 OFFCURVE",
"141 249 CURVE SMOOTH",
"141 398 OFFCURVE",
"186 617 OFFCURVE",
"366 617 CURVE SMOOTH"
);
}
);
};
layerId = UUID0;
paths = (
{
closed = 1;
nodes = (
"510 -124 LINE",
"388 5 LINE",
"550 66 OFFCURVE",
"605 275 OFFCURVE",
"605 437 CURVE SMOOTH",
"605 612 OFFCURVE",
"517 698 OFFCURVE",
"367 698 CURVE SMOOTH",
"126 698 OFFCURVE",
"51 438 OFFCURVE",
"51 247 CURVE SMOOTH",
"51 78 OFFCURVE",
"130 -12 OFFCURVE",
"296 -12 CURVE",
"400 -124 LINE"
);
},
{
closed = 1;
nodes = (
"195 69 OFFCURVE",
"141 128 OFFCURVE",
"141 249 CURVE SMOOTH",
"141 398 OFFCURVE",
"186 617 OFFCURVE",
"366 617 CURVE SMOOTH",
"459 617 OFFCURVE",
"514 557 OFFCURVE",
"514 437 CURVE SMOOTH",
"514 290 OFFCURVE",
"470 69 OFFCURVE",
"289 69 CURVE SMOOTH"
);
}
);
width = 638;
},
{
background = {
paths = (
{
closed = 1;
nodes = (
"219 -12 OFFCURVE",
"219 -22 OFFCURVE",
"219 -29 CURVE SMOOTH",
"219 -102 OFFCURVE",
"260 -158 OFFCURVE",
"377 -158 CURVE SMOOTH",
"461 -158 OFFCURVE",
"530 -126 OFFCURVE",
"530 -126 CURVE",
"539 -59 LINE",
"421 -59 LINE SMOOTH",
"358 -59 OFFCURVE",
"348 -32 OFFCURVE",
"348 -8 CURVE",
"548 23 OFFCURVE",
"623 248 OFFCURVE",
"623 435 CURVE SMOOTH",
"623 614 OFFCURVE",
"528 698 OFFCURVE",
"368 698 CURVE SMOOTH",
"130 698 OFFCURVE",
"45 451 OFFCURVE",
"45 250 CURVE SMOOTH",
"45 103 OFFCURVE",
"108 21 OFFCURVE",
"220 -4 CURVE"
);
},
{
closed = 1;
nodes = (
"174 383 OFFCURVE",
"211 588 OFFCURVE",
"373 588 CURVE SMOOTH",
"454 588 OFFCURVE",
"493 530 OFFCURVE",
"493 430 CURVE SMOOTH",
"493 303 OFFCURVE",
"455 98 OFFCURVE",
"294 98 CURVE SMOOTH",
"212 98 OFFCURVE",
"174 156 OFFCURVE",
"174 255 CURVE SMOOTH"
);
}
);
};
layerId = "F1687A9F-F053-405E-AE0C-19A259C4FF7F";
paths = (
{
closed = 1;
nodes = (
"535 -124 LINE",
"423 14 LINE",
"567 83 OFFCURVE",
"623 274 OFFCURVE",
"623 435 CURVE SMOOTH",
"623 614 OFFCURVE",
"528 698 OFFCURVE",
"368 698 CURVE SMOOTH",
"130 698 OFFCURVE",
"45 451 OFFCURVE",
"45 250 CURVE SMOOTH",
"45 73 OFFCURVE",
"138 -11 OFFCURVE",
"296 -12 CURVE",
"380 -124 LINE"
);
},
{
closed = 1;
nodes = (
"212 98 OFFCURVE",
"174 156 OFFCURVE",
"174 255 CURVE SMOOTH",
"174 383 OFFCURVE",
"211 588 OFFCURVE",
"373 588 CURVE SMOOTH",
"454 588 OFFCURVE",
"493 530 OFFCURVE",
"493 430 CURVE SMOOTH",
"493 303 OFFCURVE",
"455 98 OFFCURVE",
"294 98 CURVE SMOOTH"
);
}
);
width = 638;
}
);
leftKerningGroup = O;
rightKerningGroup = O;
unicode = 0051;
},
{
glyphname = R;
layers = (
{
anchors = (
{
name = bottom;
position = "{281, 0}";
},
{
name = top;
position = "{340, 686}";
}
);
background = {
paths = (
{
closed = 1;
nodes = (
"130 686 LINE",
"34 0 LINE",
"122 0 LINE",
"164 302 LINE",
"327 302 LINE SMOOTH",
"383 302 OFFCURVE",
"426 269 OFFCURVE",
"426 209 CURVE SMOOTH",
"426 149 OFFCURVE",
"419 106 OFFCURVE",
"419 67 CURVE SMOOTH",
"419 28 OFFCURVE",
"441 -5 OFFCURVE",
"496 -5 CURVE SMOOTH",
"529 -5 OFFCURVE",
"542 3 OFFCURVE",
"542 3 CURVE",
"546 31 LINE",
"528 39 OFFCURVE",
"512 55 OFFCURVE",
"512 95 CURVE SMOOTH",
"512 135 OFFCURVE",
"520 151 OFFCURVE",
"520 222 CURVE SMOOTH",
"520 293 OFFCURVE",
"479 337 OFFCURVE",
"442 348 CURVE",
"442 352 LINE",
"509 373 OFFCURVE",
"574 439 OFFCURVE",
"574 533 CURVE SMOOTH",
"574 624 OFFCURVE",
"508 686 OFFCURVE",
"409 686 CURVE SMOOTH"
);
},
{
closed = 1;
nodes = (
"387 602 LINE SMOOTH",
"443 602 OFFCURVE",
"478 569 OFFCURVE",
"478 508 CURVE SMOOTH",
"478 440 OFFCURVE",
"427 386 OFFCURVE",
"351 386 CURVE SMOOTH",
"176 386 LINE",
"206 602 LINE"
);
}
);
};
layerId = UUID0;
paths = (
{
closed = 1;
nodes = (
"122 0 LINE",
"165 303 LINE",
"350 303 LINE",
"438 0 LINE",
"531 0 LINE",
"439 318 LINE",
"527 348 OFFCURVE",
"583 426 OFFCURVE",
"583 527 CURVE SMOOTH",
"583 622 OFFCURVE",
"527 686 OFFCURVE",
"397 686 CURVE SMOOTH",
"131 686 LINE",
"34 0 LINE"
);
},
{
closed = 1;
nodes = (
"207 606 LINE",
"384 606 LINE SMOOTH",
"454 606 OFFCURVE",
"491 572 OFFCURVE",
"491 513 CURVE SMOOTH",
"491 436 OFFCURVE",
"430 383 OFFCURVE",
"353 383 CURVE SMOOTH",
"176 383 LINE"
);
}
);
width = 592;
},
{
anchors = (
{
name = bottom;
position = "{271, 0}";
},
{
name = top;
position = "{339, 686}";
}
);
background = {
paths = (
{
closed = 1;
nodes = (
"113 686 LINE",
"18 0 LINE",
"145 0 LINE",
"184 287 LINE",
"311 287 LINE SMOOTH",
"352 287 OFFCURVE",
"391 262 OFFCURVE",
"391 177 CURVE SMOOTH",
"391 153 OFFCURVE",
"384 117 OFFCURVE",
"384 91 CURVE SMOOTH",
"384 14 OFFCURVE",
"432 -5 OFFCURVE",
"481 -5 CURVE SMOOTH",
"501 -5 OFFCURVE",
"538 1 OFFCURVE",
"548 7 CURVE",
"551 41 LINE",
"531 49 OFFCURVE",
"518 66 OFFCURVE",
"518 111 CURVE SMOOTH",
"518 135 OFFCURVE",
"525 180 OFFCURVE",
"525 209 CURVE SMOOTH",
"525 305 OFFCURVE",
"475 337 OFFCURVE",
"448 348 CURVE",
"448 352 LINE",
"512 374 OFFCURVE",
"578 432 OFFCURVE",
"578 531 CURVE SMOOTH",
"578 623 OFFCURVE",
"507 686 OFFCURVE",
"401 686 CURVE SMOOTH"
);
},
{
closed = 1;
nodes = (
"200 400 LINE",
"224 572 LINE",
"360 572 LINE",
"410 572 OFFCURVE",
"443 546 OFFCURVE",
"443 496 CURVE SMOOTH",
"443 443 OFFCURVE",
"398 400 OFFCURVE",
"336 400 CURVE SMOOTH"
);
}
);
};
layerId = "F1687A9F-F053-405E-AE0C-19A259C4FF7F";
paths = (
{
closed = 1;
nodes = (
"155 0 LINE",
"194 286 LINE",
"320 286 LINE",
"400 0 LINE",
"537 0 LINE",
"445 311 LINE",
"534 341 OFFCURVE",
"590 418 OFFCURVE",
"590 517 CURVE SMOOTH",
"590 617 OFFCURVE",
"526 686 OFFCURVE",
"393 686 CURVE SMOOTH",
"124 686 LINE",
"28 0 LINE"
);
},
{
closed = 1;
nodes = (
"235 572 LINE",
"374 572 LINE",
"429 572 OFFCURVE",
"453 544 OFFCURVE",
"453 499 CURVE SMOOTH",
"453 437 OFFCURVE",
"412 399 OFFCURVE",
"345 399 CURVE SMOOTH",
"210 399 LINE"
);
}
);
width = 592;
}
);
leftKerningGroup = I;
rightKerningGroup = R;
unicode = 0052;
},
{
glyphname = S;
layers = (
{
anchors = (
{
name = bottom;
position = "{243, 0}";
},
{
name = top;
position = "{339, 686}";
}
);
layerId = UUID0;
paths = (
{
closed = 1;
nodes = (
"442 -12 OFFCURVE",
"490 111 OFFCURVE",
"490 203 CURVE SMOOTH",
"490 416 OFFCURVE",
"192 369 OFFCURVE",
"192 512 CURVE SMOOTH",
"192 607 OFFCURVE",
"274 617 OFFCURVE",
"309 617 CURVE SMOOTH",
"365 617 OFFCURVE",
"435 599 OFFCURVE",
"435 485 CURVE",
"526 485 LINE",
"526 606 OFFCURVE",
"472 698 OFFCURVE",
"314 698 CURVE SMOOTH",
"180 698 OFFCURVE",
"101 628 OFFCURVE",
"101 502 CURVE SMOOTH",
"101 300 OFFCURVE",
"398 341 OFFCURVE",
"398 190 CURVE SMOOTH",
"398 93 OFFCURVE",
"310 69 OFFCURVE",
"256 69 CURVE SMOOTH",
"174 69 OFFCURVE",
"122 105 OFFCURVE",
"122 187 CURVE SMOOTH",
"122 201 OFFCURVE",
"124 217 OFFCURVE",
"127 234 CURVE",
"36 234 LINE",
"33 218 OFFCURVE",
"33 203 OFFCURVE",
"33 188 CURVE SMOOTH",
"33 60 OFFCURVE",
"118 -12 OFFCURVE",
"249 -12 CURVE SMOOTH"
);
}
);
width = 547;
},
{
anchors = (
{
name = bottom;
position = "{242, 0}";
},
{
name = top;
position = "{340, 686}";
}
);
layerId = "F1687A9F-F053-405E-AE0C-19A259C4FF7F";
paths = (
{
closed = 1;
nodes = (
"400 -12 OFFCURVE",
"509 69 OFFCURVE",
"509 213 CURVE SMOOTH",
"509 435 OFFCURVE",
"220 392 OFFCURVE",
"220 516 CURVE SMOOTH",
"220 581 OFFCURVE",
"289 587 OFFCURVE",
"311 587 CURVE SMOOTH",
"376 587 OFFCURVE",
"403 542 OFFCURVE",
"403 484 CURVE",
"532 484 LINE",
"532 599 OFFCURVE",
"491 698 OFFCURVE",
"318 698 CURVE SMOOTH",
"147 698 OFFCURVE",
"86 591 OFFCURVE",
"86 491 CURVE SMOOTH",
"86 290 OFFCURVE",
"376 328 OFFCURVE",
"376 187 CURVE SMOOTH",
"376 141 OFFCURVE",
"338 98 OFFCURVE",
"267 98 CURVE SMOOTH",
"178 98 OFFCURVE",
"163 150 OFFCURVE",
"163 185 CURVE SMOOTH",
"163 210 OFFCURVE",
"166 225 OFFCURVE",
"168 233 CURVE",
"36 233 LINE",
"34 223 OFFCURVE",
"31 195 OFFCURVE",
"31 172 CURVE SMOOTH",
"31 37 OFFCURVE",
"158 -12 OFFCURVE",
"259 -12 CURVE SMOOTH"
);
}
);
width = 547;
}
);
leftKerningGroup = S;
rightKerningGroup = S;
unicode = 0053;
},
{
glyphname = Germandbls;
layers = (
{
background = {
paths = (
{
closed = 1;
nodes = (
"487 -12 OFFCURVE",
"580 79 OFFCURVE",
"580 209 CURVE SMOOTH",
"580 297 OFFCURVE",
"522 359 OFFCURVE",
"432 377 CURVE",
"617 686 LINE",
"352 686 LINE SMOOTH",
"202 686 OFFCURVE",
"121 620 OFFCURVE",
"101 481 CURVE SMOOTH",
"33 0 LINE",
"121 0 LINE",
"189 481 LINE SMOOTH",
"202 573 OFFCURVE",
"251 616 OFFCURVE",
"343 616 CURVE SMOOTH",
"492 616 LINE",
"317 324 LINE",
"432 324 OFFCURVE",
"496 282 OFFCURVE",
"496 197 CURVE SMOOTH",
"496 119 OFFCURVE",
"439 61 OFFCURVE",
"352 61 CURVE SMOOTH",
"317 61 OFFCURVE",
"281 69 OFFCURVE",
"251 81 CURVE",
"214 18 LINE",
"245 -1 OFFCURVE",
"296 -12 OFFCURVE",
"345 -12 CURVE SMOOTH"
);
}
);
};
layerId = UUID0;
paths = (
{
closed = 1;
nodes = (
"113 0 LINE",
"173 424 LINE SMOOTH",
"192 556 OFFCURVE",
"257 622 OFFCURVE",
"367 622 CURVE SMOOTH",
"465 622 OFFCURVE",
"501 582 OFFCURVE",
"501 521 CURVE SMOOTH",
"501 438 OFFCURVE",
"447 376 OFFCURVE",
"372 376 CURVE SMOOTH",
"256 376 LINE",
"246 303 LINE",
"365 303 LINE SMOOTH",
"445 303 OFFCURVE",
"489 264 OFFCURVE",
"489 208 CURVE SMOOTH",
"489 128 OFFCURVE",
"434 73 OFFCURVE",
"352 73 CURVE SMOOTH",
"213 73 LINE",
"203 0 LINE",
"355 0 LINE SMOOTH",
"481 0 OFFCURVE",
"576 93 OFFCURVE",
"576 215 CURVE SMOOTH",
"576 283 OFFCURVE",
"538 329 OFFCURVE",
"472 347 CURVE",
"472 351 LINE",
"531 373 OFFCURVE",
"587 446 OFFCURVE",
"587 534 CURVE SMOOTH",
"587 634 OFFCURVE",
"512 698 OFFCURVE",
"379 698 CURVE SMOOTH",
"212 698 OFFCURVE",
"114 606 OFFCURVE",
"88 424 CURVE SMOOTH",
"28 0 LINE"
);
}
);
width = 611;
},
{
background = {
paths = (
{
closed = 1;
nodes = (
"511 -12 OFFCURVE",
"605 83 OFFCURVE",
"605 230 CURVE SMOOTH",
"605 313 OFFCURVE",
"557 357 OFFCURVE",
"478 378 CURVE",
"661 686 LINE",
"338 686 LINE SMOOTH",
"187 686 OFFCURVE",
"105 618 OFFCURVE",
"85 475 CURVE SMOOTH",
"18 0 LINE",
"146 0 LINE",
"213 475 LINE SMOOTH",
"223 541 OFFCURVE",
"257 572 OFFCURVE",
"321 572 CURVE SMOOTH",
"471 572 LINE",
"315 306 LINE",
"420 306 OFFCURVE",
"478 275 OFFCURVE",
"478 208 CURVE SMOOTH",
"478 139 OFFCURVE",
"436 94 OFFCURVE",
"372 94 CURVE SMOOTH",
"345 94 OFFCURVE",
"312 102 OFFCURVE",
"273 117 CURVE",
"221 33 LINE",
"253 5 OFFCURVE",
"306 -12 OFFCURVE",
"367 -12 CURVE SMOOTH"
);
}
);
};
layerId = "F1687A9F-F053-405E-AE0C-19A259C4FF7F";
paths = (
{
closed = 1;
nodes = (
"143 0 LINE",
"203 424 LINE SMOOTH",
"219 536 OFFCURVE",
"272 592 OFFCURVE",
"363 592 CURVE SMOOTH",
"436 592 OFFCURVE",
"477 563 OFFCURVE",
"477 511 CURVE SMOOTH",
"477 435 OFFCURVE",
"428 386 OFFCURVE",
"353 386 CURVE SMOOTH",
"267 386 LINE",
"254 293 LINE",
"343 293 LINE SMOOTH",
"429 293 OFFCURVE",
"469 258 OFFCURVE",
"469 207 CURVE SMOOTH",
"469 139 OFFCURVE",
"424 93 OFFCURVE",
"355 93 CURVE SMOOTH",
"226 93 LINE",
"213 0 LINE",
"355 0 LINE SMOOTH",
"494 0 OFFCURVE",
"596 92 OFFCURVE",
"596 215 CURVE SMOOTH",
"596 283 OFFCURVE",
"558 329 OFFCURVE",
"492 347 CURVE",
"492 351 LINE",
"558 376 OFFCURVE",
"607 454 OFFCURVE",
"607 532 CURVE SMOOTH",
"607 633 OFFCURVE",
"525 698 OFFCURVE",
"379 698 CURVE SMOOTH",
"205 698 OFFCURVE",
"104 606 OFFCURVE",
"78 424 CURVE SMOOTH",
"18 0 LINE"
);
}
);
width = 611;
}
);
leftKerningGroup = I;
rightKerningGroup = Germandbls;
unicode = 1E9E;
},
{
glyphname = Schwa;
layers = (
{
layerId = UUID0;
paths = (
{
closed = 1;
nodes = (
"456 -12 OFFCURVE",
"568 155 OFFCURVE",
"568 454 CURVE SMOOTH",
"568 611 OFFCURVE",
"491 698 OFFCURVE",
"354 698 CURVE SMOOTH",
"198 698 OFFCURVE",
"99 610 OFFCURVE",
"77 451 CURVE",
"163 451 LINE",
"178 558 OFFCURVE",
"241 617 OFFCURVE",
"339 617 CURVE SMOOTH",
"452 617 OFFCURVE",
"495 537 OFFCURVE",
"472 368 CURVE",
"65 368 LINE",
"59 326 LINE SMOOTH",
"29 97 OFFCURVE",
"93 -12 OFFCURVE",
"258 -12 CURVE SMOOTH"
);
},
{
closed = 1;
nodes = (
"168 69 OFFCURVE",
"125 148 OFFCURVE",
"145 290 CURVE",
"460 290 LINE",
"434 139 OFFCURVE",
"367 69 OFFCURVE",
"266 69 CURVE SMOOTH"
);
}
);
width = 600;
},
{
layerId = "F1687A9F-F053-405E-AE0C-19A259C4FF7F";
paths = (
{
closed = 1;
nodes = (
"468 -12 OFFCURVE",
"577 145 OFFCURVE",
"577 452 CURVE SMOOTH",
"577 610 OFFCURVE",
"493 698 OFFCURVE",
"349 698 CURVE SMOOTH",
"189 698 OFFCURVE",
"90 606 OFFCURVE",
"67 442 CURVE",
"189 442 LINE",
"202 537 OFFCURVE",
"254 590 OFFCURVE",
"335 590 CURVE SMOOTH",
"423 590 OFFCURVE",
"461 542 OFFCURVE",
"443 382 CURVE",
"58 382 LINE",
"53 343 LINE SMOOTH",
"24 115 OFFCURVE",
"92 -12 OFFCURVE",
"268 -12 CURVE SMOOTH"
);
},
{
closed = 1;
nodes = (
"195 96 OFFCURVE",
"155 155 OFFCURVE",
"172 279 CURVE",
"427 279 LINE",
"413 162 OFFCURVE",
"365 96 OFFCURVE",
"280 96 CURVE SMOOTH"
);
}
);
width = 600;
}
);
leftKerningGroup = O;
rightKerningGroup = O;
unicode = 018F;
},
{
glyphname = T;
layers = (
{
anchors = (
{
name = bottom;
position = "{211, 0}";
},
{
name = center;
position = "{259, 343}";
},
{
name = top;
position = "{308, 686}";
}
);
background = {
paths = (
{
closed = 1;
nodes = (
"538 686 LINE",
"76 686 LINE",
"64 602 LINE",
"251 602 LINE",
"166 0 LINE",
"254 0 LINE",
"339 602 LINE",
"526 602 LINE"
);
}
);
};
layerId = UUID0;
paths = (
{
closed = 1;
nodes = (
"254 0 LINE",
"339 606 LINE",
"526 606 LINE",
"538 686 LINE",
"76 686 LINE",
"64 606 LINE",
"251 606 LINE",
"166 0 LINE"
);
}
);
width = 501;
},
{
anchors = (
{
name = bottom;
position = "{215, 0}";
},
{
name = center;
position = "{263, 343}";
},
{
name = top;
position = "{311, 686}";
}
);
layerId = "F1687A9F-F053-405E-AE0C-19A259C4FF7F";
paths = (
{
closed = 1;
nodes = (
"279 0 LINE",
"359 572 LINE",
"528 572 LINE",
"544 686 LINE",
"80 686 LINE",
"64 572 LINE",
"233 572 LINE",
"153 0 LINE"
);
}
);
width = 501;
}
);
leftKerningGroup = T;
rightKerningGroup = T;
unicode = 0054;
},
{
glyphname = Tbar;
layers = (
{
background = {
paths = (
{
closed = 1;
nodes = (
"64 606 LINE",
"251 606 LINE",
"166 0 LINE",
"254 0 LINE",
"339 606 LINE",
"526 606 LINE",
"538 686 LINE",
"76 686 LINE"
);
}
);
};
layerId = UUID0;
paths = (
{
closed = 1;
nodes = (
"254 0 LINE",
"299 321 LINE",
"429 321 LINE",
"439 393 LINE",
"309 393 LINE",
"339 606 LINE",
"526 606 LINE",
"538 686 LINE",
"76 686 LINE",
"64 606 LINE",
"251 606 LINE",
"221 393 LINE",
"103 393 LINE",
"92 321 LINE",
"211 321 LINE",
"166 0 LINE"
);
}
);
width = 501;
},
{
layerId = "F1687A9F-F053-405E-AE0C-19A259C4FF7F";
paths = (
{
closed = 1;
nodes = (
"279 0 LINE",
"321 306 LINE",
"439 306 LINE",
"452 393 LINE",
"333 393 LINE",
"359 572 LINE",
"528 572 LINE",
"544 686 LINE",
"80 686 LINE",
"64 572 LINE",
"233 572 LINE",
"208 393 LINE",
"99 393 LINE",
"86 306 LINE",
"195 306 LINE",
"153 0 LINE"
);
}
);
width = 501;
}
);
leftKerningGroup = T;
rightKerningGroup = T;
unicode = 0166;
},
{
glyphname = U;
layers = (
{
anchors = (
{
name = bottom;
position = "{259, 0}";
},
{
name = ogonek;
position = "{363, 5}";
},
{
name = top;
position = "{353, 686}";
},
{
name = topright;
position = "{507, 686}";
}
);
layerId = UUID0;
paths = (
{
closed = 1;
nodes = (
"401 -12 OFFCURVE",
"491 69 OFFCURVE",
"513 223 CURVE SMOOTH",
"579 686 LINE",
"491 686 LINE",
"425 218 LINE SMOOTH",
"411 121 OFFCURVE",
"352 69 OFFCURVE",
"266 69 CURVE SMOOTH",
"190 69 OFFCURVE",
"146 109 OFFCURVE",
"146 185 CURVE SMOOTH",
"146 207 OFFCURVE",
"215 686 OFFCURVE",
"215 686 CURVE",
"127 686 LINE",
"127 686 OFFCURVE",
"57 219 OFFCURVE",
"57 173 CURVE SMOOTH",
"57 52 OFFCURVE",
"133 -12 OFFCURVE",
"264 -12 CURVE SMOOTH"
);
}
);
width = 592;
},
{
anchors = (
{
name = bottom;
position = "{259, 0}";
},
{
name = ogonek;
position = "{380, 5}";
},
{
name = top;
position = "{359, 686}";
},
{
name = topright;
position = "{491, 686}";
}
);
background = {
paths = (
{
closed = 1;
nodes = (
"49 53 OFFCURVE",
"132 -12 OFFCURVE",
"277 -12 CURVE SMOOTH",
"420 -12 OFFCURVE",
"517 69 OFFCURVE",
"538 223 CURVE SMOOTH",
"603 686 LINE",
"476 686 LINE",
"412 227 LINE SMOOTH",
"400 143 OFFCURVE",
"353 98 OFFCURVE",
"282 98 CURVE SMOOTH",
"215 98 OFFCURVE",
"177 133 OFFCURVE",
"177 199 CURVE SMOOTH",
"177 227 OFFCURVE",
"244 686 OFFCURVE",
"244 686 CURVE",
"117 686 LINE",
"117 686 OFFCURVE",
"49 223 OFFCURVE",
"49 176 CURVE SMOOTH"
);
}
);
};
layerId = "F1687A9F-F053-405E-AE0C-19A259C4FF7F";
paths = (
{
closed = 1;
nodes = (
"417 -12 OFFCURVE",
"506 69 OFFCURVE",
"528 223 CURVE SMOOTH",
"593 686 LINE",
"466 686 LINE",
"402 227 LINE SMOOTH",
"390 143 OFFCURVE",
"348 98 OFFCURVE",
"282 98 CURVE SMOOTH",
"221 98 OFFCURVE",
"187 133 OFFCURVE",
"187 199 CURVE SMOOTH",
"187 227 OFFCURVE",
"254 686 OFFCURVE",
"254 686 CURVE",
"127 686 LINE",
"127 686 OFFCURVE",
"59 223 OFFCURVE",
"59 176 CURVE SMOOTH",
"59 53 OFFCURVE",
"140 -12 OFFCURVE",
"282 -12 CURVE SMOOTH"
);
}
);
width = 592;
}
);
leftKerningGroup = U;
rightKerningGroup = U;
unicode = 0055;
},
{
glyphname = V;
layers = (
{
layerId = UUID0;
paths = (
{
closed = 1;
nodes = (
"299 0 LINE",
"605 686 LINE",
"517 686 LINE",
"261 96 LINE",
"257 96 LINE",
"165 686 LINE",
"74 686 LINE",
"186 0 LINE"
);
}
);
width = 547;
},
{
layerId = "F1687A9F-F053-405E-AE0C-19A259C4FF7F";
paths = (
{
closed = 1;
nodes = (
"305 0 LINE",
"608 686 LINE",
"480 686 LINE",
"272 198 LINE",
"268 198 LINE",
"197 686 LINE",
"67 686 LINE",
"178 0 LINE"
);
}
);
width = 547;
}
);
leftKerningGroup = V;
rightKerningGroup = V;
unicode = 0056;
},
{
glyphname = W;
layers = (
{
anchors = (
{
name = top;
position = "{451, 686}";
}
);
layerId = UUID0;
paths = (
{
closed = 1;
nodes = (
"253 0 LINE",
"401 465 LINE",
"415 511 OFFCURVE",
"436 603 OFFCURVE",
"436 603 CURVE",
"441 603 LINE",
"443 556 OFFCURVE",
"444 510 OFFCURVE",
"446 463 CURVE",
"461 0 LINE",
"575 0 LINE",
"831 686 LINE",
"749 686 LINE",
"578 212 LINE SMOOTH",
"562 167 OFFCURVE",
"540 90 OFFCURVE",
"540 90 CURVE",
"536 90 LINE",
"536 90 OFFCURVE",
"536 181 OFFCURVE",
"535 212 CURVE SMOOTH",
"518 686 LINE",
"391 686 LINE",
"247 212 LINE SMOOTH",
"229 152 OFFCURVE",
"213 90 OFFCURVE",
"213 90 CURVE",
"209 90 LINE",
"209 90 OFFCURVE",
"208 172 OFFCURVE",
"205 212 CURVE",
"166 686 LINE",
"77 686 LINE",
"139 0 LINE"
);
}
);
width = 774;
},
{
anchors = (
{
name = top;
position = "{453, 686}";
}
);
layerId = "F1687A9F-F053-405E-AE0C-19A259C4FF7F";
paths = (
{
closed = 1;
nodes = (
"253 0 LINE",
"399 437 LINE SMOOTH",
"409 466 OFFCURVE",
"425 534 OFFCURVE",
"425 534 CURVE",
"430 534 LINE",
"429 488 OFFCURVE",
"429 454 OFFCURVE",
"430 437 CURVE SMOOTH",
"461 0 LINE",
"596 0 LINE",
"832 686 LINE",
"720 686 LINE",
"581 264 LINE SMOOTH",
"570 230 OFFCURVE",
"555 168 OFFCURVE",
"555 168 CURVE",
"551 168 LINE",
"550 200 OFFCURVE",
"548 232 OFFCURVE",
"547 264 CURVE",
"529 686 LINE",
"384 686 LINE",
"244 264 LINE SMOOTH",
"234 235 OFFCURVE",
"218 168 OFFCURVE",
"218 168 CURVE",
"214 168 LINE",
"213 201 OFFCURVE",
"211 233 OFFCURVE",
"210 266 CURVE",
"193 686 LINE",
"67 686 LINE",
"118 0 LINE"
);
}
);
width = 774;
}
);
leftKerningGroup = V;
rightKerningGroup = V;
unicode = 0057;
},
{
glyphname = X;
layers = (
{
layerId = UUID0;
paths = (
{
closed = 1;
nodes = (
"66 0 LINE",
"276 280 LINE",
"277 280 LINE",
"408 0 LINE",
"507 0 LINE",
"338 361 LINE",
"582 686 LINE",
"483 686 LINE",
"302 441 LINE",
"301 441 LINE",
"185 686 LINE",
"85 686 LINE",
"239 360 LINE",
"-31 0 LINE"
);
}
);
width = 547;
},
{
layerId = "F1687A9F-F053-405E-AE0C-19A259C4FF7F";
paths = (
{
closed = 1;
nodes = (
"110 0 LINE",
"270 238 LINE",
"274 238 LINE",
"369 0 LINE",
"511 0 LINE",
"360 358 LINE",
"589 686 LINE",
"447 686 LINE",
"310 477 LINE",
"306 477 LINE",
"224 686 LINE",
"84 686 LINE",
"220 358 LINE",
"-29 0 LINE"
);
}
);
width = 547;
}
);
leftKerningGroup = X;
rightKerningGroup = X;
unicode = 0058;
},
{
glyphname = Y;
layers = (
{
anchors = (
{
name = bottom;
position = "{237, 0}";
},
{
name = top;
position = "{339, 686}";
},
{
name = topleft;
position = "{79, 686}";
}
);
layerId = UUID0;
paths = (
{
closed = 1;
nodes = (
"283 0 LINE",
"323 284 LINE",
"601 686 LINE",
"509 686 LINE",
"295 368 LINE",
"291 368 LINE",
"166 686 LINE",
"70 686 LINE",
"235 284 LINE",
"195 0 LINE"
);
}
);
width = 547;
},
{
anchors = (
{
name = bottom;
position = "{237, 0}";
},
{
name = top;
position = "{340, 686}";
},
{
name = topleft;
position = "{79, 686}";
}
);
layerId = "F1687A9F-F053-405E-AE0C-19A259C4FF7F";
paths = (
{
closed = 1;
nodes = (
"305 0 LINE",
"342 259 LINE",
"608 686 LINE",
"479 686 LINE",
"300 385 LINE",
"296 385 LINE",
"197 686 LINE",
"67 686 LINE",
"215 259 LINE",
"179 0 LINE"
);
}
);
width = 547;
}
);
leftKerningGroup = Y;
rightKerningGroup = Y;
unicode = 0059;
},
{
glyphname = Z;
layers = (
{
anchors = (
{
name = top;
position = "{312, 686}";
}
);
background = {
paths = (
{
closed = 1;
nodes = (
"526 686 LINE",
"98 686 LINE",
"86 602 LINE",
"385 602 LINE",
"-13 38 LINE",
"-16 0 LINE",
"439 0 LINE",
"451 84 LINE",
"124 84 LINE",
"523 648 LINE"
);
}
);
};
layerId = UUID0;
paths = (
{
closed = 1;
nodes = (
"439 0 LINE",
"451 80 LINE",
"121 80 LINE",
"523 648 LINE",
"526 686 LINE",
"98 686 LINE",
"86 606 LINE",
"388 606 LINE",
"-13 38 LINE",
"-16 0 LINE"
);
}
);
width = 501;
},
{
anchors = (
{
name = top;
position = "{311, 686}";
}
);
layerId = "F1687A9F-F053-405E-AE0C-19A259C4FF7F";
paths = (
{
closed = 1;
nodes = (
"443 0 LINE",
"459 114 LINE",
"181 114 LINE",
"525 636 LINE",
"529 686 LINE",
"101 686 LINE",
"85 572 LINE",
"335 572 LINE",
"-8 49 LINE",
"-12 0 LINE"
);
}
);
width = 501;
}
);
leftKerningGroup = Z;
rightKerningGroup = Z;
unicode = 005A;
},
{
glyphname = Y.loclGUA;
layers = (
{
anchors = (
{
name = bottom;
position = "{233, 0}";
},
{
name = top;
position = "{329, 686}";
},
{
name = topleft;
position = "{125, 686}";
}
);
layerId = UUID0;
paths = (
{
closed = 1;
nodes = (
"369 -12 OFFCURVE",
"446 63 OFFCURVE",
"473 253 CURVE SMOOTH",
"534 686 LINE",
"446 686 LINE",
"414 458 LINE SMOOTH",
"397 337 OFFCURVE",
"336 274 OFFCURVE",
"261 274 CURVE SMOOTH",
"191 274 OFFCURVE",
"161 319 OFFCURVE",
"171 388 CURVE SMOOTH",
"213 686 LINE",
"125 686 LINE",
"84 393 LINE SMOOTH",
"66 263 OFFCURVE",
"124 198 OFFCURVE",
"225 198 CURVE SMOOTH",
"287 198 OFFCURVE",
"340 218 OFFCURVE",
"384 294 CURVE",
"391 294 LINE",
"384 248 LINE SMOOTH",
"364 118 OFFCURVE",
"310 64 OFFCURVE",
"238 64 CURVE SMOOTH",
"173 64 OFFCURVE",
"131 100 OFFCURVE",
"140 168 CURVE",
"52 168 LINE",
"51 160 LINE SMOOTH",
"36 40 OFFCURVE",
"111 -12 OFFCURVE",
"225 -12 CURVE SMOOTH"
);
}
);
width = 540;
},
{
anchors = (
{
name = bottom;
position = "{233, 0}";
},
{
name = top;
position = "{329, 686}";
},
{
name = topleft;
position = "{115, 686}";
}
);
layerId = "F1687A9F-F053-405E-AE0C-19A259C4FF7F";
paths = (
{
closed = 1;
nodes = (
"364 -12 OFFCURVE",
"456 63 OFFCURVE",
"483 253 CURVE SMOOTH",
"544 686 LINE",
"421 686 LINE",
"392 478 LINE SMOOTH",
"376 364 OFFCURVE",
"335 304 OFFCURVE",
"265 304 CURVE SMOOTH",
"212 304 OFFCURVE",
"190 342 OFFCURVE",
"199 408 CURVE SMOOTH",
"238 686 LINE",
"115 686 LINE",
"75 403 LINE SMOOTH",
"56 266 OFFCURVE",
"117 198 OFFCURVE",
"225 198 CURVE SMOOTH",
"275 198 OFFCURVE",
"321 214 OFFCURVE",
"356 274 CURVE",
"363 274 LINE",
"359 248 LINE SMOOTH",
"343 145 OFFCURVE",
"313 94 OFFCURVE",
"247 94 CURVE SMOOTH",
"190 94 OFFCURVE",
"153 120 OFFCURVE",
"160 168 CURVE",
"42 168 LINE",
"41 160 LINE SMOOTH",
"27 50 OFFCURVE",
"95 -12 OFFCURVE",
"225 -12 CURVE SMOOTH"
);
}
);
width = 540;
}
);
leftKerningGroup = Y.loclGUA;
rightKerningGroup = Y.loclGUA;
},
{
glyphname = a;
layers = (
{
anchors = (
{
name = ogonek;
position = "{411, -5}";
},
{
name = top;
position = "{265, 526}";
}
);
background = {
paths = (
{
closed = 1;
nodes = (
"138 538 OFFCURVE",
"33 424 OFFCURVE",
"33 183 CURVE SMOOTH",
"33 48 OFFCURVE",
"89 -12 OFFCURVE",
"166 -12 CURVE SMOOTH",
"213 -12 OFFCURVE",
"249 14 OFFCURVE",
"287 71 CURVE",
"288 12 OFFCURVE",
"317 -12 OFFCURVE",
"359 -12 CURVE SMOOTH",
"385 -12 OFFCURVE",
"405 -3 OFFCURVE",
"415 4 CURVE",
"423 61 LINE",
"391 61 LINE SMOOTH",
"378 61 OFFCURVE",
"367 69 OFFCURVE",
"367 89 CURVE SMOOTH",
"367 101 OFFCURVE",
"428 526 OFFCURVE",
"428 526 CURVE",
"386 526 LINE",
"345 453 LINE",
"325 518 OFFCURVE",
"284 538 OFFCURVE",
"236 538 CURVE SMOOTH"
);
},
{
closed = 1;
nodes = (
"294 465 OFFCURVE",
"317 427 OFFCURVE",
"317 352 CURVE SMOOTH",
"317 272 OFFCURVE",
"286 61 OFFCURVE",
"191 61 CURVE SMOOTH",
"142 61 OFFCURVE",
"117 99 OFFCURVE",
"117 175 CURVE SMOOTH",
"117 261 OFFCURVE",
"141 465 OFFCURVE",
"248 465 CURVE SMOOTH"
);
}
);
};
layerId = UUID0;
paths = (
{
closed = 1;
nodes = (
"213 -12 OFFCURVE",
"249 14 OFFCURVE",
"287 71 CURVE",
"288 12 OFFCURVE",
"317 -12 OFFCURVE",
"359 -12 CURVE SMOOTH",
"385 -12 OFFCURVE",
"405 -3 OFFCURVE",
"415 4 CURVE",
"423 61 LINE",
"391 61 LINE SMOOTH",
"378 61 OFFCURVE",
"367 69 OFFCURVE",
"367 89 CURVE SMOOTH",
"367 101 OFFCURVE",
"428 526 OFFCURVE",
"428 526 CURVE",
"363 526 LINE",
"345 453 LINE",
"325 518 OFFCURVE",
"284 538 OFFCURVE",
"236 538 CURVE SMOOTH",
"138 538 OFFCURVE",
"33 424 OFFCURVE",
"33 183 CURVE SMOOTH",
"33 48 OFFCURVE",
"89 -12 OFFCURVE",
"166 -12 CURVE SMOOTH"
);
},
{
closed = 1;
nodes = (
"142 61 OFFCURVE",
"117 99 OFFCURVE",
"117 175 CURVE SMOOTH",
"117 261 OFFCURVE",
"141 465 OFFCURVE",
"248 465 CURVE SMOOTH",
"294 465 OFFCURVE",
"317 427 OFFCURVE",
"317 352 CURVE SMOOTH",
"317 272 OFFCURVE",
"286 61 OFFCURVE",
"191 61 CURVE SMOOTH"
);
}
);
width = 456;
},
{
anchors = (
{
name = ogonek;
position = "{412, 4}";
},
{
name = top;
position = "{254, 526}";
}
);
background = {
paths = (
{
closed = 1;
nodes = (
"196 -12 OFFCURVE",
"240 9 OFFCURVE",
"266 58 CURVE",
"276 14 OFFCURVE",
"305 -12 OFFCURVE",
"349 -12 CURVE SMOOTH",
"377 -12 OFFCURVE",
"396 -3 OFFCURVE",
"408 4 CURVE",
"420 89 LINE",
"402 89 LINE SMOOTH",
"388 89 OFFCURVE",
"378 97 OFFCURVE",
"378 117 CURVE SMOOTH",
"378 128 OFFCURVE",
"440 526 OFFCURVE",
"440 526 CURVE",
"367 526 LINE",
"327 463 LINE",
"308 510 OFFCURVE",
"272 538 OFFCURVE",
"217 538 CURVE SMOOTH",
"118 538 OFFCURVE",
"18 428 OFFCURVE",
"18 174 CURVE SMOOTH",
"18 50 OFFCURVE",
"71 -12 OFFCURVE",
"160 -12 CURVE SMOOTH"
);
},
{
closed = 1;
nodes = (
"153 91 OFFCURVE",
"137 126 OFFCURVE",
"137 190 CURVE SMOOTH",
"137 248 OFFCURVE",
"157 435 OFFCURVE",
"240 435 CURVE SMOOTH",
"281 435 OFFCURVE",
"293 399 OFFCURVE",
"293 338 CURVE SMOOTH",
"293 263 OFFCURVE",
"275 91 OFFCURVE",
"191 91 CURVE SMOOTH"
);
}
);
};
layerId = "F1687A9F-F053-405E-AE0C-19A259C4FF7F";
paths = (
{
closed = 1;
nodes = (
"200 -12 OFFCURVE",
"244 9 OFFCURVE",
"270 58 CURVE",
"280 14 OFFCURVE",
"309 -12 OFFCURVE",
"353 -12 CURVE SMOOTH",
"381 -12 OFFCURVE",
"400 -3 OFFCURVE",
"412 4 CURVE",
"424 89 LINE",
"406 89 LINE SMOOTH",
"392 89 OFFCURVE",
"382 97 OFFCURVE",
"382 117 CURVE SMOOTH",
"382 128 OFFCURVE",
"444 526 OFFCURVE",
"444 526 CURVE",
"351 526 LINE",
"331 463 LINE",
"312 510 OFFCURVE",
"276 538 OFFCURVE",
"221 538 CURVE SMOOTH",
"122 538 OFFCURVE",
"22 428 OFFCURVE",
"22 174 CURVE SMOOTH",
"22 50 OFFCURVE",
"75 -12 OFFCURVE",
"164 -12 CURVE SMOOTH"
);
},
{
closed = 1;
nodes = (
"157 91 OFFCURVE",
"141 126 OFFCURVE",
"141 190 CURVE SMOOTH",
"141 248 OFFCURVE",
"161 435 OFFCURVE",
"244 435 CURVE SMOOTH",
"285 435 OFFCURVE",
"297 399 OFFCURVE",
"297 338 CURVE SMOOTH",
"297 263 OFFCURVE",
"279 91 OFFCURVE",
"195 91 CURVE SMOOTH"
);
}
);
width = 456;
}
);
leftKerningGroup = o;
rightKerningGroup = n;
unicode = 0061;
},
{
glyphname = ae;
layers = (
{
anchors = (
{
name = top;
position = "{403, 526}";
}
);
layerId = UUID0;
paths = (
{
closed = 1;
nodes = (
"226 -12 OFFCURVE",
"289 19 OFFCURVE",
"328 70 CURVE",
"355 14 OFFCURVE",
"406 -12 OFFCURVE",
"478 -12 CURVE SMOOTH",
"590 -12 OFFCURVE",
"656 76 OFFCURVE",
"672 178 CURVE",
"589 178 LINE",
"580 115 OFFCURVE",
"537 61 OFFCURVE",
"478 61 CURVE SMOOTH",
"421 61 OFFCURVE",
"393 102 OFFCURVE",
"393 186 CURVE SMOOTH",
"393 199 OFFCURVE",
"394 218 OFFCURVE",
"396 239 CURVE",
"685 239 LINE",
"691 277 OFFCURVE",
"693 315 OFFCURVE",
"693 349 CURVE SMOOTH",
"693 478 OFFCURVE",
"636 538 OFFCURVE",
"531 538 CURVE SMOOTH",
"472 538 OFFCURVE",
"429 516 OFFCURVE",
"396 482 CURVE",
"374 518 OFFCURVE",
"333 538 OFFCURVE",
"269 538 CURVE SMOOTH",
"163 538 OFFCURVE",
"83 474 OFFCURVE",
"83 370 CURVE",
"164 370 LINE",
"169 422 OFFCURVE",
"196 465 OFFCURVE",
"258 465 CURVE SMOOTH",
"314 465 OFFCURVE",
"331 440 OFFCURVE",
"331 403 CURVE SMOOTH",
"331 396 OFFCURVE",
"330 388 OFFCURVE",
"329 380 CURVE SMOOTH",
"319 312 LINE",
"160 312 OFFCURVE",
"26 278 OFFCURVE",
"26 113 CURVE SMOOTH",
"26 6 OFFCURVE",
"105 -12 OFFCURVE",
"166 -12 CURVE SMOOTH"
);
},
{
closed = 1;
nodes = (
"135 61 OFFCURVE",
"113 79 OFFCURVE",
"113 129 CURVE SMOOTH",
"113 222 OFFCURVE",
"194 239 OFFCURVE",
"309 239 CURVE",
"301 183 LINE SMOOTH",
"289 101 OFFCURVE",
"227 61 OFFCURVE",
"175 61 CURVE SMOOTH"
);
},
{
closed = 1;
nodes = (
"422 388 OFFCURVE",
"458 465 OFFCURVE",
"531 465 CURVE SMOOTH",
"582 465 OFFCURVE",
"608 425 OFFCURVE",
"608 348 CURVE SMOOTH",
"608 339 OFFCURVE",
"608 325 OFFCURVE",
"607 312 CURVE",
"406 312 LINE"
);
}
);
width = 729;
},
{
anchors = (
{
name = top;
position = "{405, 526}";
}
);
layerId = "F1687A9F-F053-405E-AE0C-19A259C4FF7F";
paths = (
{
closed = 1;
nodes = (
"231 -12 OFFCURVE",
"280 16 OFFCURVE",
"321 57 CURVE",
"348 10 OFFCURVE",
"396 -12 OFFCURVE",
"467 -12 CURVE SMOOTH",
"591 -12 OFFCURVE",
"647 77 OFFCURVE",
"671 182 CURVE",
"548 182 LINE",
"537 130 OFFCURVE",
"512 85 OFFCURVE",
"472 85 CURVE SMOOTH",
"432 85 OFFCURVE",
"417 119 OFFCURVE",
"417 187 CURVE SMOOTH",
"417 194 OFFCURVE",
"417 212 OFFCURVE",
"419 233 CURVE",
"682 233 LINE",
"690 275 OFFCURVE",
"693 320 OFFCURVE",
"693 359 CURVE SMOOTH",
"693 479 OFFCURVE",
"638 538 OFFCURVE",
"530 538 CURVE SMOOTH",
"475 538 OFFCURVE",
"433 521 OFFCURVE",
"400 494 CURVE",
"375 522 OFFCURVE",
"334 538 OFFCURVE",
"279 538 CURVE SMOOTH",
"160 538 OFFCURVE",
"81 472 OFFCURVE",
"81 370 CURVE",
"197 370 LINE",
"202 410 OFFCURVE",
"219 440 OFFCURVE",
"268 440 CURVE SMOOTH",
"304 440 OFFCURVE",
"314 421 OFFCURVE",
"314 395 CURVE SMOOTH",
"314 389 OFFCURVE",
"314 382 OFFCURVE",
"313 375 CURVE SMOOTH",
"307 320 LINE",
"158 320 OFFCURVE",
"19 276 OFFCURVE",
"19 129 CURVE SMOOTH",
"19 13 OFFCURVE",
"101 -12 OFFCURVE",
"162 -12 CURVE SMOOTH"
);
},
{
closed = 1;
nodes = (
"160 88 OFFCURVE",
"144 105 OFFCURVE",
"144 134 CURVE SMOOTH",
"144 213 OFFCURVE",
"222 233 OFFCURVE",
"294 233 CURVE",
"290 203 LINE SMOOTH",
"282 141 OFFCURVE",
"251 88 OFFCURVE",
"196 88 CURVE SMOOTH"
);
},
{
closed = 1;
nodes = (
"446 382 OFFCURVE",
"473 441 OFFCURVE",
"523 441 CURVE SMOOTH",
"559 441 OFFCURVE",
"572 412 OFFCURVE",
"572 359 CURVE SMOOTH",
"572 354 OFFCURVE",
"572 349 OFFCURVE",
"570 320 CURVE",
"432 320 LINE"
);
}
);
width = 729;
}
);
leftKerningGroup = a;
rightKerningGroup = e;
unicode = 00E6;
},
{
glyphname = b;
layers = (
{
background = {
paths = (
{
closed = 1;
nodes = (
"206 723 LINE",
"124 723 LINE",
"23 0 LINE",
"65 0 LINE",
"106 73 LINE",
"127 8 OFFCURVE",
"169 -12 OFFCURVE",
"219 -12 CURVE SMOOTH",
"317 -12 OFFCURVE",
"422 102 OFFCURVE",
"422 343 CURVE SMOOTH",
"422 478 OFFCURVE",
"366 538 OFFCURVE",
"289 538 CURVE SMOOTH",
"243 538 OFFCURVE",
"208 516 OFFCURVE",
"171 466 CURVE"
);
},
{
closed = 1;
nodes = (
"313 465 OFFCURVE",
"338 427 OFFCURVE",
"338 351 CURVE SMOOTH",
"338 265 OFFCURVE",
"314 61 OFFCURVE",
"207 61 CURVE SMOOTH",
"158 61 OFFCURVE",
"134 99 OFFCURVE",
"134 174 CURVE SMOOTH",
"134 254 OFFCURVE",
"160 465 OFFCURVE",
"264 465 CURVE SMOOTH"
);
}
);
};
layerId = UUID0;
paths = (
{
closed = 1;
nodes = (
"317 -12 OFFCURVE",
"422 102 OFFCURVE",
"422 343 CURVE SMOOTH",
"422 478 OFFCURVE",
"366 538 OFFCURVE",
"289 538 CURVE SMOOTH",
"243 538 OFFCURVE",
"208 516 OFFCURVE",
"171 466 CURVE",
"206 723 LINE",
"124 723 LINE",
"23 0 LINE",
"88 0 LINE",
"106 73 LINE",
"127 8 OFFCURVE",
"169 -12 OFFCURVE",
"219 -12 CURVE SMOOTH"
);
},
{
closed = 1;
nodes = (
"158 61 OFFCURVE",
"134 99 OFFCURVE",
"134 174 CURVE SMOOTH",
"134 254 OFFCURVE",
"160 465 OFFCURVE",
"264 465 CURVE SMOOTH",
"313 465 OFFCURVE",
"338 427 OFFCURVE",
"338 351 CURVE SMOOTH",
"338 265 OFFCURVE",
"314 61 OFFCURVE",
"207 61 CURVE SMOOTH"
);
}
);
width = 456;
},
{
background = {
paths = (
{
closed = 1;
nodes = (
"123 723 LINE",
"23 0 LINE",
"96 0 LINE",
"140 70 LINE",
"162 12 OFFCURVE",
"206 -12 OFFCURVE",
"262 -12 CURVE SMOOTH",
"421 -12 OFFCURVE",
"467 214 OFFCURVE",
"467 349 CURVE SMOOTH",
"467 480 OFFCURVE",
"412 538 OFFCURVE",
"332 538 CURVE SMOOTH",
"282 538 OFFCURVE",
"236 513 OFFCURVE",
"207 474 CURVE",
"242 723 LINE"
);
},
{
closed = 1;
nodes = (
"170 262 OFFCURVE",
"189 429 OFFCURVE",
"283 429 CURVE SMOOTH",
"328 429 OFFCURVE",
"345 398 OFFCURVE",
"345 340 CURVE SMOOTH",
"345 269 OFFCURVE",
"331 97 OFFCURVE",
"235 97 CURVE SMOOTH",
"189 97 OFFCURVE",
"170 130 OFFCURVE",
"170 188 CURVE SMOOTH"
);
}
);
};
layerId = "F1687A9F-F053-405E-AE0C-19A259C4FF7F";
paths = (
{
closed = 1;
nodes = (
"421 -12 OFFCURVE",
"467 214 OFFCURVE",
"467 349 CURVE SMOOTH",
"467 480 OFFCURVE",
"412 538 OFFCURVE",
"332 538 CURVE SMOOTH",
"282 538 OFFCURVE",
"236 513 OFFCURVE",
"207 474 CURVE",
"242 723 LINE",
"123 723 LINE",
"23 0 LINE",
"116 0 LINE",
"140 70 LINE",
"162 12 OFFCURVE",
"206 -12 OFFCURVE",
"262 -12 CURVE SMOOTH"
);
},
{
closed = 1;
nodes = (
"189 97 OFFCURVE",
"170 130 OFFCURVE",
"170 188 CURVE SMOOTH",
"170 262 OFFCURVE",
"189 429 OFFCURVE",
"283 429 CURVE SMOOTH",
"328 429 OFFCURVE",
"345 398 OFFCURVE",
"345 340 CURVE SMOOTH",
"345 269 OFFCURVE",
"331 97 OFFCURVE",
"235 97 CURVE SMOOTH"
);
}
);
width = 501;
}
);
leftKerningGroup = l;
rightKerningGroup = o;
unicode = 0062;
},
{
glyphname = c;
layers = (
{
anchors = (
{
name = bottom;
position = "{181, 0}";
},
{
name = top;
position = "{250, 526}";
}
);
layerId = UUID0;
paths = (
{
closed = 1;
nodes = (
"299 -12 OFFCURVE",
"361 85 OFFCURVE",
"374 192 CURVE",
"292 192 LINE",
"284 123 OFFCURVE",
"246 61 OFFCURVE",
"190 61 CURVE SMOOTH",
"142 61 OFFCURVE",
"116 107 OFFCURVE",
"116 186 CURVE SMOOTH",
"116 242 OFFCURVE",
"130 465 OFFCURVE",
"240 465 CURVE SMOOTH",
"284 465 OFFCURVE",
"305 425 OFFCURVE",
"305 348 CURVE SMOOTH",
"305 331 LINE",
"390 331 LINE",
"390 349 LINE SMOOTH",
"390 478 OFFCURVE",
"338 538 OFFCURVE",
"240 538 CURVE SMOOTH",
"69 538 OFFCURVE",
"31 334 OFFCURVE",
"31 179 CURVE SMOOTH",
"31 48 OFFCURVE",
"93 -12 OFFCURVE",
"192 -12 CURVE SMOOTH"
);
}
);
width = 410;
},
{
anchors = (
{
name = bottom;
position = "{197, 0}";
},
{
name = top;
position = "{271, 526}";
}
);
layerId = "F1687A9F-F053-405E-AE0C-19A259C4FF7F";
paths = (
{
closed = 1;
nodes = (
"336 -12 OFFCURVE",
"388 84 OFFCURVE",
"413 195 CURVE",
"294 195 LINE",
"282 138 OFFCURVE",
"255 89 OFFCURVE",
"212 89 CURVE SMOOTH",
"169 89 OFFCURVE",
"158 124 OFFCURVE",
"158 191 CURVE SMOOTH",
"158 228 OFFCURVE",
"174 437 OFFCURVE",
"260 437 CURVE SMOOTH",
"299 437 OFFCURVE",
"310 404 OFFCURVE",
"310 343 CURVE SMOOTH",
"310 328 LINE",
"432 328 LINE",
"432 343 LINE SMOOTH",
"432 474 OFFCURVE",
"384 538 OFFCURVE",
"269 538 CURVE SMOOTH",
"76 538 OFFCURVE",
"36 337 OFFCURVE",
"36 172 CURVE SMOOTH",
"36 47 OFFCURVE",
"92 -12 OFFCURVE",
"203 -12 CURVE SMOOTH"
);
}
);
width = 456;
}
);
leftKerningGroup = o;
rightKerningGroup = c;
unicode = 0063;
},
{
glyphname = d;
layers = (
{
anchors = (
{
name = center;
position = "{228, 263}";
},
{
name = topright;
position = "{463, 526}";
}
);
layerId = UUID0;
paths = (
{
closed = 1;
nodes = (
"215 -12 OFFCURVE",
"259 14 OFFCURVE",
"294 71 CURVE",
"294 0 LINE",
"359 0 LINE",
"460 723 LINE",
"378 723 LINE",
"342 468 LINE",
"319 518 OFFCURVE",
"281 538 OFFCURVE",
"237 538 CURVE SMOOTH",
"139 538 OFFCURVE",
"34 424 OFFCURVE",
"34 183 CURVE SMOOTH",
"34 48 OFFCURVE",
"90 -12 OFFCURVE",
"167 -12 CURVE SMOOTH"
);
},
{
closed = 1;
nodes = (
"143 61 OFFCURVE",
"118 99 OFFCURVE",
"118 175 CURVE SMOOTH",
"118 261 OFFCURVE",
"142 465 OFFCURVE",
"249 465 CURVE SMOOTH",
"298 465 OFFCURVE",
"322 427 OFFCURVE",
"322 352 CURVE SMOOTH",
"322 272 OFFCURVE",
"296 61 OFFCURVE",
"192 61 CURVE SMOOTH"
);
}
);
width = 456;
},
{
anchors = (
{
name = center;
position = "{250, 263}";
},
{
name = topright;
position = "{511, 526}";
}
);
layerId = "F1687A9F-F053-405E-AE0C-19A259C4FF7F";
paths = (
{
closed = 1;
nodes = (
"228 -12 OFFCURVE",
"274 13 OFFCURVE",
"311 76 CURVE",
"311 0 LINE",
"408 0 LINE",
"508 723 LINE",
"390 723 LINE",
"353 469 LINE",
"333 513 OFFCURVE",
"297 538 OFFCURVE",
"242 538 CURVE SMOOTH",
"139 538 OFFCURVE",
"36 428 OFFCURVE",
"36 174 CURVE SMOOTH",
"36 51 OFFCURVE",
"89 -12 OFFCURVE",
"179 -12 CURVE SMOOTH"
);
},
{
closed = 1;
nodes = (
"174 97 OFFCURVE",
"157 128 OFFCURVE",
"157 186 CURVE SMOOTH",
"157 257 OFFCURVE",
"172 429 OFFCURVE",
"271 429 CURVE SMOOTH",
"315 429 OFFCURVE",
"332 396 OFFCURVE",
"332 338 CURVE SMOOTH",
"332 264 OFFCURVE",
"314 97 OFFCURVE",
"220 97 CURVE SMOOTH"
);
}
);
width = 501;
}
);
leftKerningGroup = o;
rightKerningGroup = d;
unicode = 0064;
},
{
glyphname = eth;
layers = (
{
layerId = UUID0;
paths = (
{
closed = 1;
nodes = (
"328 -12 OFFCURVE",
"424 101 OFFCURVE",
"424 351 CURVE SMOOTH",
"424 455 OFFCURVE",
"396 542 OFFCURVE",
"350 618 CURVE",
"422 625 LINE",
"431 685 LINE",
"312 674 LINE",
"301 691 OFFCURVE",
"287 707 OFFCURVE",
"274 723 CURVE",
"186 723 LINE",
"184 719 LINE",
"198 701 OFFCURVE",
"211 683 OFFCURVE",
"223 666 CURVE",
"151 660 LINE",
"143 600 LINE",
"262 610 LINE",
"279 582 OFFCURVE",
"295 556 OFFCURVE",
"306 527 CURVE",
"306 526 LINE",
"289 533 OFFCURVE",
"270 538 OFFCURVE",
"248 538 CURVE SMOOTH",
"144 538 OFFCURVE",
"35 433 OFFCURVE",
"35 177 CURVE SMOOTH",
"35 48 OFFCURVE",
"93 -12 OFFCURVE",
"202 -12 CURVE SMOOTH"
);
},
{
closed = 1;
nodes = (
"144 61 OFFCURVE",
"120 102 OFFCURVE",
"120 186 CURVE SMOOTH",
"120 255 OFFCURVE",
"137 465 OFFCURVE",
"258 465 CURVE SMOOTH",
"312 465 OFFCURVE",
"339 425 OFFCURVE",
"339 348 CURVE SMOOTH",
"339 277 OFFCURVE",
"323 61 OFFCURVE",
"201 61 CURVE SMOOTH"
);
}
);
width = 456;
},
{
layerId = "F1687A9F-F053-405E-AE0C-19A259C4FF7F";
paths = (
{
closed = 1;
nodes = (
"369 -12 OFFCURVE",
"463 106 OFFCURVE",
"463 367 CURVE SMOOTH",
"463 471 OFFCURVE",
"437 549 OFFCURVE",
"406 607 CURVE",
"482 614 LINE",
"492 687 LINE",
"361 675 LINE",
"345 695 OFFCURVE",
"330 711 OFFCURVE",
"318 723 CURVE",
"194 723 LINE",
"192 719 LINE",
"203 706 OFFCURVE",
"219 687 OFFCURVE",
"236 664 CURVE",
"161 657 LINE",
"151 584 LINE",
"280 595 LINE",
"291 575 OFFCURVE",
"302 553 OFFCURVE",
"309 534 CURVE",
"305 530 LINE",
"291 535 OFFCURVE",
"270 538 OFFCURVE",
"253 538 CURVE SMOOTH",
"136 538 OFFCURVE",
"33 415 OFFCURVE",
"33 182 CURVE SMOOTH",
"33 49 OFFCURVE",
"96 -12 OFFCURVE",
"219 -12 CURVE SMOOTH"
);
},
{
closed = 1;
nodes = (
"176 89 OFFCURVE",
"156 121 OFFCURVE",
"156 183 CURVE SMOOTH",
"156 221 OFFCURVE",
"162 437 OFFCURVE",
"272 437 CURVE SMOOTH",
"319 437 OFFCURVE",
"339 404 OFFCURVE",
"339 343 CURVE SMOOTH",
"339 305 OFFCURVE",
"333 89 OFFCURVE",
"223 89 CURVE SMOOTH"
);
}
);
width = 501;
}
);
leftKerningGroup = o;
rightKerningGroup = o;
unicode = 00F0;
},
{
glyphname = dcaron;
layers = (
{
background = {
paths = (
{
closed = 1;
nodes = (
"215 -12 OFFCURVE",
"259 14 OFFCURVE",
"294 71 CURVE",
"294 0 LINE",
"359 0 LINE",
"460 723 LINE",
"378 723 LINE",
"342 468 LINE",
"319 518 OFFCURVE",
"281 538 OFFCURVE",
"237 538 CURVE SMOOTH",
"139 538 OFFCURVE",
"34 424 OFFCURVE",
"34 183 CURVE SMOOTH",
"34 48 OFFCURVE",
"90 -12 OFFCURVE",
"167 -12 CURVE SMOOTH"
);
},
{
closed = 1;
nodes = (
"143 61 OFFCURVE",
"118 99 OFFCURVE",
"118 175 CURVE SMOOTH",
"118 261 OFFCURVE",
"142 465 OFFCURVE",
"249 465 CURVE SMOOTH",
"298 465 OFFCURVE",
"322 427 OFFCURVE",
"322 352 CURVE SMOOTH",
"322 272 OFFCURVE",
"296 61 OFFCURVE",
"192 61 CURVE SMOOTH"
);
},
{
closed = 1;
nodes = (
"538 454 LINE",
"602 587 LINE",
"616 686 LINE",
"516 686 LINE",
"501 578 LINE",
"534 578 LINE",
"483 454 LINE"
);
}
);
};
components = (
{
name = d;
},
{
name = caroncomb.alt;
transform = "{1, 0, 0, 1, 426, 0}";
}
);
layerId = UUID0;
width = 456;
},
{
background = {
paths = (
{
closed = 1;
nodes = (
"228 -12 OFFCURVE",
"274 13 OFFCURVE",
"311 76 CURVE",
"311 0 LINE",
"408 0 LINE",
"508 723 LINE",
"390 723 LINE",
"353 469 LINE",
"333 513 OFFCURVE",
"297 538 OFFCURVE",
"242 538 CURVE SMOOTH",
"139 538 OFFCURVE",
"36 428 OFFCURVE",
"36 174 CURVE SMOOTH",
"36 51 OFFCURVE",
"89 -12 OFFCURVE",
"179 -12 CURVE SMOOTH"
);
},
{
closed = 1;
nodes = (
"174 97 OFFCURVE",
"157 128 OFFCURVE",
"157 186 CURVE SMOOTH",
"157 257 OFFCURVE",
"172 429 OFFCURVE",
"271 429 CURVE SMOOTH",
"315 429 OFFCURVE",
"332 396 OFFCURVE",
"332 338 CURVE SMOOTH",
"332 264 OFFCURVE",
"314 97 OFFCURVE",
"220 97 CURVE SMOOTH"
);
},
{
closed = 1;
nodes = (
"591 393 LINE",
"681 561 LINE",
"698 686 LINE",
"560 686 LINE",
"541 549 LINE",
"592 549 LINE",
"519 393 LINE"
);
}
);
};
components = (
{
name = d;
},
{
name = caroncomb.alt;
transform = "{1, 0, 0, 1, 474, 0}";
}
);
layerId = "F1687A9F-F053-405E-AE0C-19A259C4FF7F";
width = 501;
}
);
leftKerningGroup = d;
rightKerningGroup = dcaron;
unicode = 010F;
},
{
glyphname = dcroat;
layers = (
{
components = (
{
name = d;
}
);
layerId = UUID0;
paths = (
{
closed = 1;
nodes = (
"496 583 LINE",
"506 651 LINE",
"253 651 LINE",
"243 583 LINE"
);
}
);
width = 456;
},
{
background = {
paths = (
{
closed = 1;
nodes = (
"228 -12 OFFCURVE",
"274 13 OFFCURVE",
"311 76 CURVE",
"311 0 LINE",
"408 0 LINE",
"488 583 LINE",
"546 583 LINE",
"558 670 LINE",
"500 670 LINE",
"508 723 LINE",
"390 723 LINE",
"382 670 LINE",
"251 670 LINE",
"239 583 LINE",
"370 583 LINE",
"353 469 LINE",
"333 513 OFFCURVE",
"297 538 OFFCURVE",
"242 538 CURVE SMOOTH",
"139 538 OFFCURVE",
"36 428 OFFCURVE",
"36 174 CURVE SMOOTH",
"36 51 OFFCURVE",
"89 -12 OFFCURVE",
"179 -12 CURVE SMOOTH"
);
},
{
closed = 1;
nodes = (
"174 97 OFFCURVE",
"157 128 OFFCURVE",
"157 186 CURVE SMOOTH",
"157 257 OFFCURVE",
"172 429 OFFCURVE",
"271 429 CURVE SMOOTH",
"315 429 OFFCURVE",
"332 396 OFFCURVE",
"332 338 CURVE SMOOTH",
"332 264 OFFCURVE",
"314 97 OFFCURVE",
"220 97 CURVE SMOOTH"
);
}
);
};
components = (
{
name = d;
}
);
layerId = "F1687A9F-F053-405E-AE0C-19A259C4FF7F";
paths = (
{
closed = 1;
nodes = (
"546 583 LINE",
"558 670 LINE",
"251 670 LINE",
"239 583 LINE"
);
}
);
width = 501;
}
);
leftKerningGroup = o;
rightKerningGroup = hbar;
unicode = 0111;
},
{
glyphname = e;
layers = (
{
anchors = (
{
name = bottom;
position = "{191, 0}";
},
{
name = ogonek;
position = "{284, 5}";
},
{
name = top;
position = "{266, 526}";
}
);
layerId = UUID0;
paths = (
{
closed = 1;
nodes = (
"317 -12 OFFCURVE",
"383 76 OFFCURVE",
"399 178 CURVE",
"316 178 LINE",
"307 115 OFFCURVE",
"264 61 OFFCURVE",
"205 61 CURVE SMOOTH",
"148 61 OFFCURVE",
"120 102 OFFCURVE",
"120 186 CURVE SMOOTH",
"120 199 OFFCURVE",
"121 218 OFFCURVE",
"123 239 CURVE",
"412 239 LINE",
"418 277 OFFCURVE",
"420 315 OFFCURVE",
"420 349 CURVE SMOOTH",
"420 478 OFFCURVE",
"363 538 OFFCURVE",
"258 538 CURVE SMOOTH",
"76 538 OFFCURVE",
"35 329 OFFCURVE",
"35 179 CURVE SMOOTH",
"35 48 OFFCURVE",
"97 -12 OFFCURVE",
"205 -12 CURVE SMOOTH"
);
},
{
closed = 1;
nodes = (
"149 388 OFFCURVE",
"185 465 OFFCURVE",
"258 465 CURVE SMOOTH",
"309 465 OFFCURVE",
"335 425 OFFCURVE",
"335 348 CURVE SMOOTH",
"335 339 OFFCURVE",
"335 325 OFFCURVE",
"334 312 CURVE",
"133 312 LINE"
);
}
);
width = 456;
},
{
anchors = (
{
name = bottom;
position = "{191, 0}";
},
{
name = ogonek;
position = "{287, 5}";
},
{
name = top;
position = "{265, 526}";
}
);
layerId = "F1687A9F-F053-405E-AE0C-19A259C4FF7F";
paths = (
{
closed = 1;
nodes = (
"327 -12 OFFCURVE",
"383 77 OFFCURVE",
"407 182 CURVE",
"284 182 LINE",
"273 130 OFFCURVE",
"248 85 OFFCURVE",
"208 85 CURVE SMOOTH",
"168 85 OFFCURVE",
"153 119 OFFCURVE",
"153 187 CURVE SMOOTH",
"153 194 OFFCURVE",
"153 212 OFFCURVE",
"155 233 CURVE",
"418 233 LINE",
"426 275 OFFCURVE",
"429 320 OFFCURVE",
"429 359 CURVE SMOOTH",
"429 479 OFFCURVE",
"374 538 OFFCURVE",
"266 538 CURVE SMOOTH",
"78 538 OFFCURVE",
"33 345 OFFCURVE",
"33 172 CURVE SMOOTH",
"33 47 OFFCURVE",
"89 -12 OFFCURVE",
"203 -12 CURVE SMOOTH"
);
},
{
closed = 1;
nodes = (
"182 382 OFFCURVE",
"209 441 OFFCURVE",
"259 441 CURVE SMOOTH",
"295 441 OFFCURVE",
"308 412 OFFCURVE",
"308 359 CURVE SMOOTH",
"308 354 OFFCURVE",
"308 349 OFFCURVE",
"306 320 CURVE",
"168 320 LINE"
);
}
);
width = 456;
}
);
leftKerningGroup = o;
rightKerningGroup = e;
unicode = 0065;
},
{
glyphname = f;
layers = (
{
layerId = UUID0;
paths = (
{
closed = 1;
nodes = (
"57 -182 OFFCURVE",
"90 -121 OFFCURVE",
"98 -61 CURVE",
"166 453 LINE",
"257 453 LINE",
"267 526 LINE",
"176 526 LINE",
"188 614 LINE",
"192 645 OFFCURVE",
"211 662 OFFCURVE",
"242 662 CURVE SMOOTH",
"286 662 LINE",
"294 719 LINE",
"278 725 OFFCURVE",
"251 731 OFFCURVE",
"227 731 CURVE SMOOTH",
"147 731 OFFCURVE",
"114 670 OFFCURVE",
"106 610 CURVE",
"94 526 LINE",
"48 526 LINE",
"38 453 LINE",
"84 453 LINE",
"16 -65 LINE SMOOTH",
"12 -96 OFFCURVE",
"-6 -113 OFFCURVE",
"-37 -113 CURVE SMOOTH",
"-81 -113 LINE",
"-89 -170 LINE",
"-73 -176 OFFCURVE",
"-46 -182 OFFCURVE",
"-22 -182 CURVE SMOOTH"
);
}
);
width = 228;
},
{
layerId = "F1687A9F-F053-405E-AE0C-19A259C4FF7F";
paths = (
{
closed = 1;
nodes = (
"94 -182 OFFCURVE",
"131 -111 OFFCURVE",
"140 -41 CURVE SMOOTH",
"202 425 LINE",
"292 425 LINE",
"306 526 LINE",
"216 526 LINE",
"224 587 LINE SMOOTH",
"228 615 OFFCURVE",
"245 630 OFFCURVE",
"272 630 CURVE SMOOTH",
"320 630 LINE",
"333 719 LINE",
"314 725 OFFCURVE",
"276 731 OFFCURVE",
"249 731 CURVE SMOOTH",
"154 731 OFFCURVE",
"116 660 OFFCURVE",
"106 590 CURVE SMOOTH",
"97 526 LINE",
"45 526 LINE",
"31 425 LINE",
"83 425 LINE",
"23 -33 LINE",
"19 -64 OFFCURVE",
"2 -81 OFFCURVE",
"-28 -81 CURVE SMOOTH",
"-72 -81 LINE",
"-85 -170 LINE",
"-65 -176 OFFCURVE",
"-28 -182 OFFCURVE",
"1 -182 CURVE SMOOTH"
);
}
);
width = 273;
}
);
leftKerningGroup = f;
rightKerningGroup = f;
unicode = 0066;
},
{
glyphname = g;
layers = (
{
anchors = (
{
name = top;
position = "{264, 526}";
}
);
background = {
paths = (
{
closed = 1;
nodes = (
"141 538 OFFCURVE",
"37 430 OFFCURVE",
"37 190 CURVE SMOOTH",
"37 101 OFFCURVE",
"72 8 OFFCURVE",
"171 8 CURVE SMOOTH",
"220 8 OFFCURVE",
"257 34 OFFCURVE",
"293 91 CURVE",
"282 25 LINE SMOOTH",
"267 -67 OFFCURVE",
"233 -110 OFFCURVE",
"168 -110 CURVE SMOOTH",
"115 -110 OFFCURVE",
"89 -81 OFFCURVE",
"89 -24 CURVE",
"7 -24 LINE",
"7 -108 OFFCURVE",
"57 -182 OFFCURVE",
"165 -182 CURVE SMOOTH",
"278 -182 OFFCURVE",
"344 -115 OFFCURVE",
"367 49 CURVE SMOOTH",
"434 526 LINE",
"392 526 LINE",
"352 453 LINE",
"331 518 OFFCURVE",
"289 538 OFFCURVE",
"239 538 CURVE SMOOTH"
);
},
{
closed = 1;
nodes = (
"299 465 OFFCURVE",
"323 427 OFFCURVE",
"324 352 CURVE",
"324 278 OFFCURVE",
"295 81 OFFCURVE",
"197 81 CURVE SMOOTH",
"148 81 OFFCURVE",
"121 113 OFFCURVE",
"121 182 CURVE SMOOTH",
"121 265 OFFCURVE",
"141 465 OFFCURVE",
"250 465 CURVE SMOOTH"
);
}
);
};
layerId = UUID0;
paths = (
{
closed = 1;
nodes = (
"278 -182 OFFCURVE",
"344 -115 OFFCURVE",
"367 49 CURVE SMOOTH",
"434 526 LINE",
"369 526 LINE",
"352 453 LINE",
"331 518 OFFCURVE",
"289 538 OFFCURVE",
"239 538 CURVE SMOOTH",
"141 538 OFFCURVE",
"37 430 OFFCURVE",
"37 190 CURVE SMOOTH",
"37 101 OFFCURVE",
"72 8 OFFCURVE",
"171 8 CURVE SMOOTH",
"220 8 OFFCURVE",
"257 34 OFFCURVE",
"293 91 CURVE",
"282 25 LINE",
"267 -67 OFFCURVE",
"233 -110 OFFCURVE",
"168 -110 CURVE SMOOTH",
"115 -110 OFFCURVE",
"89 -81 OFFCURVE",
"89 -24 CURVE",
"7 -24 LINE",
"7 -108 OFFCURVE",
"57 -182 OFFCURVE",
"165 -182 CURVE SMOOTH"
);
},
{
closed = 1;
nodes = (
"148 81 OFFCURVE",
"121 113 OFFCURVE",
"121 182 CURVE SMOOTH",
"121 265 OFFCURVE",
"141 465 OFFCURVE",
"250 465 CURVE SMOOTH",
"299 465 OFFCURVE",
"323 427 OFFCURVE",
"324 352 CURVE SMOOTH",
"324 278 OFFCURVE",
"295 81 OFFCURVE",
"197 81 CURVE SMOOTH"
);
}
);
width = 456;
},
{
anchors = (
{
name = top;
position = "{283, 526}";
}
);
background = {
paths = (
{
closed = 1;
nodes = (
"7 -24 LINE",
"7 -108 OFFCURVE",
"64 -182 OFFCURVE",
"184 -182 CURVE SMOOTH",
"313 -182 OFFCURVE",
"390 -115 OFFCURVE",
"413 49 CURVE SMOOTH",
"480 526 LINE",
"406 526 LINE",
"363 456 LINE",
"340 513 OFFCURVE",
"295 538 OFFCURVE",
"241 538 CURVE SMOOTH",
"82 538 OFFCURVE",
"36 318 OFFCURVE",
"36 187 CURVE SMOOTH",
"36 66 OFFCURVE",
"101 14 OFFCURVE",
"181 14 CURVE SMOOTH",
"228 14 OFFCURVE",
"272 41 OFFCURVE",
"300 79 CURVE",
"292 25 LINE SMOOTH",
"281 -46 OFFCURVE",
"247 -81 OFFCURVE",
"192 -81 CURVE SMOOTH",
"148 -81 OFFCURVE",
"129 -60 OFFCURVE",
"129 -24 CURVE"
);
},
{
closed = 1;
nodes = (
"158 264 OFFCURVE",
"172 429 OFFCURVE",
"268 429 CURVE SMOOTH",
"314 429 OFFCURVE",
"333 396 OFFCURVE",
"333 338 CURVE SMOOTH",
"333 270 OFFCURVE",
"313 117 OFFCURVE",
"223 117 CURVE SMOOTH",
"181 117 OFFCURVE",
"158 144 OFFCURVE",
"158 196 CURVE SMOOTH"
);
}
);
};
layerId = "F1687A9F-F053-405E-AE0C-19A259C4FF7F";
paths = (
{
closed = 1;
nodes = (
"313 -182 OFFCURVE",
"390 -115 OFFCURVE",
"413 49 CURVE SMOOTH",
"480 526 LINE",
"386 526 LINE",
"363 456 LINE",
"340 513 OFFCURVE",
"295 538 OFFCURVE",
"241 538 CURVE SMOOTH",
"82 538 OFFCURVE",
"36 318 OFFCURVE",
"36 187 CURVE SMOOTH",
"36 66 OFFCURVE",
"101 14 OFFCURVE",
"181 14 CURVE SMOOTH",
"228 14 OFFCURVE",
"272 41 OFFCURVE",
"300 79 CURVE",
"292 25 LINE SMOOTH",
"281 -46 OFFCURVE",
"247 -81 OFFCURVE",
"192 -81 CURVE SMOOTH",
"148 -81 OFFCURVE",
"129 -60 OFFCURVE",
"129 -24 CURVE",
"7 -24 LINE",
"7 -108 OFFCURVE",
"64 -182 OFFCURVE",
"184 -182 CURVE SMOOTH"
);
},
{
closed = 1;
nodes = (
"181 117 OFFCURVE",
"158 144 OFFCURVE",
"158 196 CURVE SMOOTH",
"158 264 OFFCURVE",
"172 429 OFFCURVE",
"268 429 CURVE SMOOTH",
"314 429 OFFCURVE",
"333 396 OFFCURVE",
"333 338 CURVE SMOOTH",
"333 270 OFFCURVE",
"313 117 OFFCURVE",
"223 117 CURVE SMOOTH"
);
}
);
width = 501;
}
);
leftKerningGroup = g;
rightKerningGroup = g;
unicode = 0067;
},
{
glyphname = h;
layers = (
{
anchors = (
{
name = center;
position = "{228, 263}";
},
{
name = top;
position = "{158, 686}";
}
);
layerId = UUID0;
paths = (
{
closed = 1;
nodes = (
"103 0 LINE",
"144 294 LINE SMOOTH",
"158 395 OFFCURVE",
"202 465 OFFCURVE",
"269 465 CURVE SMOOTH",
"308 465 OFFCURVE",
"329 446 OFFCURVE",
"329 401 CURVE SMOOTH",
"329 369 OFFCURVE",
"275 0 OFFCURVE",
"275 0 CURVE",
"357 0 LINE",
"357 0 OFFCURVE",
"413 388 OFFCURVE",
"413 420 CURVE SMOOTH",
"413 480 OFFCURVE",
"386 538 OFFCURVE",
"299 538 CURVE SMOOTH",
"229 538 OFFCURVE",
"189 496 OFFCURVE",
"169 465 CURVE",
"205 723 LINE",
"123 723 LINE",
"22 0 LINE"
);
}
);
width = 456;
},
{
anchors = (
{
name = center;
position = "{250, 263}";
},
{
name = top;
position = "{176, 686}";
}
);
layerId = "F1687A9F-F053-405E-AE0C-19A259C4FF7F";
paths = (
{
closed = 1;
nodes = (
"142 0 LINE",
"186 316 LINE SMOOTH",
"196 389 OFFCURVE",
"237 429 OFFCURVE",
"283 429 CURVE SMOOTH",
"324 429 OFFCURVE",
"341 409 OFFCURVE",
"341 363 CURVE SMOOTH",
"341 355 OFFCURVE",
"340 346 OFFCURVE",
"292 0 CURVE",
"410 0 LINE",
"460 372 OFFCURVE",
"463 376 OFFCURVE",
"463 403 CURVE SMOOTH",
"463 487 OFFCURVE",
"420 538 OFFCURVE",
"336 538 CURVE SMOOTH",
"277 538 OFFCURVE",
"237 509 OFFCURVE",
"206 471 CURVE",
"242 723 LINE",
"123 723 LINE",
"23 0 LINE"
);
}
);
width = 501;
}
);
leftKerningGroup = l;
rightKerningGroup = n;
unicode = 0068;
},
{
glyphname = hbar;
layers = (
{
background = {
paths = (
{
closed = 1;
nodes = (
"103 0 LINE",
"144 294 LINE SMOOTH",
"158 395 OFFCURVE",
"202 465 OFFCURVE",
"269 465 CURVE SMOOTH",
"308 465 OFFCURVE",
"329 446 OFFCURVE",
"329 401 CURVE SMOOTH",
"329 369 OFFCURVE",
"275 0 OFFCURVE",
"275 0 CURVE",
"357 0 LINE",
"357 0 OFFCURVE",
"413 388 OFFCURVE",
"413 420 CURVE SMOOTH",
"413 480 OFFCURVE",
"386 538 OFFCURVE",
"299 538 CURVE SMOOTH",
"229 538 OFFCURVE",
"189 496 OFFCURVE",
"169 465 CURVE",
"186 583 LINE",
"300 583 LINE",
"310 651 LINE",
"195 651 LINE",
"205 723 LINE",
"123 723 LINE",
"113 651 LINE",
"58 651 LINE",
"47 583 LINE",
"104 583 LINE",
"22 0 LINE"
);
}
);
};
components = (
{
name = h;
}
);
layerId = UUID0;
paths = (
{
closed = 1;
nodes = (
"298 596 LINE",
"306 658 LINE",
"56 658 LINE",
"48 596 LINE"
);
}
);
width = 456;
},
{
background = {
paths = (
{
closed = 1;
nodes = (
"142 0 LINE",
"186 316 LINE",
"196 389 OFFCURVE",
"237 429 OFFCURVE",
"283 429 CURVE SMOOTH",
"324 429 OFFCURVE",
"341 409 OFFCURVE",
"341 363 CURVE SMOOTH",
"341 355 OFFCURVE",
"340 346 OFFCURVE",
"292 0 CURVE",
"410 0 LINE",
"460 372 OFFCURVE",
"463 376 OFFCURVE",
"463 403 CURVE SMOOTH",
"463 487 OFFCURVE",
"420 538 OFFCURVE",
"336 538 CURVE SMOOTH",
"277 538 OFFCURVE",
"237 509 OFFCURVE",
"206 471 CURVE",
"222 583 LINE",
"352 583 LINE",
"364 670 LINE",
"234 670 LINE",
"242 723 LINE",
"123 723 LINE",
"116 670 LINE",
"58 670 LINE",
"45 583 LINE",
"104 583 LINE",
"23 0 LINE"
);
}
);
};
components = (
{
name = h;
}
);
layerId = "F1687A9F-F053-405E-AE0C-19A259C4FF7F";
paths = (
{
closed = 1;
nodes = (
"352 593 LINE",
"362 661 LINE",
"56 661 LINE",
"46 593 LINE"
);
}
);
width = 501;
}
);
leftKerningGroup = hbar;
rightKerningGroup = hbar;
unicode = 0127;
},
{
glyphname = i;
layers = (
{
background = {
paths = (
{
closed = 1;
nodes = (
"97 0 LINE",
"171 526 LINE",
"89 526 LINE",
"16 0 LINE"
);
},
{
closed = 1;
nodes = (
"185 625 LINE",
"198 723 LINE",
"116 723 LINE",
"103 625 LINE"
);
}
);
};
components = (
{
name = idotless;
},
{
name = dotaccentcomb;
transform = "{1, 0, 0, 1, 72, 0}";
}
);
layerId = UUID0;
width = 228;
},
{
background = {
paths = (
{
closed = 1;
nodes = (
"142 0 LINE",
"215 526 LINE",
"96 526 LINE",
"23 0 LINE"
);
},
{
closed = 1;
nodes = (
"227 614 LINE",
"242 723 LINE",
"123 723 LINE",
"108 614 LINE"
);
}
);
};
components = (
{
name = idotless;
},
{
name = dotaccentcomb;
transform = "{1, 0, 0, 1, 56, 0}";
}
);
layerId = "F1687A9F-F053-405E-AE0C-19A259C4FF7F";
width = 228;
}
);
leftKerningGroup = i;
rightKerningGroup = i;
unicode = 0069;
},
{
glyphname = idotless;
layers = (
{
anchors = (
{
name = bottom;
position = "{77, 0}";
},
{
name = ogonek;
position = "{114, 0}";
},
{
name = top;
position = "{152, 526}";
}
);
layerId = UUID0;
paths = (
{
closed = 1;
nodes = (
"119 0 LINE",
"193 526 LINE",
"111 526 LINE",
"38 0 LINE"
);
}
);
width = 228;
},
{
anchors = (
{
name = bottom;
position = "{77, 0}";
},
{
name = ogonek;
position = "{129, 0}";
},
{
name = top;
position = "{154, 526}";
}
);
layerId = "F1687A9F-F053-405E-AE0C-19A259C4FF7F";
paths = (
{
closed = 1;
nodes = (
"142 0 LINE",
"215 526 LINE",
"96 526 LINE",
"23 0 LINE"
);
}
);
width = 228;
}
);
leftKerningGroup = idotless;
rightKerningGroup = idotless;
unicode = 0131;
},
{
glyphname = ij;
layers = (
{
layerId = UUID0;
paths = (
{
closed = 1;
nodes = (
"229 -182 OFFCURVE",
"261 -121 OFFCURVE",
"270 -61 CURVE",
"352 526 LINE",
"270 526 LINE",
"187 -65 LINE",
"184 -96 OFFCURVE",
"166 -113 OFFCURVE",
"135 -113 CURVE SMOOTH",
"91 -113 LINE",
"83 -170 LINE",
"99 -176 OFFCURVE",
"126 -182 OFFCURVE",
"150 -182 CURVE SMOOTH"
);
},
{
closed = 1;
nodes = (
"97 0 LINE",
"171 526 LINE",
"89 526 LINE",
"16 0 LINE"
);
},
{
closed = 1;
nodes = (
"185 625 LINE",
"198 723 LINE",
"116 723 LINE",
"103 625 LINE"
);
},
{
closed = 1;
nodes = (
"366 625 LINE",
"380 723 LINE",
"298 723 LINE",
"284 625 LINE"
);
}
);
width = 364;
},
{
layerId = "F1687A9F-F053-405E-AE0C-19A259C4FF7F";
paths = (
{
closed = 1;
nodes = (
"318 -182 OFFCURVE",
"353 -111 OFFCURVE",
"363 -41 CURVE SMOOTH",
"442 526 LINE",
"323 526 LINE",
"246 -33 LINE",
"241 -64 OFFCURVE",
"224 -81 OFFCURVE",
"193 -81 CURVE SMOOTH",
"150 -81 LINE",
"138 -170 LINE",
"157 -176 OFFCURVE",
"194 -182 OFFCURVE",
"224 -182 CURVE SMOOTH"
);
},
{
closed = 1;
nodes = (
"142 0 LINE",
"215 526 LINE",
"96 526 LINE",
"23 0 LINE"
);
},
{
closed = 1;
nodes = (
"227 614 LINE",
"242 723 LINE",
"123 723 LINE",
"108 614 LINE"
);
},
{
closed = 1;
nodes = (
"454 614 LINE",
"469 723 LINE",
"351 723 LINE",
"336 614 LINE"
);
}
);
width = 456;
}
);
leftKerningGroup = ij;
rightKerningGroup = ij;
unicode = 0133;
},
{
glyphname = j;
layers = (
{
background = {
paths = (
{
closed = 1;
nodes = (
"47 -182 OFFCURVE",
"79 -121 OFFCURVE",
"88 -61 CURVE",
"170 526 LINE",
"88 526 LINE",
"5 -65 LINE",
"2 -96 OFFCURVE",
"-16 -113 OFFCURVE",
"-47 -113 CURVE SMOOTH",
"-91 -113 LINE",
"-99 -170 LINE",
"-83 -176 OFFCURVE",
"-56 -182 OFFCURVE",
"-32 -182 CURVE SMOOTH"
);
},
{
closed = 1;
nodes = (
"184 625 LINE",
"198 723 LINE",
"116 723 LINE",
"102 625 LINE"
);
}
);
};
components = (
{
name = jdotless;
},
{
name = dotaccentcomb;
transform = "{1, 0, 0, 1, 48, 0}";
}
);
layerId = UUID0;
width = 182;
},
{
background = {
paths = (
{
closed = 1;
nodes = (
"90 -182 OFFCURVE",
"125 -111 OFFCURVE",
"135 -41 CURVE SMOOTH",
"214 526 LINE",
"95 526 LINE",
"18 -33 LINE",
"13 -64 OFFCURVE",
"-4 -81 OFFCURVE",
"-35 -81 CURVE SMOOTH",
"-78 -81 LINE",
"-90 -170 LINE",
"-71 -176 OFFCURVE",
"-34 -182 OFFCURVE",
"-4 -182 CURVE SMOOTH"
);
},
{
closed = 1;
nodes = (
"226 614 LINE",
"241 723 LINE",
"123 723 LINE",
"108 614 LINE"
);
}
);
};
components = (
{
name = jdotless;
},
{
name = dotaccentcomb;
transform = "{1, 0, 0, 1, 53, 0}";
}
);
layerId = "F1687A9F-F053-405E-AE0C-19A259C4FF7F";
width = 228;
}
);
leftKerningGroup = jdotless;
rightKerningGroup = jdotless;
unicode = 006A;
},
{
glyphname = jdotless;
layers = (
{
anchors = (
{
name = bottom;
position = "{28, -182}";
},
{
name = top;
position = "{128, 526}";
}
);
layerId = UUID0;
paths = (
{
closed = 1;
nodes = (
"47 -182 OFFCURVE",
"79 -121 OFFCURVE",
"88 -61 CURVE",
"170 526 LINE",
"88 526 LINE",
"5 -65 LINE",
"2 -96 OFFCURVE",
"-16 -113 OFFCURVE",
"-47 -113 CURVE SMOOTH",
"-91 -113 LINE",
"-99 -170 LINE",
"-83 -176 OFFCURVE",
"-56 -182 OFFCURVE",
"-32 -182 CURVE SMOOTH"
);
}
);
width = 182;
},
{
anchors = (
{
name = bottom;
position = "{51, -182}";
},
{
name = top;
position = "{151, 526}";
}
);
layerId = "F1687A9F-F053-405E-AE0C-19A259C4FF7F";
paths = (
{
closed = 1;
nodes = (
"90 -182 OFFCURVE",
"125 -111 OFFCURVE",
"135 -41 CURVE SMOOTH",
"214 526 LINE",
"95 526 LINE",
"18 -33 LINE",
"13 -64 OFFCURVE",
"-4 -81 OFFCURVE",
"-35 -81 CURVE SMOOTH",
"-78 -81 LINE",
"-90 -170 LINE",
"-71 -176 OFFCURVE",
"-34 -182 OFFCURVE",
"-4 -182 CURVE SMOOTH"
);
}
);
width = 228;
}
);
leftKerningGroup = jdotless;
rightKerningGroup = jdotless;
unicode = 0237;
},
{
glyphname = k;
layers = (
{
anchors = (
{
name = bottom;
position = "{182, 0}";
}
);
layerId = UUID0;
paths = (
{
closed = 1;
nodes = (
"101 0 LINE",
"127 187 LINE",
"192 242 LINE",
"280 0 LINE",
"370 0 LINE",
"250 310 LINE",
"436 526 LINE",
"338 526 LINE",
"141 292 LINE",
"202 723 LINE",
"120 723 LINE",
"19 0 LINE"
);
}
);
width = 410;
},
{
anchors = (
{
name = bottom;
position = "{203, 0}";
}
);
layerId = "F1687A9F-F053-405E-AE0C-19A259C4FF7F";
paths = (
{
closed = 1;
nodes = (
"142 0 LINE",
"164 160 LINE",
"220 215 LINE",
"296 0 LINE",
"422 0 LINE",
"304 310 LINE",
"488 526 LINE",
"353 526 LINE",
"187 329 LINE",
"242 723 LINE",
"123 723 LINE",
"23 0 LINE"
);
}
);
width = 456;
}
);
leftKerningGroup = l;
rightKerningGroup = k;
unicode = 006B;
},
{
glyphname = kgreenlandic;
layers = (
{
background = {
paths = (
{
closed = 1;
nodes = (
"436 526 LINE",
"338 526 LINE",
"141 292 LINE",
"174 526 LINE",
"92 526 LINE",
"19 0 LINE",
"101 0 LINE",
"127 187 LINE",
"192 242 LINE",
"280 0 LINE",
"370 0 LINE",
"250 310 LINE"
);
}
);
};
layerId = UUID0;
paths = (
{
closed = 1;
nodes = (
"101 0 LINE",
"127 187 LINE",
"192 242 LINE",
"280 0 LINE",
"370 0 LINE",
"250 310 LINE",
"436 526 LINE",
"338 526 LINE",
"141 292 LINE",
"174 526 LINE",
"92 526 LINE",
"19 0 LINE"
);
}
);
width = 410;
},
{
layerId = "F1687A9F-F053-405E-AE0C-19A259C4FF7F";
paths = (
{
closed = 1;
nodes = (
"142 0 LINE",
"164 160 LINE",
"220 215 LINE",
"296 0 LINE",
"422 0 LINE",
"304 310 LINE",
"488 526 LINE",
"353 526 LINE",
"187 329 LINE",
"214 525 LINE",
"96 525 LINE",
"23 0 LINE"
);
}
);
width = 464;
}
);
leftKerningGroup = n;
rightKerningGroup = k;
unicode = 0138;
},
{
glyphname = l;
layers = (
{
anchors = (
{
name = bottom;
position = "{56, 0}";
},
{
name = center;
position = "{241, 362}";
},
{
name = top;
position = "{156, 700}";
},
{
name = topright;
position = "{201, 526}";
}
);
layerId = UUID0;
paths = (
{
closed = 1;
nodes = (
"97 0 LINE",
"198 723 LINE",
"116 723 LINE",
"16 0 LINE"
);
}
);
width = 182;
},
{
anchors = (
{
name = bottom;
position = "{81, 0}";
},
{
name = center;
position = "{292, 362}";
},
{
name = top;
position = "{178, 700}";
},
{
name = topright;
position = "{244, 526}";
}
);
layerId = "F1687A9F-F053-405E-AE0C-19A259C4FF7F";
paths = (
{
closed = 1;
nodes = (
"141 0 LINE",
"241 723 LINE",
"122 723 LINE",
"22 0 LINE"
);
}
);
width = 228;
}
);
leftKerningGroup = l;
rightKerningGroup = l;
unicode = 006C;
},
{
glyphname = lcaron;
layers = (
{
background = {
paths = (
{
closed = 1;
nodes = (
"97 0 LINE",
"198 723 LINE",
"116 723 LINE",
"16 0 LINE"
);
},
{
closed = 1;
nodes = (
"244 454 LINE",
"308 587 LINE",
"321 686 LINE",
"222 686 LINE",
"207 578 LINE",
"240 578 LINE",
"188 454 LINE"
);
}
);
};
components = (
{
name = l;
},
{
name = caroncomb.alt;
transform = "{1, 0, 0, 1, 164, 0}";
}
);
layerId = UUID0;
width = 182;
},
{
background = {
paths = (
{
closed = 1;
nodes = (
"141 0 LINE",
"241 723 LINE",
"122 723 LINE",
"22 0 LINE"
);
},
{
closed = 1;
nodes = (
"320 393 LINE",
"410 561 LINE",
"427 686 LINE",
"289 686 LINE",
"270 549 LINE",
"321 549 LINE",
"248 393 LINE"
);
}
);
};
components = (
{
name = l;
},
{
name = caroncomb.alt;
transform = "{1, 0, 0, 1, 207, 0}";
}
);
layerId = "F1687A9F-F053-405E-AE0C-19A259C4FF7F";
width = 228;
}
);
leftKerningGroup = l;
rightKerningGroup = dcaron;
unicode = 013E;
},
{
glyphname = ldot;
layers = (
{
background = {
paths = (
{
closed = 1;
nodes = (
"97 0 LINE",
"198 723 LINE",
"116 723 LINE",
"16 0 LINE"
);
},
{
closed = 1;
nodes = (
"287 288 LINE",
"302 399 LINE",
"201 399 LINE",
"186 288 LINE"
);
}
);
};
components = (
{
name = l;
},
{
name = periodcentered.loclCAT;
transform = "{1, 0, 0, 1, 87, -24}";
}
);
layerId = UUID0;
width = 182;
},
{
background = {
paths = (
{
closed = 1;
nodes = (
"141 0 LINE",
"241 723 LINE",
"122 723 LINE",
"22 0 LINE"
);
},
{
closed = 1;
nodes = (
"348 278 LINE",
"367 409 LINE",
"246 409 LINE",
"227 278 LINE"
);
}
);
};
components = (
{
name = l;
},
{
name = periodcentered.loclCAT;
transform = "{1, 0, 0, 1, 137, -31}";
}
);
layerId = "F1687A9F-F053-405E-AE0C-19A259C4FF7F";
width = 228;
}
);
leftKerningGroup = l;
rightKerningGroup = ldot;
unicode = 0140;
},
{
glyphname = lslash;
layers = (
{
background = {
paths = (
{
closed = 1;
nodes = (
"97 0 LINE",
"142 319 LINE",
"239 396 LINE",
"251 479 LINE",
"153 400 LINE",
"198 723 LINE",
"116 723 LINE",
"62 328 LINE",
"-19 264 LINE",
"-31 183 LINE",
"50 247 LINE",
"16 0 LINE"
);
}
);
};
components = (
{
name = l;
}
);
layerId = UUID0;
paths = (
{
closed = 1;
nodes = (
"239 396 LINE",
"251 479 LINE",
"-19 264 LINE",
"-31 183 LINE"
);
}
);
width = 182;
},
{
background = {
paths = (
{
closed = 1;
nodes = (
"141 0 LINE",
"187 336 LINE",
"277 407 LINE",
"291 514 LINE",
"203 444 LINE",
"241 723 LINE",
"122 723 LINE",
"69 339 LINE",
"-9 278 LINE",
"-22 172 LINE",
"54 232 LINE",
"22 0 LINE"
);
}
);
};
components = (
{
name = l;
}
);
layerId = "F1687A9F-F053-405E-AE0C-19A259C4FF7F";
paths = (
{
closed = 1;
nodes = (
"277 407 LINE",
"291 514 LINE",
"-9 278 LINE",
"-22 172 LINE"
);
}
);
width = 228;
}
);
leftKerningGroup = l;
rightKerningGroup = l;
unicode = 0142;
},
{
glyphname = m;
layers = (
{
layerId = UUID0;
paths = (
{
closed = 1;
nodes = (
"104 0 LINE",
"145 294 LINE SMOOTH",
"159 395 OFFCURVE",
"201 465 OFFCURVE",
"265 465 CURVE SMOOTH",
"297 465 OFFCURVE",
"317 446 OFFCURVE",
"317 401 CURVE SMOOTH",
"317 369 OFFCURVE",
"263 0 OFFCURVE",
"263 0 CURVE",
"345 0 LINE",
"388 307 LINE",
"401 402 OFFCURVE",
"444 465 OFFCURVE",
"505 465 CURVE SMOOTH",
"537 465 OFFCURVE",
"557 446 OFFCURVE",
"557 401 CURVE SMOOTH",
"557 369 OFFCURVE",
"503 0 OFFCURVE",
"503 0 CURVE",
"585 0 LINE",
"585 0 OFFCURVE",
"641 388 OFFCURVE",
"641 420 CURVE SMOOTH",
"641 480 OFFCURVE",
"615 538 OFFCURVE",
"535 538 CURVE SMOOTH",
"452 538 OFFCURVE",
"413 475 OFFCURVE",
"399 446 CURVE",
"392 496 OFFCURVE",
"363 538 OFFCURVE",
"295 538 CURVE SMOOTH",
"214 538 OFFCURVE",
"174 478 OFFCURVE",
"160 448 CURVE",
"160 526 LINE",
"96 526 LINE",
"22 0 LINE"
);
}
);
width = 683;
},
{
layerId = "F1687A9F-F053-405E-AE0C-19A259C4FF7F";
paths = (
{
closed = 1;
nodes = (
"143 0 LINE",
"186 316 LINE SMOOTH",
"196 390 OFFCURVE",
"233 429 OFFCURVE",
"274 429 CURVE SMOOTH",
"309 429 OFFCURVE",
"322 406 OFFCURVE",
"322 371 CURVE SMOOTH",
"322 351 OFFCURVE",
"320 346 OFFCURVE",
"273 0 CURVE",
"392 0 LINE",
"434 316 LINE SMOOTH",
"444 390 OFFCURVE",
"482 429 OFFCURVE",
"522 429 CURVE SMOOTH",
"557 429 OFFCURVE",
"571 406 OFFCURVE",
"571 371 CURVE SMOOTH",
"571 351 OFFCURVE",
"569 346 OFFCURVE",
"521 0 CURVE",
"640 0 LINE",
"691 372 OFFCURVE",
"693 376 OFFCURVE",
"693 403 CURVE SMOOTH",
"693 487 OFFCURVE",
"653 538 OFFCURVE",
"576 538 CURVE SMOOTH",
"510 538 OFFCURVE",
"469 500 OFFCURVE",
"438 452 CURVE",
"425 506 OFFCURVE",
"388 538 OFFCURVE",
"327 538 CURVE SMOOTH",
"265 538 OFFCURVE",
"224 503 OFFCURVE",
"195 458 CURVE",
"195 526 LINE",
"98 526 LINE",
"24 0 LINE"
);
}
);
width = 729;
}
);
leftKerningGroup = n;
rightKerningGroup = n;
unicode = 006D;
},
{
glyphname = n;
layers = (
{
anchors = (
{
name = bottom;
position = "{186, 0}";
},
{
name = top;
position = "{261, 526}";
}
);
layerId = UUID0;
paths = (
{
closed = 1;
nodes = (
"104 0 LINE",
"145 294 LINE SMOOTH",
"159 395 OFFCURVE",
"203 465 OFFCURVE",
"270 465 CURVE SMOOTH",
"309 465 OFFCURVE",
"330 446 OFFCURVE",
"330 401 CURVE SMOOTH",
"330 369 OFFCURVE",
"276 0 OFFCURVE",
"276 0 CURVE",
"358 0 LINE",
"358 0 OFFCURVE",
"414 388 OFFCURVE",
"414 420 CURVE SMOOTH",
"414 480 OFFCURVE",
"387 538 OFFCURVE",
"300 538 CURVE SMOOTH",
"216 538 OFFCURVE",
"175 478 OFFCURVE",
"160 448 CURVE",
"160 526 LINE",
"96 526 LINE",
"22 0 LINE"
);
}
);
width = 456;
},
{
anchors = (
{
name = bottom;
position = "{219, 0}";
},
{
name = top;
position = "{292, 526}";
}
);
layerId = "F1687A9F-F053-405E-AE0C-19A259C4FF7F";
paths = (
{
closed = 1;
nodes = (
"142 0 LINE",
"185 316 LINE SMOOTH",
"195 389 OFFCURVE",
"237 429 OFFCURVE",
"283 429 CURVE SMOOTH",
"324 429 OFFCURVE",
"341 409 OFFCURVE",
"341 363 CURVE SMOOTH",
"341 355 OFFCURVE",
"339 346 OFFCURVE",
"292 0 CURVE",
"410 0 LINE",
"460 372 OFFCURVE",
"463 376 OFFCURVE",
"463 403 CURVE SMOOTH",
"463 487 OFFCURVE",
"420 538 OFFCURVE",
"336 538 CURVE SMOOTH",
"268 538 OFFCURVE",
"224 502 OFFCURVE",
"193 456 CURVE",
"193 526 LINE",
"96 526 LINE",
"23 0 LINE"
);
}
);
width = 501;
}
);
leftKerningGroup = n;
rightKerningGroup = n;
unicode = 006E;
},
{
glyphname = napostrophe;
layers = (
{
background = {
paths = (
{
closed = 1;
nodes = (
"221 0 LINE",
"262 294 LINE SMOOTH",
"276 395 OFFCURVE",
"320 465 OFFCURVE",
"387 465 CURVE SMOOTH",
"426 465 OFFCURVE",
"447 446 OFFCURVE",
"447 401 CURVE SMOOTH",
"447 369 OFFCURVE",
"393 0 OFFCURVE",
"393 0 CURVE",
"475 0 LINE",
"475 0 OFFCURVE",
"531 388 OFFCURVE",
"531 420 CURVE SMOOTH",
"531 480 OFFCURVE",
"504 538 OFFCURVE",
"417 538 CURVE SMOOTH",
"333 538 OFFCURVE",
"292 478 OFFCURVE",
"277 448 CURVE",
"277 526 LINE",
"213 526 LINE",
"139 0 LINE"
);
},
{
closed = 1;
nodes = (
"143 524 LINE",
"178 601 LINE",
"190 685 LINE",
"105 685 LINE",
"92 594 LINE",
"126 594 LINE",
"95 524 LINE"
);
}
);
};
components = (
{
name = n;
},
{
alignment = -1;
name = apostrophemod;
transform = "{1, 0, 0, 1, -35, -37}";
}
);
layerId = UUID0;
width = 456;
},
{
background = {
paths = (
{
closed = 1;
nodes = (
"340 0 LINE",
"383 316 LINE SMOOTH",
"393 389 OFFCURVE",
"435 429 OFFCURVE",
"481 429 CURVE SMOOTH",
"522 429 OFFCURVE",
"539 409 OFFCURVE",
"539 363 CURVE SMOOTH",
"539 355 OFFCURVE",
"537 346 OFFCURVE",
"490 0 CURVE",
"608 0 LINE",
"658 372 OFFCURVE",
"661 376 OFFCURVE",
"661 403 CURVE SMOOTH",
"661 487 OFFCURVE",
"618 538 OFFCURVE",
"534 538 CURVE SMOOTH",
"466 538 OFFCURVE",
"422 502 OFFCURVE",
"391 456 CURVE",
"391 526 LINE",
"294 526 LINE",
"221 0 LINE"
);
},
{
closed = 1;
nodes = (
"181 479 LINE",
"241 574 LINE",
"257 686 LINE",
"133 686 LINE",
"116 563 LINE",
"162 563 LINE",
"116 479 LINE"
);
}
);
};
components = (
{
name = n;
},
{
alignment = -1;
name = apostrophemod;
transform = "{1, 0, 0, 1, -62, -37}";
}
);
layerId = "F1687A9F-F053-405E-AE0C-19A259C4FF7F";
width = 501;
}
);
leftKerningGroup = n;
rightKerningGroup = n;
unicode = 0149;
},
{
glyphname = eng;
layers = (
{
layerId = UUID0;
paths = (
{
closed = 1;
nodes = (
"309 -182 OFFCURVE",
"339 -125 OFFCURVE",
"350 -61 CURVE SMOOTH",
"411 400 LINE SMOOTH",
"422 479 OFFCURVE",
"387 538 OFFCURVE",
"300 538 CURVE SMOOTH",
"216 538 OFFCURVE",
"175 478 OFFCURVE",
"160 448 CURVE",
"160 526 LINE",
"96 526 LINE",
"22 0 LINE",
"104 0 LINE",
"145 294 LINE SMOOTH",
"159 395 OFFCURVE",
"203 465 OFFCURVE",
"270 465 CURVE SMOOTH",
"309 465 OFFCURVE",
"335 442 OFFCURVE",
"329 397 CURVE SMOOTH",
"267 -65 LINE SMOOTH",
"263 -96 OFFCURVE",
"246 -113 OFFCURVE",
"215 -113 CURVE SMOOTH",
"171 -113 LINE",
"163 -170 LINE",
"179 -176 OFFCURVE",
"206 -182 OFFCURVE",
"230 -182 CURVE SMOOTH"
);
}
);
width = 456;
},
{
background = {
paths = (
{
closed = 1;
nodes = (
"359 -182 OFFCURVE",
"395 -111 OFFCURVE",
"405 -41 CURVE SMOOTH",
"458 331 OFFCURVE",
"463 376 OFFCURVE",
"463 403 CURVE SMOOTH",
"463 487 OFFCURVE",
"420 538 OFFCURVE",
"336 538 CURVE SMOOTH",
"268 538 OFFCURVE",
"224 502 OFFCURVE",
"193 456 CURVE",
"193 526 LINE",
"96 526 LINE",
"23 0 LINE",
"142 0 LINE",
"185 316 LINE SMOOTH",
"195 389 OFFCURVE",
"237 429 OFFCURVE",
"283 429 CURVE SMOOTH",
"324 429 OFFCURVE",
"341 409 OFFCURVE",
"341 363 CURVE SMOOTH",
"341 355 OFFCURVE",
"338 312 OFFCURVE",
"287 -33 CURVE SMOOTH",
"282 -64 OFFCURVE",
"265 -81 OFFCURVE",
"234 -81 CURVE SMOOTH",
"191 -81 LINE",
"179 -170 LINE",
"198 -176 OFFCURVE",
"235 -182 OFFCURVE",
"265 -182 CURVE SMOOTH"
);
}
);
};
layerId = "F1687A9F-F053-405E-AE0C-19A259C4FF7F";
paths = (
{
closed = 1;
nodes = (
"359 -182 OFFCURVE",
"395 -111 OFFCURVE",
"405 -41 CURVE SMOOTH",
"459 373 LINE SMOOTH",
"474 486 OFFCURVE",
"420 538 OFFCURVE",
"336 538 CURVE SMOOTH",
"268 538 OFFCURVE",
"224 502 OFFCURVE",
"193 456 CURVE",
"193 526 LINE",
"96 526 LINE",
"23 0 LINE",
"142 0 LINE",
"185 316 LINE SMOOTH",
"195 389 OFFCURVE",
"237 429 OFFCURVE",
"283 429 CURVE SMOOTH",
"324 429 OFFCURVE",
"347 409 OFFCURVE",
"341 363 CURVE SMOOTH",
"287 -33 LINE SMOOTH",
"282 -64 OFFCURVE",
"265 -81 OFFCURVE",
"234 -81 CURVE SMOOTH",
"191 -81 LINE",
"179 -170 LINE",
"198 -176 OFFCURVE",
"235 -182 OFFCURVE",
"265 -182 CURVE SMOOTH"
);
}
);
width = 501;
}
);
leftKerningGroup = n;
rightKerningGroup = j;
unicode = 014B;
},
{
glyphname = nhookleft;
layers = (
{
background = {
paths = (
{
closed = 1;
nodes = (
"30 63 LINE",
"21 -9 OFFCURVE",
"13 -65 OFFCURVE",
"13 -65 CURVE",
"10 -96 OFFCURVE",
"-8 -113 OFFCURVE",
"-39 -113 CURVE SMOOTH",
"-83 -113 LINE",
"-91 -170 LINE",
"-75 -176 OFFCURVE",
"-48 -182 OFFCURVE",
"-24 -182 CURVE SMOOTH",
"55 -182 OFFCURVE",
"85 -125 OFFCURVE",
"96 -61 CURVE",
"96 -61 OFFCURVE",
"104 -8 OFFCURVE",
"113 63 CURVE"
);
},
{
closed = 1;
nodes = (
"367 63 LINE",
"386 200 OFFCURVE",
"414 402 OFFCURVE",
"414 420 CURVE SMOOTH",
"414 480 OFFCURVE",
"387 538 OFFCURVE",
"300 538 CURVE SMOOTH",
"216 538 OFFCURVE",
"175 478 OFFCURVE",
"160 448 CURVE",
"160 526 LINE",
"96 526 LINE",
"22 0 LINE",
"104 0 LINE",
"145 294 LINE SMOOTH",
"159 395 OFFCURVE",
"203 465 OFFCURVE",
"270 465 CURVE SMOOTH",
"309 465 OFFCURVE",
"329 442 OFFCURVE",
"329 397 CURVE SMOOTH",
"329 393 OFFCURVE",
"303 199 OFFCURVE",
"284 63 CURVE"
);
}
);
};
layerId = UUID0;
paths = (
{
closed = 1;
nodes = (
"-75 -176 OFFCURVE",
"-48 -182 OFFCURVE",
"-24 -182 CURVE SMOOTH",
"55 -182 OFFCURVE",
"85 -125 OFFCURVE",
"96 -61 CURVE SMOOTH",
"145 294 LINE SMOOTH",
"159 395 OFFCURVE",
"203 465 OFFCURVE",
"270 465 CURVE SMOOTH",
"309 465 OFFCURVE",
"335 442 OFFCURVE",
"329 397 CURVE SMOOTH",
"275 1 LINE",
"358 1 LINE",
"413 410 LINE SMOOTH",
"422 479 OFFCURVE",
"387 538 OFFCURVE",
"300 538 CURVE SMOOTH",
"216 538 OFFCURVE",
"175 478 OFFCURVE",
"160 448 CURVE",
"160 526 LINE",
"96 526 LINE",
"13 -65 LINE SMOOTH",
"10 -96 OFFCURVE",
"-8 -113 OFFCURVE",
"-39 -113 CURVE SMOOTH",
"-83 -113 LINE",
"-91 -170 LINE"
);
}
);
width = 456;
},
{
background = {
paths = (
{
closed = 1;
nodes = (
"40 121 LINE",
"18 -33 LINE SMOOTH",
"14 -64 OFFCURVE",
"-4 -81 OFFCURVE",
"-35 -81 CURVE SMOOTH",
"-78 -81 LINE",
"-90 -170 LINE",
"-71 -176 OFFCURVE",
"-34 -182 OFFCURVE",
"-4 -182 CURVE SMOOTH",
"90 -182 OFFCURVE",
"126 -111 OFFCURVE",
"136 -41 CURVE SMOOTH",
"159 121 LINE"
);
},
{
closed = 1;
nodes = (
"428 121 LINE",
"463 403 LINE",
"463 487 OFFCURVE",
"420 538 OFFCURVE",
"336 538 CURVE SMOOTH",
"268 538 OFFCURVE",
"224 502 OFFCURVE",
"193 456 CURVE",
"193 526 LINE",
"96 526 LINE",
"23 0 LINE",
"142 0 LINE",
"185 316 LINE SMOOTH",
"195 389 OFFCURVE",
"237 429 OFFCURVE",
"283 429 CURVE SMOOTH",
"324 429 OFFCURVE",
"341 409 OFFCURVE",
"341 363 CURVE",
"309 121 LINE"
);
}
);
};
layerId = "F1687A9F-F053-405E-AE0C-19A259C4FF7F";
paths = (
{
closed = 1;
nodes = (
"-71 -176 OFFCURVE",
"-34 -182 OFFCURVE",
"-4 -182 CURVE SMOOTH",
"90 -182 OFFCURVE",
"126 -111 OFFCURVE",
"136 -41 CURVE",
"185 316 LINE SMOOTH",
"195 389 OFFCURVE",
"237 429 OFFCURVE",
"283 429 CURVE SMOOTH",
"324 429 OFFCURVE",
"347 409 OFFCURVE",
"340 353 CURVE SMOOTH",
"294 0 LINE",
"413 0 LINE",
"460 383 LINE SMOOTH",
"473 486 OFFCURVE",
"420 538 OFFCURVE",
"336 538 CURVE SMOOTH",
"268 538 OFFCURVE",
"224 502 OFFCURVE",
"193 456 CURVE",
"193 526 LINE",
"96 526 LINE",
"18 -33 LINE",
"14 -64 OFFCURVE",
"-4 -81 OFFCURVE",
"-35 -81 CURVE SMOOTH",
"-78 -81 LINE",
"-90 -170 LINE"
);
}
);
width = 501;
}
);
leftKerningGroup = nhookleft;
rightKerningGroup = nhookleft;
unicode = 0272;
},
{
glyphname = o;
layers = (
{
anchors = (
{
name = bottom;
position = "{191, 0}";
},
{
name = center;
position = "{228, 263}";
},
{
name = ogonek;
position = "{224, 0}";
},
{
name = top;
position = "{265, 526}";
},
{
name = topright;
position = "{293, 526}";
}
);
layerId = UUID0;
paths = (
{
closed = 1;
nodes = (
"381 -12 OFFCURVE",
"422 205 OFFCURVE",
"422 349 CURVE SMOOTH",
"422 478 OFFCURVE",
"364 538 OFFCURVE",
"256 538 CURVE SMOOTH",
"74 538 OFFCURVE",
"33 319 OFFCURVE",
"33 175 CURVE SMOOTH",
"33 47 OFFCURVE",
"91 -12 OFFCURVE",
"199 -12 CURVE SMOOTH"
);
},
{
closed = 1;
nodes = (
"142 61 OFFCURVE",
"118 102 OFFCURVE",
"118 186 CURVE SMOOTH",
"118 255 OFFCURVE",
"135 465 OFFCURVE",
"256 465 CURVE SMOOTH",
"310 465 OFFCURVE",
"337 425 OFFCURVE",
"337 348 CURVE SMOOTH",
"337 277 OFFCURVE",
"321 61 OFFCURVE",
"199 61 CURVE SMOOTH"
);
}
);
width = 456;
},
{
anchors = (
{
name = bottom;
position = "{214, 0}";
},
{
name = center;
position = "{251, 263}";
},
{
name = ogonek;
position = "{265, 0}";
},
{
name = top;
position = "{287, 526}";
},
{
name = topright;
position = "{308, 526}";
}
);
layerId = "F1687A9F-F053-405E-AE0C-19A259C4FF7F";
paths = (
{
closed = 1;
nodes = (
"421 -12 OFFCURVE",
"465 188 OFFCURVE",
"465 343 CURVE SMOOTH",
"465 474 OFFCURVE",
"401 538 OFFCURVE",
"279 538 CURVE SMOOTH",
"80 538 OFFCURVE",
"36 335 OFFCURVE",
"36 180 CURVE SMOOTH",
"36 49 OFFCURVE",
"100 -12 OFFCURVE",
"222 -12 CURVE SMOOTH"
);
},
{
closed = 1;
nodes = (
"179 89 OFFCURVE",
"159 121 OFFCURVE",
"159 183 CURVE SMOOTH",
"159 221 OFFCURVE",
"165 437 OFFCURVE",
"275 437 CURVE SMOOTH",
"322 437 OFFCURVE",
"342 404 OFFCURVE",
"342 343 CURVE SMOOTH",
"342 305 OFFCURVE",
"336 89 OFFCURVE",
"226 89 CURVE"
);
}
);
width = 501;
}
);
leftKerningGroup = o;
rightKerningGroup = o;
unicode = 006F;
},
{
glyphname = oslash;
layers = (
{
anchors = (
{
name = top;
position = "{263, 526}";
}
);
components = (
{
name = o;
},
{
name = slashlongcomb;
transform = "{1, 0, 0, 1, 74, 0}";
}
);
layerId = UUID0;
width = 456;
},
{
anchors = (
{
name = top;
position = "{286, 526}";
}
);
background = {
paths = (
{
closed = 1;
nodes = (
"111 -32 LINE",
"132 3 LINE",
"157 -7 OFFCURVE",
"187 -12 OFFCURVE",
"222 -12 CURVE SMOOTH",
"421 -12 OFFCURVE",
"465 188 OFFCURVE",
"465 343 CURVE SMOOTH",
"465 405 OFFCURVE",
"450 452 OFFCURVE",
"422 485 CURVE",
"466 558 LINE",
"391 558 LINE",
"369 522 LINE",
"344 532 OFFCURVE",
"314 538 OFFCURVE",
"279 538 CURVE SMOOTH",
"80 538 OFFCURVE",
"36 335 OFFCURVE",
"36 180 CURVE SMOOTH",
"36 117 OFFCURVE",
"50 70 OFFCURVE",
"79 39 CURVE",
"36 -32 LINE"
);
},
{
closed = 1;
nodes = (
"211 89 OFFCURVE",
"199 92 OFFCURVE",
"189 98 CURVE",
"342 352 LINE",
"342 349 OFFCURVE",
"342 346 OFFCURVE",
"342 343 CURVE SMOOTH",
"342 305 OFFCURVE",
"336 89 OFFCURVE",
"226 89 CURVE SMOOTH"
);
},
{
closed = 1;
nodes = (
"159 176 OFFCURVE",
"159 179 OFFCURVE",
"159 183 CURVE SMOOTH",
"159 221 OFFCURVE",
"165 437 OFFCURVE",
"275 437 CURVE SMOOTH",
"290 437 OFFCURVE",
"302 433 OFFCURVE",
"312 427 CURVE",
"159 172 LINE"
);
}
);
};
components = (
{
name = o;
},
{
name = slashlongcomb;
transform = "{1, 0, 0, 1, 77, 0}";
}
);
layerId = "F1687A9F-F053-405E-AE0C-19A259C4FF7F";
width = 501;
}
);
leftKerningGroup = o;
rightKerningGroup = o;
unicode = 00F8;
},
{
glyphname = oe;
layers = (
{
anchors = (
{
name = top;
position = "{387, 526}";
}
);
layerId = UUID0;
paths = (
{
closed = 1;
nodes = (
"281 -12 OFFCURVE",
"329 19 OFFCURVE",
"363 66 CURVE",
"390 13 OFFCURVE",
"441 -12 OFFCURVE",
"511 -12 CURVE SMOOTH",
"623 -12 OFFCURVE",
"689 76 OFFCURVE",
"705 178 CURVE",
"622 178 LINE",
"613 115 OFFCURVE",
"570 61 OFFCURVE",
"511 61 CURVE SMOOTH",
"454 61 OFFCURVE",
"426 102 OFFCURVE",
"426 186 CURVE SMOOTH",
"426 199 OFFCURVE",
"427 218 OFFCURVE",
"429 239 CURVE",
"718 239 LINE",
"724 277 OFFCURVE",
"726 315 OFFCURVE",
"726 349 CURVE SMOOTH",
"726 478 OFFCURVE",
"669 538 OFFCURVE",
"564 538 CURVE SMOOTH",
"495 538 OFFCURVE",
"446 508 OFFCURVE",
"412 462 CURVE",
"386 513 OFFCURVE",
"338 538 OFFCURVE",
"269 538 CURVE SMOOTH",
"87 538 OFFCURVE",
"46 319 OFFCURVE",
"46 175 CURVE SMOOTH",
"46 47 OFFCURVE",
"104 -12 OFFCURVE",
"212 -12 CURVE SMOOTH"
);
},
{
closed = 1;
nodes = (
"155 61 OFFCURVE",
"131 102 OFFCURVE",
"131 186 CURVE SMOOTH",
"131 255 OFFCURVE",
"148 465 OFFCURVE",
"269 465 CURVE SMOOTH",
"323 465 OFFCURVE",
"350 425 OFFCURVE",
"350 348 CURVE SMOOTH",
"350 277 OFFCURVE",
"334 61 OFFCURVE",
"212 61 CURVE SMOOTH"
);
},
{
closed = 1;
nodes = (
"455 388 OFFCURVE",
"491 465 OFFCURVE",
"564 465 CURVE SMOOTH",
"615 465 OFFCURVE",
"641 425 OFFCURVE",
"641 348 CURVE SMOOTH",
"641 339 OFFCURVE",
"641 325 OFFCURVE",
"640 312 CURVE",
"439 312 LINE"
);
}
);
width = 774;
},
{
anchors = (
{
name = top;
position = "{436, 526}";
}
);
layerId = "F1687A9F-F053-405E-AE0C-19A259C4FF7F";
paths = (
{
closed = 1;
nodes = (
"290 -12 OFFCURVE",
"339 11 OFFCURVE",
"374 47 CURVE",
"402 7 OFFCURVE",
"448 -12 OFFCURVE",
"511 -12 CURVE SMOOTH",
"635 -12 OFFCURVE",
"691 77 OFFCURVE",
"715 182 CURVE",
"592 182 LINE",
"581 130 OFFCURVE",
"556 85 OFFCURVE",
"516 85 CURVE SMOOTH",
"476 85 OFFCURVE",
"461 119 OFFCURVE",
"461 187 CURVE SMOOTH",
"461 194 OFFCURVE",
"461 212 OFFCURVE",
"463 233 CURVE",
"726 233 LINE",
"734 275 OFFCURVE",
"737 320 OFFCURVE",
"737 359 CURVE SMOOTH",
"737 479 OFFCURVE",
"682 538 OFFCURVE",
"574 538 CURVE SMOOTH",
"511 538 OFFCURVE",
"464 514 OFFCURVE",
"429 477 CURVE",
"398 518 OFFCURVE",
"349 538 OFFCURVE",
"283 538 CURVE SMOOTH",
"84 538 OFFCURVE",
"40 335 OFFCURVE",
"40 180 CURVE SMOOTH",
"40 49 OFFCURVE",
"104 -12 OFFCURVE",
"226 -12 CURVE SMOOTH"
);
},
{
closed = 1;
nodes = (
"183 89 OFFCURVE",
"163 121 OFFCURVE",
"163 183 CURVE SMOOTH",
"163 221 OFFCURVE",
"169 437 OFFCURVE",
"279 437 CURVE SMOOTH",
"326 437 OFFCURVE",
"346 404 OFFCURVE",
"346 343 CURVE SMOOTH",
"346 305 OFFCURVE",
"340 89 OFFCURVE",
"230 89 CURVE SMOOTH"
);
},
{
closed = 1;
nodes = (
"490 382 OFFCURVE",
"517 441 OFFCURVE",
"567 441 CURVE SMOOTH",
"603 441 OFFCURVE",
"616 412 OFFCURVE",
"616 359 CURVE SMOOTH",
"616 354 OFFCURVE",
"616 349 OFFCURVE",
"614 320 CURVE",
"476 320 LINE"
);
}
);
width = 774;
}
);
leftKerningGroup = o;
rightKerningGroup = e;
unicode = 0153;
},
{
glyphname = p;
layers = (
{
layerId = UUID0;
paths = (
{
closed = 1;
nodes = (
"81 -182 LINE",
"115 58 LINE",
"138 8 OFFCURVE",
"176 -12 OFFCURVE",
"220 -12 CURVE SMOOTH",
"318 -12 OFFCURVE",
"423 102 OFFCURVE",
"423 343 CURVE SMOOTH",
"423 478 OFFCURVE",
"367 538 OFFCURVE",
"290 538 CURVE SMOOTH",
"242 538 OFFCURVE",
"198 512 OFFCURVE",
"163 455 CURVE",
"163 526 LINE",
"98 526 LINE",
"-1 -182 LINE"
);
},
{
closed = 1;
nodes = (
"159 61 OFFCURVE",
"135 99 OFFCURVE",
"135 174 CURVE SMOOTH",
"135 254 OFFCURVE",
"161 465 OFFCURVE",
"265 465 CURVE SMOOTH",
"314 465 OFFCURVE",
"339 427 OFFCURVE",
"339 351 CURVE SMOOTH",
"339 265 OFFCURVE",
"315 61 OFFCURVE",
"208 61 CURVE SMOOTH"
);
}
);
width = 456;
},
{
layerId = "F1687A9F-F053-405E-AE0C-19A259C4FF7F";
paths = (
{
closed = 1;
nodes = (
"118 -172 LINE",
"150 57 LINE",
"171 13 OFFCURVE",
"206 -12 OFFCURVE",
"262 -12 CURVE SMOOTH",
"365 -12 OFFCURVE",
"468 98 OFFCURVE",
"468 352 CURVE SMOOTH",
"468 475 OFFCURVE",
"415 538 OFFCURVE",
"325 538 CURVE SMOOTH",
"276 538 OFFCURVE",
"229 513 OFFCURVE",
"193 449 CURVE",
"193 526 LINE",
"96 526 LINE",
"0 -172 LINE"
);
},
{
closed = 1;
nodes = (
"190 97 OFFCURVE",
"172 130 OFFCURVE",
"172 188 CURVE SMOOTH",
"172 262 OFFCURVE",
"190 429 OFFCURVE",
"284 429 CURVE SMOOTH",
"330 429 OFFCURVE",
"347 398 OFFCURVE",
"347 340 CURVE SMOOTH",
"347 269 OFFCURVE",
"333 97 OFFCURVE",
"237 97 CURVE SMOOTH"
);
}
);
width = 501;
}
);
leftKerningGroup = n;
rightKerningGroup = o;
unicode = 0070;
},
{
glyphname = thorn;
layers = (
{
layerId = UUID0;
paths = (
{
closed = 1;
nodes = (
"81 -182 LINE",
"115 58 LINE",
"138 8 OFFCURVE",
"176 -12 OFFCURVE",
"220 -12 CURVE SMOOTH",
"318 -12 OFFCURVE",
"423 102 OFFCURVE",
"423 343 CURVE SMOOTH",
"423 478 OFFCURVE",
"367 538 OFFCURVE",
"290 538 CURVE SMOOTH",
"245 538 OFFCURVE",
"203 515 OFFCURVE",
"170 466 CURVE",
"207 723 LINE",
"125 723 LINE",
"-1 -182 LINE"
);
},
{
closed = 1;
nodes = (
"159 61 OFFCURVE",
"135 99 OFFCURVE",
"135 174 CURVE SMOOTH",
"135 254 OFFCURVE",
"161 465 OFFCURVE",
"265 465 CURVE SMOOTH",
"314 465 OFFCURVE",
"339 427 OFFCURVE",
"339 351 CURVE SMOOTH",
"339 265 OFFCURVE",
"315 61 OFFCURVE",
"208 61 CURVE SMOOTH"
);
}
);
width = 456;
},
{
layerId = "F1687A9F-F053-405E-AE0C-19A259C4FF7F";
paths = (
{
closed = 1;
nodes = (
"118 -172 LINE",
"150 57 LINE",
"171 13 OFFCURVE",
"206 -12 OFFCURVE",
"262 -12 CURVE SMOOTH",
"365 -12 OFFCURVE",
"468 98 OFFCURVE",
"468 352 CURVE SMOOTH",
"468 475 OFFCURVE",
"415 538 OFFCURVE",
"325 538 CURVE SMOOTH",
"282 538 OFFCURVE",
"241 518 OFFCURVE",
"207 471 CURVE",
"242 723 LINE",
"123 723 LINE",
"0 -172 LINE"
);
},
{
closed = 1;
nodes = (
"190 97 OFFCURVE",
"172 130 OFFCURVE",
"172 188 CURVE SMOOTH",
"172 262 OFFCURVE",
"190 429 OFFCURVE",
"284 429 CURVE SMOOTH",
"330 429 OFFCURVE",
"347 398 OFFCURVE",
"347 340 CURVE SMOOTH",
"347 269 OFFCURVE",
"333 97 OFFCURVE",
"237 97 CURVE SMOOTH"
);
}
);
width = 501;
}
);
leftKerningGroup = I;
rightKerningGroup = o;
unicode = 00FE;
},
{
glyphname = q;
layers = (
{
background = {
paths = (
{
closed = 1;
nodes = (
"138 538 OFFCURVE",
"33 424 OFFCURVE",
"33 183 CURVE SMOOTH",
"33 48 OFFCURVE",
"89 -12 OFFCURVE",
"166 -12 CURVE SMOOTH",
"212 -12 OFFCURVE",
"247 10 OFFCURVE",
"284 60 CURVE",
"252 -173 LINE",
"334 -173 LINE",
"432 526 LINE",
"390 526 LINE",
"349 453 LINE",
"328 518 OFFCURVE",
"286 538 OFFCURVE",
"236 538 CURVE SMOOTH"
);
},
{
closed = 1;
nodes = (
"297 465 OFFCURVE",
"321 427 OFFCURVE",
"321 352 CURVE SMOOTH",
"321 272 OFFCURVE",
"295 61 OFFCURVE",
"191 61 CURVE SMOOTH",
"142 61 OFFCURVE",
"117 99 OFFCURVE",
"117 175 CURVE SMOOTH",
"117 261 OFFCURVE",
"141 465 OFFCURVE",
"248 465 CURVE SMOOTH"
);
}
);
};
layerId = UUID0;
paths = (
{
closed = 1;
nodes = (
"334 -173 LINE",
"432 526 LINE",
"367 526 LINE",
"349 453 LINE",
"328 518 OFFCURVE",
"286 538 OFFCURVE",
"236 538 CURVE SMOOTH",
"138 538 OFFCURVE",
"33 424 OFFCURVE",
"33 183 CURVE SMOOTH",
"33 48 OFFCURVE",
"89 -12 OFFCURVE",
"166 -12 CURVE SMOOTH",
"212 -12 OFFCURVE",
"247 10 OFFCURVE",
"284 60 CURVE",
"252 -173 LINE"
);
},
{
closed = 1;
nodes = (
"142 61 OFFCURVE",
"117 99 OFFCURVE",
"117 175 CURVE SMOOTH",
"117 261 OFFCURVE",
"141 465 OFFCURVE",
"248 465 CURVE SMOOTH",
"297 465 OFFCURVE",
"321 427 OFFCURVE",
"321 352 CURVE SMOOTH",
"321 272 OFFCURVE",
"295 61 OFFCURVE",
"191 61 CURVE SMOOTH"
);
}
);
width = 456;
},
{
background = {
paths = (
{
closed = 1;
nodes = (
"221 -12 OFFCURVE",
"267 12 OFFCURVE",
"295 52 CURVE",
"265 -172 LINE",
"384 -172 LINE",
"480 526 LINE",
"406 526 LINE",
"363 456 LINE",
"340 513 OFFCURVE",
"296 538 OFFCURVE",
"241 538 CURVE SMOOTH",
"82 538 OFFCURVE",
"36 312 OFFCURVE",
"36 177 CURVE SMOOTH",
"36 46 OFFCURVE",
"91 -12 OFFCURVE",
"171 -12 CURVE SMOOTH"
);
},
{
closed = 1;
nodes = (
"175 97 OFFCURVE",
"158 128 OFFCURVE",
"158 186 CURVE SMOOTH",
"158 257 OFFCURVE",
"172 429 OFFCURVE",
"268 429 CURVE SMOOTH",
"314 429 OFFCURVE",
"333 396 OFFCURVE",
"333 338 CURVE SMOOTH",
"333 264 OFFCURVE",
"314 97 OFFCURVE",
"220 97 CURVE SMOOTH"
);
}
);
};
layerId = "F1687A9F-F053-405E-AE0C-19A259C4FF7F";
paths = (
{
closed = 1;
nodes = (
"384 -172 LINE",
"480 526 LINE",
"386 526 LINE",
"363 456 LINE",
"340 513 OFFCURVE",
"296 538 OFFCURVE",
"241 538 CURVE SMOOTH",
"82 538 OFFCURVE",
"36 312 OFFCURVE",
"36 177 CURVE SMOOTH",
"36 46 OFFCURVE",
"91 -12 OFFCURVE",
"171 -12 CURVE SMOOTH",
"221 -12 OFFCURVE",
"267 12 OFFCURVE",
"295 52 CURVE",
"265 -172 LINE"
);
},
{
closed = 1;
nodes = (
"175 97 OFFCURVE",
"158 128 OFFCURVE",
"158 186 CURVE SMOOTH",
"158 257 OFFCURVE",
"172 429 OFFCURVE",
"268 429 CURVE SMOOTH",
"314 429 OFFCURVE",
"333 396 OFFCURVE",
"333 338 CURVE SMOOTH",
"333 264 OFFCURVE",
"314 97 OFFCURVE",
"220 97 CURVE SMOOTH"
);
}
);
width = 501;
}
);
leftKerningGroup = o;
rightKerningGroup = q;
unicode = 0071;
},
{
glyphname = r;
layers = (
{
anchors = (
{
name = bottom;
position = "{57, 0}";
},
{
name = top;
position = "{192, 526}";
}
);
layerId = UUID0;
paths = (
{
closed = 1;
nodes = (
"98 0 LINE",
"141 304 LINE",
"154 397 OFFCURVE",
"206 445 OFFCURVE",
"258 445 CURVE SMOOTH",
"285 445 LINE",
"297 530 LINE",
"297 530 OFFCURVE",
"281 538 OFFCURVE",
"259 538 CURVE SMOOTH",
"199 538 OFFCURVE",
"173 482 OFFCURVE",
"154 442 CURVE",
"154 526 LINE",
"90 526 LINE",
"16 0 LINE"
);
}
);
width = 273;
},
{
anchors = (
{
name = bottom;
position = "{80, 0}";
},
{
name = top;
position = "{219, 526}";
}
);
layerId = "F1687A9F-F053-405E-AE0C-19A259C4FF7F";
paths = (
{
closed = 1;
nodes = (
"141 0 LINE",
"182 293 LINE SMOOTH",
"195 386 OFFCURVE",
"244 414 OFFCURVE",
"296 414 CURVE SMOOTH",
"334 414 LINE",
"349 530 LINE",
"349 530 OFFCURVE",
"332 538 OFFCURVE",
"301 538 CURVE SMOOTH",
"246 538 OFFCURVE",
"214 489 OFFCURVE",
"193 446 CURVE",
"193 526 LINE",
"96 526 LINE",
"23 0 LINE"
);
}
);
width = 319;
}
);
leftKerningGroup = n;
rightKerningGroup = r;
unicode = 0072;
},
{
glyphname = s;
layers = (
{
anchors = (
{
name = bottom;
position = "{177, 0}";
},
{
name = top;
position = "{240, 526}";
}
);
layerId = UUID0;
paths = (
{
closed = 1;
nodes = (
"289 -12 OFFCURVE",
"355 47 OFFCURVE",
"355 148 CURVE SMOOTH",
"355 318 OFFCURVE",
"155 282 OFFCURVE",
"155 402 CURVE SMOOTH",
"155 444 OFFCURVE",
"194 466 OFFCURVE",
"223 466 CURVE SMOOTH",
"260 466 OFFCURVE",
"297 445 OFFCURVE",
"297 373 CURVE",
"382 373 LINE",
"382 458 OFFCURVE",
"339 538 OFFCURVE",
"232 538 CURVE SMOOTH",
"125 538 OFFCURVE",
"70 473 OFFCURVE",
"70 390 CURVE SMOOTH",
"70 233 OFFCURVE",
"270 253 OFFCURVE",
"270 135 CURVE SMOOTH",
"270 94 OFFCURVE",
"240 60 OFFCURVE",
"194 60 CURVE SMOOTH",
"146 60 OFFCURVE",
"105 88 OFFCURVE",
"105 150 CURVE SMOOTH",
"105 160 OFFCURVE",
"106 171 OFFCURVE",
"108 182 CURVE",
"23 182 LINE",
"21 171 OFFCURVE",
"21 160 OFFCURVE",
"21 150 CURVE SMOOTH",
"21 51 OFFCURVE",
"95 -12 OFFCURVE",
"186 -12 CURVE SMOOTH"
);
}
);
width = 410;
},
{
anchors = (
{
name = bottom;
position = "{210, 0}";
},
{
name = top;
position = "{262, 526}";
}
);
layerId = "F1687A9F-F053-405E-AE0C-19A259C4FF7F";
paths = (
{
closed = 1;
nodes = (
"316 -12 OFFCURVE",
"412 37 OFFCURVE",
"412 165 CURVE SMOOTH",
"412 343 OFFCURVE",
"194 291 OFFCURVE",
"194 388 CURVE SMOOTH",
"194 420 OFFCURVE",
"221 440 OFFCURVE",
"252 440 CURVE SMOOTH",
"302 440 OFFCURVE",
"311 411 OFFCURVE",
"311 372 CURVE",
"432 372 LINE",
"432 457 OFFCURVE",
"394 538 OFFCURVE",
"264 538 CURVE SMOOTH",
"159 538 OFFCURVE",
"70 482 OFFCURVE",
"70 374 CURVE SMOOTH",
"70 192 OFFCURVE",
"285 244 OFFCURVE",
"285 140 CURVE SMOOTH",
"285 101 OFFCURVE",
"248 86 OFFCURVE",
"220 86 CURVE SMOOTH",
"182 86 OFFCURVE",
"146 99 OFFCURVE",
"146 146 CURVE SMOOTH",
"146 154 OFFCURVE",
"150 171 OFFCURVE",
"150 171 CURVE",
"28 171 LINE",
"28 171 OFFCURVE",
"22 147 OFFCURVE",
"22 124 CURVE SMOOTH",
"22 39 OFFCURVE",
"95 -12 OFFCURVE",
"212 -12 CURVE SMOOTH"
);
}
);
width = 456;
}
);
leftKerningGroup = s;
rightKerningGroup = s;
unicode = 0073;
},
{
glyphname = germandbls;
layers = (
{
layerId = UUID0;
paths = (
{
closed = 1;
nodes = (
"99 0 LINE",
"172 518 LINE SMOOTH",
"185 613 OFFCURVE",
"238 662 OFFCURVE",
"309 662 CURVE SMOOTH",
"371 662 OFFCURVE",
"403 626 OFFCURVE",
"403 569 CURVE SMOOTH",
"403 493 OFFCURVE",
"344 423 OFFCURVE",
"273 423 CURVE SMOOTH",
"214 423 LINE",
"204 350 LINE",
"271 350 LINE SMOOTH",
"334 350 OFFCURVE",
"377 300 OFFCURVE",
"377 235 CURVE SMOOTH",
"377 148 OFFCURVE",
"306 74 OFFCURVE",
"232 74 CURVE SMOOTH",
"165 74 LINE",
"155 0 LINE",
"240 0 LINE SMOOTH",
"366 0 OFFCURVE",
"462 121 OFFCURVE",
"462 240 CURVE SMOOTH",
"462 308 OFFCURVE",
"425 369 OFFCURVE",
"369 391 CURVE",
"369 395 LINE",
"440 421 OFFCURVE",
"488 503 OFFCURVE",
"488 580 CURVE SMOOTH",
"488 678 OFFCURVE",
"418 735 OFFCURVE",
"314 735 CURVE SMOOTH",
"205 735 OFFCURVE",
"110 672 OFFCURVE",
"89 516 CURVE",
"18 0 LINE"
);
}
);
width = 501;
},
{
layerId = "F1687A9F-F053-405E-AE0C-19A259C4FF7F";
paths = (
{
closed = 1;
nodes = (
"134 0 LINE",
"208 528 LINE SMOOTH",
"217 596 OFFCURVE",
"257 634 OFFCURVE",
"311 634 CURVE SMOOTH",
"357 634 OFFCURVE",
"380 604 OFFCURVE",
"380 560 CURVE SMOOTH",
"380 495 OFFCURVE",
"334 437 OFFCURVE",
"291 437 CURVE SMOOTH",
"242 437 LINE",
"226 324 LINE",
"278 324 LINE SMOOTH",
"323 324 OFFCURVE",
"355 282 OFFCURVE",
"355 228 CURVE SMOOTH",
"355 162 OFFCURVE",
"302 102 OFFCURVE",
"247 102 CURVE SMOOTH",
"196 102 LINE",
"182 0 LINE",
"256 0 LINE SMOOTH",
"382 0 OFFCURVE",
"476 117 OFFCURVE",
"476 230 CURVE SMOOTH",
"476 303 OFFCURVE",
"440 368 OFFCURVE",
"384 391 CURVE",
"384 395 LINE",
"453 420 OFFCURVE",
"502 496 OFFCURVE",
"502 569 CURVE SMOOTH",
"502 674 OFFCURVE",
"428 735 OFFCURVE",
"319 735 CURVE SMOOTH",
"206 735 OFFCURVE",
"109 673 OFFCURVE",
"88 520 CURVE SMOOTH",
"17 0 LINE"
);
}
);
width = 501;
}
);
leftKerningGroup = I;
rightKerningGroup = germandbls;
unicode = 00DF;
},
{
glyphname = longs;
layers = (
{
layerId = UUID0;
paths = (
{
closed = 1;
nodes = (
"57 -182 OFFCURVE",
"90 -121 OFFCURVE",
"98 -61 CURVE",
"188 614 LINE SMOOTH",
"192 645 OFFCURVE",
"211 662 OFFCURVE",
"242 662 CURVE SMOOTH",
"286 662 LINE",
"294 719 LINE",
"278 725 OFFCURVE",
"251 731 OFFCURVE",
"227 731 CURVE SMOOTH",
"147 731 OFFCURVE",
"114 670 OFFCURVE",
"106 610 CURVE",
"94 526 LINE",
"48 526 LINE",
"38 453 LINE",
"84 453 LINE",
"16 -65 LINE SMOOTH",
"12 -96 OFFCURVE",
"-6 -113 OFFCURVE",
"-37 -113 CURVE SMOOTH",
"-81 -113 LINE",
"-89 -170 LINE",
"-73 -176 OFFCURVE",
"-46 -182 OFFCURVE",
"-22 -182 CURVE SMOOTH"
);
}
);
width = 182;
},
{
layerId = "F1687A9F-F053-405E-AE0C-19A259C4FF7F";
paths = (
{
closed = 1;
nodes = (
"94 -182 OFFCURVE",
"131 -111 OFFCURVE",
"140 -41 CURVE SMOOTH",
"224 587 LINE SMOOTH",
"228 615 OFFCURVE",
"245 630 OFFCURVE",
"272 630 CURVE SMOOTH",
"320 630 LINE",
"333 719 LINE",
"314 725 OFFCURVE",
"276 731 OFFCURVE",
"249 731 CURVE SMOOTH",
"154 731 OFFCURVE",
"116 660 OFFCURVE",
"106 590 CURVE SMOOTH",
"97 526 LINE",
"45 526 LINE",
"31 425 LINE",
"83 425 LINE",
"23 -33 LINE",
"19 -64 OFFCURVE",
"2 -81 OFFCURVE",
"-28 -81 CURVE SMOOTH",
"-72 -81 LINE",
"-85 -170 LINE",
"-65 -176 OFFCURVE",
"-28 -182 OFFCURVE",
"1 -182 CURVE SMOOTH"
);
}
);
width = 228;
}
);
leftKerningGroup = longs;
rightKerningGroup = longs;
unicode = 017F;
},
{
glyphname = t;
layers = (
{
anchors = (
{
name = bottom;
position = "{109, 0}";
},
{
name = center;
position = "{102, 263}";
},
{
name = top;
position = "{143, 526}";
},
{
name = topright;
position = "{216, 546}";
}
);
layerId = UUID0;
paths = (
{
closed = 1;
nodes = (
"135 -10 OFFCURVE",
"160 -4 OFFCURVE",
"176 4 CURVE",
"184 61 LINE",
"155 61 LINE SMOOTH",
"130 61 OFFCURVE",
"118 74 OFFCURVE",
"118 98 CURVE SMOOTH",
"118 110 OFFCURVE",
"168 453 OFFCURVE",
"168 453 CURVE",
"239 453 LINE",
"249 526 LINE",
"178 526 LINE",
"199 672 LINE",
"132 672 LINE",
"96 526 LINE",
"51 526 LINE",
"41 453 LINE",
"86 453 LINE",
"86 453 OFFCURVE",
"34 101 OFFCURVE",
"34 75 CURVE SMOOTH",
"34 30 OFFCURVE",
"54 -10 OFFCURVE",
"115 -10 CURVE SMOOTH"
);
}
);
width = 228;
},
{
anchors = (
{
name = bottom;
position = "{134, 0}";
},
{
name = center;
position = "{137, 263}";
},
{
name = top;
position = "{163, 526}";
},
{
name = topright;
position = "{251, 546}";
}
);
layerId = "F1687A9F-F053-405E-AE0C-19A259C4FF7F";
paths = (
{
closed = 1;
nodes = (
"171 -12 OFFCURVE",
"204 -6 OFFCURVE",
"221 0 CURVE",
"233 89 LINE",
"200 89 LINE SMOOTH",
"176 89 OFFCURVE",
"164 100 OFFCURVE",
"164 122 CURVE SMOOTH",
"164 131 OFFCURVE",
"206 425 OFFCURVE",
"206 425 CURVE",
"281 425 LINE",
"295 526 LINE",
"219 526 LINE",
"241 674 LINE",
"141 674 LINE",
"101 526 LINE",
"48 526 LINE",
"34 425 LINE",
"87 425 LINE",
"87 425 OFFCURVE",
"42 121 OFFCURVE",
"42 96 CURVE SMOOTH",
"42 38 OFFCURVE",
"68 -12 OFFCURVE",
"148 -12 CURVE SMOOTH"
);
}
);
width = 273;
}
);
leftKerningGroup = t;
rightKerningGroup = t;
unicode = 0074;
},
{
glyphname = tbar;
layers = (
{
background = {
paths = (
{
closed = 1;
nodes = (
"135 -10 OFFCURVE",
"160 -4 OFFCURVE",
"176 4 CURVE",
"184 61 LINE",
"155 61 LINE SMOOTH",
"130 61 OFFCURVE",
"118 74 OFFCURVE",
"118 98 CURVE SMOOTH",
"118 104 OFFCURVE",
"131 193 OFFCURVE",
"143 281 CURVE",
"209 281 LINE",
"220 353 LINE",
"153 353 LINE",
"168 453 LINE",
"239 453 LINE",
"249 526 LINE",
"178 526 LINE",
"199 672 LINE",
"132 672 LINE",
"96 526 LINE",
"51 526 LINE",
"41 453 LINE",
"86 453 LINE",
"71 353 LINE",
"29 353 LINE",
"19 281 LINE",
"61 281 LINE",
"48 188 OFFCURVE",
"34 88 OFFCURVE",
"34 75 CURVE SMOOTH",
"34 30 OFFCURVE",
"54 -10 OFFCURVE",
"115 -10 CURVE SMOOTH"
);
}
);
};
layerId = UUID0;
paths = (
{
closed = 1;
nodes = (
"135 -10 OFFCURVE",
"160 -4 OFFCURVE",
"176 4 CURVE",
"184 61 LINE",
"155 61 LINE SMOOTH",
"130 61 OFFCURVE",
"118 74 OFFCURVE",
"118 98 CURVE SMOOTH",
"118 104 OFFCURVE",
"131 193 OFFCURVE",
"143 281 CURVE",
"210 281 LINE",
"219 349 LINE",
"153 349 LINE",
"168 453 LINE",
"239 453 LINE",
"249 526 LINE",
"178 526 LINE",
"199 672 LINE",
"132 672 LINE",
"96 526 LINE",
"51 526 LINE",
"41 453 LINE",
"86 453 LINE",
"71 349 LINE",
"28 349 LINE",
"18 281 LINE",
"61 281 LINE",
"48 188 OFFCURVE",
"34 88 OFFCURVE",
"34 75 CURVE SMOOTH",
"34 30 OFFCURVE",
"54 -10 OFFCURVE",
"115 -10 CURVE SMOOTH"
);
}
);
width = 228;
},
{
layerId = "F1687A9F-F053-405E-AE0C-19A259C4FF7F";
paths = (
{
closed = 1;
nodes = (
"171 -12 OFFCURVE",
"204 -6 OFFCURVE",
"221 0 CURVE",
"233 89 LINE",
"200 89 LINE SMOOTH",
"176 89 OFFCURVE",
"164 100 OFFCURVE",
"164 122 CURVE SMOOTH",
"164 126 OFFCURVE",
"173 192 OFFCURVE",
"183 262 CURVE",
"252 262 LINE",
"265 349 LINE",
"195 349 LINE",
"206 425 LINE",
"281 425 LINE",
"295 526 LINE",
"219 526 LINE",
"241 674 LINE",
"141 674 LINE",
"101 526 LINE",
"48 526 LINE",
"34 425 LINE",
"87 425 LINE",
"76 349 LINE",
"22 349 LINE",
"9 262 LINE",
"63 262 LINE",
"52 186 OFFCURVE",
"42 108 OFFCURVE",
"42 96 CURVE SMOOTH",
"42 38 OFFCURVE",
"68 -12 OFFCURVE",
"148 -12 CURVE SMOOTH"
);
}
);
width = 273;
}
);
leftKerningGroup = t;
rightKerningGroup = t;
unicode = 0167;
},
{
glyphname = tcaron;
layers = (
{
background = {
paths = (
{
closed = 1;
nodes = (
"331 454 LINE",
"395 587 LINE",
"408 686 LINE",
"309 686 LINE",
"293 578 LINE",
"327 578 LINE",
"275 454 LINE"
);
},
{
closed = 1;
nodes = (
"135 -10 OFFCURVE",
"160 -4 OFFCURVE",
"176 4 CURVE",
"184 61 LINE",
"155 61 LINE SMOOTH",
"130 61 OFFCURVE",
"118 74 OFFCURVE",
"118 98 CURVE SMOOTH",
"118 110 OFFCURVE",
"168 453 OFFCURVE",
"168 453 CURVE",
"239 453 LINE",
"249 526 LINE",
"178 526 LINE",
"199 672 LINE",
"132 672 LINE",
"96 526 LINE",
"51 526 LINE",
"41 453 LINE",
"86 453 LINE",
"86 453 OFFCURVE",
"34 101 OFFCURVE",
"34 75 CURVE SMOOTH",
"34 30 OFFCURVE",
"54 -10 OFFCURVE",
"115 -10 CURVE SMOOTH"
);
}
);
};
components = (
{
name = t;
},
{
name = caroncomb.alt;
transform = "{1, 0, 0, 1, 179, 20}";
}
);
layerId = UUID0;
width = 228;
},
{
background = {
paths = (
{
closed = 1;
nodes = (
"395 425 LINE",
"469 561 LINE",
"486 686 LINE",
"348 686 LINE",
"329 549 LINE",
"380 549 LINE",
"322 425 LINE"
);
},
{
closed = 1;
nodes = (
"171 -12 OFFCURVE",
"204 -6 OFFCURVE",
"221 0 CURVE",
"233 89 LINE",
"200 89 LINE SMOOTH",
"176 89 OFFCURVE",
"164 100 OFFCURVE",
"164 122 CURVE SMOOTH",
"164 131 OFFCURVE",
"206 425 OFFCURVE",
"206 425 CURVE",
"281 425 LINE",
"295 526 LINE",
"219 526 LINE",
"241 674 LINE",
"141 674 LINE",
"101 526 LINE",
"48 526 LINE",
"34 425 LINE",
"87 425 LINE",
"87 425 OFFCURVE",
"42 121 OFFCURVE",
"42 96 CURVE SMOOTH",
"42 38 OFFCURVE",
"68 -12 OFFCURVE",
"148 -12 CURVE SMOOTH"
);
}
);
};
components = (
{
name = t;
},
{
name = caroncomb.alt;
transform = "{1, 0, 0, 1, 214, 20}";
}
);
layerId = "F1687A9F-F053-405E-AE0C-19A259C4FF7F";
width = 273;
}
);
leftKerningGroup = t;
rightKerningGroup = dcaron;
unicode = 0165;
},
{
glyphname = u;
layers = (
{
anchors = (
{
name = bottom;
position = "{191, 0}";
},
{
name = ogonek;
position = "{360, 0}";
},
{
name = top;
position = "{265, 526}";
},
{
name = topright;
position = "{352, 526}";
}
);
layerId = UUID0;
paths = (
{
closed = 1;
nodes = (
"240 -12 OFFCURVE",
"281 47 OFFCURVE",
"296 77 CURVE",
"296 0 LINE",
"360 0 LINE",
"434 526 LINE",
"352 526 LINE",
"311 232 LINE SMOOTH",
"297 131 OFFCURVE",
"253 61 OFFCURVE",
"186 61 CURVE SMOOTH",
"147 61 OFFCURVE",
"126 80 OFFCURVE",
"126 125 CURVE SMOOTH",
"126 157 OFFCURVE",
"180 526 OFFCURVE",
"180 526 CURVE",
"98 526 LINE",
"98 526 OFFCURVE",
"42 138 OFFCURVE",
"42 106 CURVE SMOOTH",
"42 46 OFFCURVE",
"69 -12 OFFCURVE",
"156 -12 CURVE SMOOTH"
);
}
);
width = 456;
},
{
anchors = (
{
name = bottom;
position = "{214, 0}";
},
{
name = ogonek;
position = "{405, 0}";
},
{
name = top;
position = "{283, 526}";
},
{
name = topright;
position = "{369, 526}";
}
);
layerId = "F1687A9F-F053-405E-AE0C-19A259C4FF7F";
paths = (
{
closed = 1;
nodes = (
"231 -12 OFFCURVE",
"275 23 OFFCURVE",
"307 68 CURVE",
"307 0 LINE",
"405 0 LINE",
"478 526 LINE",
"359 526 LINE",
"316 210 LINE SMOOTH",
"306 137 OFFCURVE",
"264 97 OFFCURVE",
"218 97 CURVE SMOOTH",
"177 97 OFFCURVE",
"160 117 OFFCURVE",
"160 163 CURVE SMOOTH",
"160 171 OFFCURVE",
"162 180 OFFCURVE",
"209 526 CURVE",
"91 526 LINE",
"41 154 OFFCURVE",
"38 150 OFFCURVE",
"38 123 CURVE SMOOTH",
"38 39 OFFCURVE",
"81 -12 OFFCURVE",
"165 -12 CURVE SMOOTH"
);
}
);
width = 501;
}
);
leftKerningGroup = u;
rightKerningGroup = u;
unicode = 0075;
},
{
glyphname = v;
layers = (
{
layerId = UUID0;
paths = (
{
closed = 1;
nodes = (
"213 0 LINE",
"447 526 LINE",
"359 526 LINE",
"242 242 LINE",
"225 201 OFFCURVE",
"208 160 OFFCURVE",
"191 119 CURVE",
"187 119 LINE",
"182 160 OFFCURVE",
"176 202 OFFCURVE",
"171 243 CURVE",
"133 526 LINE",
"46 526 LINE",
"124 0 LINE"
);
}
);
width = 410;
},
{
layerId = "F1687A9F-F053-405E-AE0C-19A259C4FF7F";
paths = (
{
closed = 1;
nodes = (
"254 0 LINE",
"493 526 LINE",
"372 526 LINE",
"275 300 LINE SMOOTH",
"255 254 OFFCURVE",
"219 142 OFFCURVE",
"219 142 CURVE",
"215 142 LINE",
"215 142 OFFCURVE",
"206 260 OFFCURVE",
"200 300 CURVE SMOOTH",
"163 526 LINE",
"44 526 LINE",
"133 0 LINE"
);
}
);
width = 456;
}
);
leftKerningGroup = v;
rightKerningGroup = v;
unicode = 0076;
},
{
glyphname = w;
layers = (
{
anchors = (
{
name = top;
position = "{338, 526}";
}
);
layerId = UUID0;
paths = (
{
closed = 1;
nodes = (
"193 0 LINE",
"290 300 LINE SMOOTH",
"308 355 OFFCURVE",
"323 438 OFFCURVE",
"323 438 CURVE",
"327 438 LINE",
"327 438 OFFCURVE",
"323 384 OFFCURVE",
"323 342 CURVE",
"337 0 LINE",
"428 0 LINE",
"632 526 LINE",
"555 526 LINE",
"444 230 LINE",
"422 170 OFFCURVE",
"407 93 OFFCURVE",
"407 93 CURVE",
"403 93 LINE",
"403 194 OFFCURVE",
"403 218 OFFCURVE",
"402 230 CURVE",
"388 526 LINE",
"290 526 LINE",
"196 230 LINE",
"179 176 OFFCURVE",
"165 93 OFFCURVE",
"165 93 CURVE",
"161 93 LINE",
"160 142 OFFCURVE",
"155 201 OFFCURVE",
"152 230 CURVE SMOOTH",
"122 526 LINE",
"43 526 LINE",
"101 0 LINE"
);
}
);
width = 592;
},
{
anchors = (
{
name = top;
position = "{360, 526}";
}
);
layerId = "F1687A9F-F053-405E-AE0C-19A259C4FF7F";
paths = (
{
closed = 1;
nodes = (
"216 0 LINE",
"302 252 LINE SMOOTH",
"321 309 OFFCURVE",
"327 389 OFFCURVE",
"327 389 CURVE",
"333 389 LINE",
"333 389 OFFCURVE",
"335 306 OFFCURVE",
"339 251 CURVE SMOOTH",
"356 0 LINE",
"474 0 LINE",
"673 526 LINE",
"566 526 LINE",
"492 307 LINE SMOOTH",
"471 247 OFFCURVE",
"443 137 OFFCURVE",
"443 137 CURVE",
"439 137 LINE",
"439 137 OFFCURVE",
"438 255 OFFCURVE",
"435 307 CURVE SMOOTH",
"422 526 LINE",
"302 526 LINE",
"227 308 LINE SMOOTH",
"201 230 OFFCURVE",
"186 137 OFFCURVE",
"186 137 CURVE",
"182 137 LINE",
"182 137 OFFCURVE",
"179 235 OFFCURVE",
"173 309 CURVE SMOOTH",
"155 526 LINE",
"42 526 LINE",
"97 0 LINE"
);
}
);
width = 638;
}
);
leftKerningGroup = v;
rightKerningGroup = v;
unicode = 0077;
},
{
glyphname = x;
layers = (
{
layerId = UUID0;
paths = (
{
closed = 1;
nodes = (
"69 0 LINE",
"197 190 LINE",
"198 190 LINE",
"275 0 LINE",
"370 0 LINE",
"253 269 LINE",
"436 526 LINE",
"338 526 LINE",
"220 349 LINE",
"219 349 LINE",
"147 526 LINE",
"52 526 LINE",
"164 270 LINE",
"-27 0 LINE"
);
}
);
width = 410;
},
{
layerId = "F1687A9F-F053-405E-AE0C-19A259C4FF7F";
paths = (
{
closed = 1;
nodes = (
"102 0 LINE",
"216 169 LINE",
"221 169 LINE",
"286 0 LINE",
"415 0 LINE",
"297 272 LINE",
"479 526 LINE",
"350 526 LINE",
"251 377 LINE",
"246 377 LINE",
"188 526 LINE",
"59 526 LINE",
"170 272 LINE",
"-25 0 LINE"
);
}
);
width = 456;
}
);
leftKerningGroup = x;
rightKerningGroup = x;
unicode = 0078;
},
{
glyphname = y;
layers = (
{
anchors = (
{
name = bottom;
position = "{293, 0}";
},
{
name = top;
position = "{247, 526}";
}
);
layerId = UUID0;
paths = (
{
closed = 1;
nodes = (
"127 -182 OFFCURVE",
"185 -87 OFFCURVE",
"234 27 CURVE SMOOTH",
"448 526 LINE",
"360 526 LINE",
"238 209 LINE",
"225 175 OFFCURVE",
"211 140 OFFCURVE",
"198 106 CURVE",
"194 106 LINE",
"189 140 OFFCURVE",
"184 175 OFFCURVE",
"179 209 CURVE",
"134 526 LINE",
"47 526 LINE",
"134 0 LINE",
"103 -90 OFFCURVE",
"58 -117 OFFCURVE",
"14 -117 CURVE SMOOTH",
"-14 -117 LINE",
"-22 -174 LINE",
"-7 -180 OFFCURVE",
"12 -182 OFFCURVE",
"35 -182 CURVE SMOOTH"
);
}
);
width = 410;
},
{
anchors = (
{
name = bottom;
position = "{351, 0}";
},
{
name = top;
position = "{272, 526}";
}
);
layerId = "F1687A9F-F053-405E-AE0C-19A259C4FF7F";
paths = (
{
closed = 1;
nodes = (
"168 -182 OFFCURVE",
"232 -87 OFFCURVE",
"281 27 CURVE SMOOTH",
"492 526 LINE",
"374 526 LINE",
"275 278 LINE SMOOTH",
"257 233 OFFCURVE",
"231 142 OFFCURVE",
"231 142 CURVE",
"227 142 LINE",
"227 142 OFFCURVE",
"220 239 OFFCURVE",
"213 279 CURVE SMOOTH",
"169 526 LINE",
"49 526 LINE",
"149 0 LINE",
"127 -58 OFFCURVE",
"92 -81 OFFCURVE",
"58 -81 CURVE SMOOTH",
"4 -81 LINE",
"-7 -173 LINE",
"-7 -174 OFFCURVE",
"20 -182 OFFCURVE",
"68 -182 CURVE SMOOTH"
);
}
);
width = 456;
}
);
leftKerningGroup = y;
rightKerningGroup = y;
unicode = 0079;
},
{
glyphname = z;
layers = (
{
anchors = (
{
name = top;
position = "{250, 526}";
}
);
layerId = UUID0;
paths = (
{
closed = 1;
nodes = (
"356 0 LINE",
"366 73 LINE",
"126 73 LINE",
"411 488 LINE",
"414 526 LINE",
"88 526 LINE",
"78 453 LINE",
"289 453 LINE",
"5 39 LINE",
"2 0 LINE"
);
}
);
width = 410;
},
{
anchors = (
{
name = top;
position = "{229, 526}";
}
);
layerId = "F1687A9F-F053-405E-AE0C-19A259C4FF7F";
paths = (
{
closed = 1;
nodes = (
"354 0 LINE",
"368 101 LINE",
"162 101 LINE",
"413 476 LINE",
"417 526 LINE",
"68 526 LINE",
"54 425 LINE",
"241 425 LINE",
"-8 51 LINE",
"-12 0 LINE"
);
}
);
width = 410;
}
);
leftKerningGroup = z;
rightKerningGroup = z;
unicode = 007A;
},
{
glyphname = y.loclGUA;
layers = (
{
anchors = (
{
name = bottom;
position = "{197, 0}";
},
{
name = top;
position = "{271, 526}";
}
);
layerId = UUID0;
paths = (
{
closed = 1;
nodes = (
"297 -182 OFFCURVE",
"358 -98 OFFCURVE",
"381 63 CURVE SMOOTH",
"446 526 LINE",
"358 526 LINE",
"314 213 LINE SMOOTH",
"303 134 OFFCURVE",
"259 81 OFFCURVE",
"207 81 CURVE SMOOTH",
"154 81 OFFCURVE",
"128 115 OFFCURVE",
"139 193 CURVE SMOOTH",
"186 526 LINE",
"98 526 LINE",
"50 187 LINE SMOOTH",
"32 57 OFFCURVE",
"90 8 OFFCURVE",
"186 8 CURVE SMOOTH",
"225 8 OFFCURVE",
"263 31 OFFCURVE",
"288 80 CURVE",
"296 80 LINE",
"293 59 LINE SMOOTH",
"277 -55 OFFCURVE",
"244 -110 OFFCURVE",
"187 -110 CURVE SMOOTH",
"141 -110 OFFCURVE",
"102 -86 OFFCURVE",
"108 -25 CURVE",
"22 -25 LINE",
"21 -35 LINE SMOOTH",
"11 -135 OFFCURVE",
"81 -182 OFFCURVE",
"180 -182 CURVE SMOOTH"
);
}
);
width = 468;
},
{
anchors = (
{
name = bottom;
position = "{214, 0}";
},
{
name = top;
position = "{288, 526}";
}
);
layerId = "F1687A9F-F053-405E-AE0C-19A259C4FF7F";
paths = (
{
closed = 1;
nodes = (
"316 -182 OFFCURVE",
"395 -100 OFFCURVE",
"414 63 CURVE SMOOTH",
"479 526 LINE",
"359 526 LINE",
"319 243 LINE SMOOTH",
"309 174 OFFCURVE",
"276 119 OFFCURVE",
"220 119 CURVE SMOOTH",
"179 119 OFFCURVE",
"158 151 OFFCURVE",
"167 208 CURVE SMOOTH",
"211 526 LINE",
"91 526 LINE",
"45 197 LINE SMOOTH",
"26 64 OFFCURVE",
"91 15 OFFCURVE",
"172 15 CURVE SMOOTH",
"236 15 OFFCURVE",
"271 41 OFFCURVE",
"297 82 CURVE",
"302 82 LINE",
"298 59 LINE SMOOTH",
"281 -39 OFFCURVE",
"253 -84 OFFCURVE",
"194 -84 CURVE SMOOTH",
"158 -84 OFFCURVE",
"126 -69 OFFCURVE",
"131 -25 CURVE",
"14 -25 LINE",
"13 -35 LINE SMOOTH",
"4 -135 OFFCURVE",
"73 -182 OFFCURVE",
"182 -182 CURVE SMOOTH"
);
}
);
width = 501;
}
);
leftKerningGroup = y.loclGUA;
rightKerningGroup = y.loclGUA;
},
{
glyphname = fi;
layers = (
{
background = {
paths = (
{
closed = 1;
nodes = (
"57 -182 OFFCURVE",
"90 -121 OFFCURVE",
"98 -61 CURVE",
"166 453 LINE",
"257 453 LINE",
"267 526 LINE",
"176 526 LINE",
"188 614 LINE",
"192 645 OFFCURVE",
"211 662 OFFCURVE",
"242 662 CURVE SMOOTH",
"286 662 LINE",
"294 719 LINE",
"278 725 OFFCURVE",
"251 731 OFFCURVE",
"227 731 CURVE SMOOTH",
"147 731 OFFCURVE",
"114 670 OFFCURVE",
"106 610 CURVE",
"94 526 LINE",
"48 526 LINE",
"38 453 LINE",
"84 453 LINE",
"16 -65 LINE SMOOTH",
"12 -96 OFFCURVE",
"-6 -113 OFFCURVE",
"-37 -113 CURVE SMOOTH",
"-81 -113 LINE",
"-89 -170 LINE",
"-73 -176 OFFCURVE",
"-46 -182 OFFCURVE",
"-22 -182 CURVE SMOOTH"
);
},
{
closed = 1;
nodes = (
"325 0 LINE",
"399 526 LINE",
"317 526 LINE",
"244 0 LINE"
);
},
{
closed = 1;
nodes = (
"413 625 LINE",
"426 723 LINE",
"344 723 LINE",
"331 625 LINE"
);
}
);
};
components = (
{
name = f;
},
{
name = i;
transform = "{1, 0, 0, 1, 228, 0}";
}
);
layerId = UUID0;
width = 456;
},
{
background = {
paths = (
{
closed = 1;
nodes = (
"94 -182 OFFCURVE",
"131 -111 OFFCURVE",
"140 -41 CURVE SMOOTH",
"202 425 LINE",
"292 425 LINE",
"306 526 LINE",
"216 526 LINE",
"224 587 LINE SMOOTH",
"228 615 OFFCURVE",
"245 630 OFFCURVE",
"272 630 CURVE SMOOTH",
"320 630 LINE",
"333 719 LINE",
"314 725 OFFCURVE",
"276 731 OFFCURVE",
"249 731 CURVE SMOOTH",
"154 731 OFFCURVE",
"116 660 OFFCURVE",
"106 590 CURVE SMOOTH",
"97 526 LINE",
"45 526 LINE",
"31 425 LINE",
"83 425 LINE",
"23 -33 LINE",
"19 -64 OFFCURVE",
"2 -81 OFFCURVE",
"-28 -81 CURVE SMOOTH",
"-72 -81 LINE",
"-85 -170 LINE",
"-65 -176 OFFCURVE",
"-28 -182 OFFCURVE",
"1 -182 CURVE SMOOTH"
);
},
{
closed = 1;
nodes = (
"415 0 LINE",
"488 526 LINE",
"369 526 LINE",
"296 0 LINE"
);
},
{
closed = 1;
nodes = (
"500 614 LINE",
"515 723 LINE",
"396 723 LINE",
"381 614 LINE"
);
}
);
};
components = (
{
name = f;
},
{
name = i;
transform = "{1, 0, 0, 1, 273, 0}";
}
);
layerId = "F1687A9F-F053-405E-AE0C-19A259C4FF7F";
width = 501;
}
);
leftKerningGroup = f;
rightKerningGroup = i;
unicode = FB01;
},
{
glyphname = fl;
layers = (
{
background = {
paths = (
{
closed = 1;
nodes = (
"57 -182 OFFCURVE",
"90 -121 OFFCURVE",
"98 -61 CURVE",
"166 453 LINE",
"257 453 LINE",
"267 526 LINE",
"176 526 LINE",
"188 614 LINE",
"192 645 OFFCURVE",
"211 662 OFFCURVE",
"242 662 CURVE SMOOTH",
"286 662 LINE",
"294 719 LINE",
"278 725 OFFCURVE",
"251 731 OFFCURVE",
"227 731 CURVE SMOOTH",
"147 731 OFFCURVE",
"114 670 OFFCURVE",
"106 610 CURVE",
"94 526 LINE",
"48 526 LINE",
"38 453 LINE",
"84 453 LINE",
"16 -65 LINE SMOOTH",
"12 -96 OFFCURVE",
"-6 -113 OFFCURVE",
"-37 -113 CURVE SMOOTH",
"-81 -113 LINE",
"-89 -170 LINE",
"-73 -176 OFFCURVE",
"-46 -182 OFFCURVE",
"-22 -182 CURVE SMOOTH"
);
},
{
closed = 1;
nodes = (
"325 0 LINE",
"426 723 LINE",
"344 723 LINE",
"244 0 LINE"
);
}
);
};
components = (
{
name = f;
},
{
name = l;
transform = "{1, 0, 0, 1, 228, 0}";
}
);
layerId = UUID0;
width = 410;
},
{
background = {
paths = (
{
closed = 1;
nodes = (
"94 -182 OFFCURVE",
"131 -111 OFFCURVE",
"140 -41 CURVE SMOOTH",
"202 425 LINE",
"292 425 LINE",
"306 526 LINE",
"216 526 LINE",
"224 587 LINE SMOOTH",
"228 615 OFFCURVE",
"245 630 OFFCURVE",
"272 630 CURVE SMOOTH",
"320 630 LINE",
"333 719 LINE",
"314 725 OFFCURVE",
"276 731 OFFCURVE",
"249 731 CURVE SMOOTH",
"154 731 OFFCURVE",
"116 660 OFFCURVE",
"106 590 CURVE SMOOTH",
"97 526 LINE",
"45 526 LINE",
"31 425 LINE",
"83 425 LINE",
"23 -33 LINE",
"19 -64 OFFCURVE",
"2 -81 OFFCURVE",
"-28 -81 CURVE SMOOTH",
"-72 -81 LINE",
"-85 -170 LINE",
"-65 -176 OFFCURVE",
"-28 -182 OFFCURVE",
"1 -182 CURVE SMOOTH"
);
},
{
closed = 1;
nodes = (
"413 0 LINE",
"513 723 LINE",
"394 723 LINE",
"294 0 LINE"
);
}
);
};
components = (
{
name = f;
},
{
name = l;
transform = "{1, 0, 0, 1, 273, 0}";
}
);
layerId = "F1687A9F-F053-405E-AE0C-19A259C4FF7F";
width = 501;
}
);
leftKerningGroup = f;
rightKerningGroup = l;
unicode = FB02;
},
{
glyphname = ordfeminine;
layers = (
{
layerId = UUID0;
paths = (
{
closed = 1;
nodes = (
"182 362 OFFCURVE",
"205 380 OFFCURVE",
"229 418 CURVE",
"230 378 OFFCURVE",
"251 362 OFFCURVE",
"283 362 CURVE SMOOTH",
"301 362 OFFCURVE",
"314 368 OFFCURVE",
"321 373 CURVE",
"326 412 LINE",
"305 412 LINE SMOOTH",
"296 412 OFFCURVE",
"288 417 OFFCURVE",
"288 431 CURVE SMOOTH",
"288 439 OFFCURVE",
"330 728 OFFCURVE",
"330 728 CURVE",
"301 728 LINE",
"268 678 LINE",
"256 722 OFFCURVE",
"230 736 OFFCURVE",
"199 736 CURVE SMOOTH",
"133 736 OFFCURVE",
"61 658 OFFCURVE",
"61 495 CURVE SMOOTH",
"61 403 OFFCURVE",
"99 362 OFFCURVE",
"152 362 CURVE SMOOTH"
);
},
{
closed = 1;
nodes = (
"138 416 OFFCURVE",
"123 440 OFFCURVE",
"123 489 CURVE SMOOTH",
"123 547 OFFCURVE",
"139 682 OFFCURVE",
"207 682 CURVE SMOOTH",
"236 682 OFFCURVE",
"249 658 OFFCURVE",
"249 610 CURVE SMOOTH",
"249 556 OFFCURVE",
"229 416 OFFCURVE",
"169 416 CURVE SMOOTH"
);
}
);
width = 303;
},
{
layerId = "F1687A9F-F053-405E-AE0C-19A259C4FF7F";
paths = (
{
closed = 1;
nodes = (
"190 362 OFFCURVE",
"219 376 OFFCURVE",
"237 409 CURVE",
"244 379 OFFCURVE",
"263 362 OFFCURVE",
"293 362 CURVE SMOOTH",
"312 362 OFFCURVE",
"324 368 OFFCURVE",
"333 373 CURVE",
"341 430 LINE",
"328 430 LINE SMOOTH",
"319 430 OFFCURVE",
"312 435 OFFCURVE",
"312 449 CURVE SMOOTH",
"312 456 OFFCURVE",
"354 724 OFFCURVE",
"354 724 CURVE",
"305 724 LINE",
"278 682 LINE",
"265 713 OFFCURVE",
"241 732 OFFCURVE",
"204 732 CURVE SMOOTH",
"137 732 OFFCURVE",
"70 658 OFFCURVE",
"70 487 CURVE SMOOTH",
"70 404 OFFCURVE",
"106 362 OFFCURVE",
"166 362 CURVE SMOOTH"
);
},
{
closed = 1;
nodes = (
"161 431 OFFCURVE",
"150 455 OFFCURVE",
"150 498 CURVE SMOOTH",
"150 537 OFFCURVE",
"164 663 OFFCURVE",
"219 663 CURVE SMOOTH",
"247 663 OFFCURVE",
"255 639 OFFCURVE",
"255 597 CURVE SMOOTH",
"255 547 OFFCURVE",
"243 431 OFFCURVE",
"186 431 CURVE SMOOTH"
);
}
);
width = 303;
}
);
leftKerningGroup = ordfeminine;
rightKerningGroup = ordfeminine;
unicode = 00AA;
},
{
glyphname = ordmasculine;
layers = (
{
layerId = UUID0;
paths = (
{
closed = 1;
nodes = (
"295 361 OFFCURVE",
"323 509 OFFCURVE",
"323 606 CURVE SMOOTH",
"323 694 OFFCURVE",
"283 735 OFFCURVE",
"210 735 CURVE SMOOTH",
"86 735 OFFCURVE",
"58 586 OFFCURVE",
"58 488 CURVE SMOOTH",
"58 401 OFFCURVE",
"97 361 OFFCURVE",
"171 361 CURVE SMOOTH"
);
},
{
closed = 1;
nodes = (
"136 415 OFFCURVE",
"121 442 OFFCURVE",
"121 496 CURVE SMOOTH",
"121 542 OFFCURVE",
"131 681 OFFCURVE",
"210 681 CURVE SMOOTH",
"243 681 OFFCURVE",
"260 655 OFFCURVE",
"260 606 CURVE SMOOTH",
"260 559 OFFCURVE",
"250 415 OFFCURVE",
"171 415 CURVE SMOOTH"
);
}
);
width = 299;
},
{
layerId = "F1687A9F-F053-405E-AE0C-19A259C4FF7F";
paths = (
{
closed = 1;
nodes = (
"314 363 OFFCURVE",
"344 497 OFFCURVE",
"344 602 CURVE SMOOTH",
"344 690 OFFCURVE",
"301 733 OFFCURVE",
"219 733 CURVE SMOOTH",
"85 733 OFFCURVE",
"55 596 OFFCURVE",
"55 492 CURVE SMOOTH",
"55 404 OFFCURVE",
"98 363 OFFCURVE",
"180 363 CURVE SMOOTH"
);
},
{
closed = 1;
nodes = (
"151 431 OFFCURVE",
"138 452 OFFCURVE",
"138 494 CURVE SMOOTH",
"138 520 OFFCURVE",
"142 665 OFFCURVE",
"216 665 CURVE SMOOTH",
"248 665 OFFCURVE",
"261 643 OFFCURVE",
"261 602 CURVE SMOOTH",
"261 576 OFFCURVE",
"257 431 OFFCURVE",
"183 431 CURVE"
);
}
);
width = 299;
}
);
leftKerningGroup = ordfeminine;
rightKerningGroup = ordfeminine;
unicode = 00BA;
},
{
glyphname = nmod;
layers = (
{
layerId = UUID0;
paths = (
{
closed = 1;
nodes = (
"117 369 LINE",
"145 569 LINE",
"154 636 OFFCURVE",
"183 681 OFFCURVE",
"225 681 CURVE SMOOTH",
"249 681 OFFCURVE",
"261 669 OFFCURVE",
"261 642 CURVE SMOOTH",
"261 620 OFFCURVE",
"224 369 OFFCURVE",
"224 369 CURVE",
"285 369 LINE",
"285 369 OFFCURVE",
"323 633 OFFCURVE",
"323 655 CURVE SMOOTH",
"323 695 OFFCURVE",
"305 735 OFFCURVE",
"246 735 CURVE SMOOTH",
"192 735 OFFCURVE",
"165 694 OFFCURVE",
"156 674 CURVE",
"156 727 LINE",
"107 727 LINE",
"57 369 LINE"
);
}
);
width = 299;
},
{
layerId = "F1687A9F-F053-405E-AE0C-19A259C4FF7F";
paths = (
{
closed = 1;
nodes = (
"159 369 LINE",
"188 582 LINE SMOOTH",
"195 631 OFFCURVE",
"223 658 OFFCURVE",
"254 658 CURVE SMOOTH",
"282 658 OFFCURVE",
"293 644 OFFCURVE",
"293 613 CURVE SMOOTH",
"293 608 OFFCURVE",
"292 602 OFFCURVE",
"260 369 CURVE",
"339 369 LINE",
"373 619 OFFCURVE",
"375 622 OFFCURVE",
"375 640 CURVE SMOOTH",
"375 697 OFFCURVE",
"346 731 OFFCURVE",
"290 731 CURVE SMOOTH",
"244 731 OFFCURVE",
"214 707 OFFCURVE",
"193 676 CURVE",
"193 723 LINE",
"128 723 LINE",
"79 369 LINE"
);
}
);
width = 325;
}
);
leftKerningGroup = nmod;
rightKerningGroup = nmod;
unicode = 207F;
},
{
glyphname = mu;
layers = (
{
background = {
paths = (
{
closed = 1;
nodes = (
"240 -12 OFFCURVE",
"281 47 OFFCURVE",
"296 77 CURVE",
"296 0 LINE",
"360 0 LINE",
"434 526 LINE",
"352 526 LINE",
"311 232 LINE SMOOTH",
"297 131 OFFCURVE",
"253 61 OFFCURVE",
"186 61 CURVE SMOOTH",
"147 61 OFFCURVE",
"126 80 OFFCURVE",
"126 125 CURVE SMOOTH",
"126 157 OFFCURVE",
"180 526 OFFCURVE",
"180 526 CURVE",
"98 526 LINE",
"98 526 OFFCURVE",
"42 138 OFFCURVE",
"42 106 CURVE SMOOTH",
"42 46 OFFCURVE",
"69 -12 OFFCURVE",
"156 -12 CURVE SMOOTH"
);
}
);
};
layerId = UUID0;
paths = (
{
closed = 1;
nodes = (
"82 -173 LINE",
"92 -101 OFFCURVE",
"101 -21 OFFCURVE",
"96 44 CURVE",
"78 26 LINE",
"94 -1 OFFCURVE",
"124 -13 OFFCURVE",
"156 -13 CURVE SMOOTH",
"211 -13 OFFCURVE",
"275 22 OFFCURVE",
"296 77 CURVE",
"298 0 LINE",
"360 0 LINE",
"434 526 LINE",
"352 526 LINE",
"311 233 LINE SMOOTH",
"297 131 OFFCURVE",
"253 61 OFFCURVE",
"186 61 CURVE SMOOTH",
"147 61 OFFCURVE",
"120 80 OFFCURVE",
"127 135 CURVE SMOOTH",
"180 526 LINE",
"98 526 LINE",
"0 -173 LINE"
);
}
);
width = 456;
},
{
background = {
paths = (
{
closed = 1;
nodes = (
"231 -12 OFFCURVE",
"275 23 OFFCURVE",
"307 68 CURVE",
"307 0 LINE",
"405 0 LINE",
"478 526 LINE",
"359 526 LINE",
"316 210 LINE SMOOTH",
"306 137 OFFCURVE",
"264 97 OFFCURVE",
"218 97 CURVE SMOOTH",
"177 97 OFFCURVE",
"160 117 OFFCURVE",
"160 163 CURVE SMOOTH",
"160 171 OFFCURVE",
"162 180 OFFCURVE",
"209 526 CURVE",
"91 526 LINE",
"41 154 OFFCURVE",
"38 150 OFFCURVE",
"38 123 CURVE SMOOTH",
"38 39 OFFCURVE",
"81 -12 OFFCURVE",
"165 -12 CURVE SMOOTH"
);
}
);
};
layerId = "F1687A9F-F053-405E-AE0C-19A259C4FF7F";
paths = (
{
closed = 1;
nodes = (
"113 -173 LINE",
"126 -94 OFFCURVE",
"132 3 OFFCURVE",
"125 54 CURVE",
"97 54 LINE",
"96 8 OFFCURVE",
"128 -12 OFFCURVE",
"168 -12 CURVE SMOOTH",
"215 -12 OFFCURVE",
"274 16 OFFCURVE",
"305 65 CURVE",
"308 0 LINE",
"405 0 LINE",
"479 526 LINE",
"362 526 LINE",
"318 210 LINE SMOOTH",
"308 137 OFFCURVE",
"266 97 OFFCURVE",
"218 97 CURVE SMOOTH",
"172 97 OFFCURVE",
"155 126 OFFCURVE",
"164 190 CURVE SMOOTH",
"211 526 LINE",
"91 526 LINE",
"-7 -173 LINE"
);
}
);
width = 501;
}
);
leftKerningGroup = p;
rightKerningGroup = u;
unicode = 03BC;
},
{
glyphname = pi;
layers = (
{
layerId = UUID0;
paths = (
{
closed = 1;
nodes = (
"118 0 LINE",
"162 89 OFFCURVE",
"222 324 OFFCURVE",
"246 453 CURVE",
"403 453 LINE",
"360 147 LINE SMOOTH",
"353 100 OFFCURVE",
"350 63 OFFCURVE",
"350 38 CURVE SMOOTH",
"350 19 OFFCURVE",
"352 7 OFFCURVE",
"355 0 CURVE",
"435 0 LINE",
"434 10 OFFCURVE",
"433 22 OFFCURVE",
"433 36 CURVE SMOOTH",
"433 64 OFFCURVE",
"435 102 OFFCURVE",
"443 156 CURVE SMOOTH",
"485 453 LINE",
"563 453 LINE",
"581 526 LINE",
"200 526 LINE SMOOTH",
"122 526 OFFCURVE",
"77 515 OFFCURVE",
"51 496 CURVE",
"55 440 LINE",
"78 449 OFFCURVE",
"108 453 OFFCURVE",
"164 453 CURVE",
"143 324 OFFCURVE",
"84 106 OFFCURVE",
"37 0 CURVE"
);
}
);
width = 549;
},
{
layerId = "F1687A9F-F053-405E-AE0C-19A259C4FF7F";
paths = (
{
closed = 1;
nodes = (
"137 0 LINE",
"179 83 OFFCURVE",
"236 305 OFFCURVE",
"259 425 CURVE",
"368 425 LINE",
"330 147 LINE SMOOTH",
"323 100 OFFCURVE",
"320 63 OFFCURVE",
"320 38 CURVE SMOOTH",
"320 19 OFFCURVE",
"322 7 OFFCURVE",
"325 0 CURVE",
"442 0 LINE",
"440 10 OFFCURVE",
"440 23 OFFCURVE",
"440 38 CURVE SMOOTH",
"440 65 OFFCURVE",
"441 103 OFFCURVE",
"449 156 CURVE SMOOTH",
"487 425 LINE",
"554 425 LINE",
"576 526 LINE",
"194 526 LINE SMOOTH",
"114 526 OFFCURVE",
"68 515 OFFCURVE",
"42 496 CURVE",
"42 412 LINE",
"64 421 OFFCURVE",
"85 425 OFFCURVE",
"141 425 CURVE",
"121 305 OFFCURVE",
"65 100 OFFCURVE",
"19 0 CURVE"
);
}
);
width = 584;
}
);
leftKerningGroup = pi;
rightKerningGroup = pi;
unicode = 03C0;
},
{
glyphname = zero;
layers = (
{
layerId = UUID0;
paths = (
{
closed = 1;
nodes = (
"311 -12 OFFCURVE",
"388 64 OFFCURVE",
"426 343 CURVE",
"434 400 OFFCURVE",
"438 448 OFFCURVE",
"438 489 CURVE SMOOTH",
"438 650 OFFCURVE",
"376 698 OFFCURVE",
"277 698 CURVE SMOOTH",
"163 698 OFFCURVE",
"87 622 OFFCURVE",
"50 343 CURVE SMOOTH",
"42 285 OFFCURVE",
"38 235 OFFCURVE",
"38 193 CURVE SMOOTH",
"38 36 OFFCURVE",
"99 -12 OFFCURVE",
"198 -12 CURVE SMOOTH"
);
},
{
closed = 1;
nodes = (
"137 61 OFFCURVE",
"119 117 OFFCURVE",
"119 201 CURVE SMOOTH",
"119 234 OFFCURVE",
"123 275 OFFCURVE",
"138 378 CURVE",
"158 521 OFFCURVE",
"196 625 OFFCURVE",
"277 625 CURVE SMOOTH",
"335 625 OFFCURVE",
"356 573 OFFCURVE",
"356 492 CURVE SMOOTH",
"356 459 OFFCURVE",
"351 420 OFFCURVE",
"337 308 CURVE",
"316 165 OFFCURVE",
"280 61 OFFCURVE",
"198 61 CURVE SMOOTH"
);
}
);
width = 456;
},
{
layerId = "F1687A9F-F053-405E-AE0C-19A259C4FF7F";
paths = (
{
closed = 1;
nodes = (
"318 -12 OFFCURVE",
"399 64 OFFCURVE",
"437 343 CURVE SMOOTH",
"445 398 OFFCURVE",
"448 445 OFFCURVE",
"448 485 CURVE SMOOTH",
"448 649 OFFCURVE",
"383 698 OFFCURVE",
"280 698 CURVE SMOOTH",
"162 698 OFFCURVE",
"82 622 OFFCURVE",
"45 343 CURVE SMOOTH",
"37 287 OFFCURVE",
"33 240 OFFCURVE",
"33 199 CURVE SMOOTH",
"33 37 OFFCURVE",
"97 -12 OFFCURVE",
"201 -12 CURVE SMOOTH"
);
},
{
closed = 1;
nodes = (
"166 89 OFFCURVE",
"151 117 OFFCURVE",
"151 177 CURVE SMOOTH",
"151 248 OFFCURVE",
"164 313 OFFCURVE",
"173 378 CURVE SMOOTH",
"193 528 OFFCURVE",
"216 597 OFFCURVE",
"276 597 CURVE SMOOTH",
"316 597 OFFCURVE",
"329 565 OFFCURVE",
"329 500 CURVE SMOOTH",
"329 468 OFFCURVE",
"325 428 OFFCURVE",
"308 308 CURVE",
"287 158 OFFCURVE",
"265 89 OFFCURVE",
"205 89 CURVE SMOOTH"
);
}
);
width = 456;
}
);
leftKerningGroup = zero;
rightKerningGroup = zero;
unicode = 0030;
},
{
glyphname = one;
layers = (
{
layerId = UUID0;
paths = (
{
closed = 1;
nodes = (
"398 0 LINE",
"409 73 LINE",
"259 73 LINE",
"345 686 LINE",
"313 686 LINE",
"243 648 OFFCURVE",
"145 619 OFFCURVE",
"88 613 CURVE",
"81 561 LINE",
"245 561 LINE",
"177 73 LINE",
"14 73 LINE",
"3 0 LINE"
);
}
);
width = 456;
},
{
layerId = "F1687A9F-F053-405E-AE0C-19A259C4FF7F";
paths = (
{
closed = 1;
nodes = (
"408 0 LINE",
"422 101 LINE",
"282 101 LINE",
"364 686 LINE",
"306 686 LINE",
"237 646 OFFCURVE",
"138 615 OFFCURVE",
"81 609 CURVE",
"70 529 LINE",
"224 529 LINE",
"163 101 LINE",
"11 101 LINE",
"-2 0 LINE"
);
}
);
width = 456;
}
);
leftKerningGroup = one;
rightKerningGroup = one;
unicode = 0031;
},
{
glyphname = two;
layers = (
{
layerId = UUID0;
paths = (
{
closed = 1;
nodes = (
"382 0 LINE",
"394 84 LINE",
"125 84 LINE",
"131 95 OFFCURVE",
"138 107 OFFCURVE",
"148 119 CURVE SMOOTH",
"247 244 OFFCURVE",
"455 364 OFFCURVE",
"455 555 CURVE SMOOTH",
"455 656 OFFCURVE",
"386 698 OFFCURVE",
"294 698 CURVE SMOOTH",
"152 698 OFFCURVE",
"82 584 OFFCURVE",
"82 450 CURVE",
"167 450 LINE",
"172 491 LINE",
"181 562 OFFCURVE",
"217 622 OFFCURVE",
"287 622 CURVE SMOOTH",
"349 622 OFFCURVE",
"367 581 OFFCURVE",
"367 541 CURVE SMOOTH",
"367 393 OFFCURVE",
"181 284 OFFCURVE",
"80 162 CURVE SMOOTH",
"43 117 OFFCURVE",
"20 67 OFFCURVE",
"12 13 CURVE",
"10 0 LINE"
);
}
);
width = 456;
},
{
layerId = "F1687A9F-F053-405E-AE0C-19A259C4FF7F";
paths = (
{
closed = 1;
nodes = (
"384 0 LINE",
"400 112 LINE",
"164 112 LINE",
"171 123 OFFCURVE",
"181 135 OFFCURVE",
"193 148 CURVE SMOOTH",
"278 237 OFFCURVE",
"457 365 OFFCURVE",
"457 550 CURVE",
"454 654 OFFCURVE",
"384 698 OFFCURVE",
"287 698 CURVE SMOOTH",
"144 698 OFFCURVE",
"68 582 OFFCURVE",
"68 450 CURVE",
"189 450 LINE",
"194 491 LINE SMOOTH",
"201 547 OFFCURVE",
"227 595 OFFCURVE",
"276 595 CURVE SMOOTH",
"317 595 OFFCURVE",
"331 564 OFFCURVE",
"331 535 CURVE SMOOTH",
"331 413 OFFCURVE",
"191 331 OFFCURVE",
"92 211 CURVE SMOOTH",
"48 158 OFFCURVE",
"12 98 OFFCURVE",
"0 24 CURVE SMOOTH",
"-4 0 LINE"
);
}
);
width = 456;
}
);
leftKerningGroup = two;
rightKerningGroup = two;
unicode = 0032;
},
{
glyphname = three;
layers = (
{
layerId = UUID0;
paths = (
{
closed = 1;
nodes = (
"313 -12 OFFCURVE",
"409 77 OFFCURVE",
"409 220 CURVE SMOOTH",
"409 290 OFFCURVE",
"376 333 OFFCURVE",
"329 352 CURVE",
"329 356 LINE",
"391 389 OFFCURVE",
"443 443 OFFCURVE",
"443 548 CURVE SMOOTH",
"443 645 OFFCURVE",
"380 698 OFFCURVE",
"282 698 CURVE SMOOTH",
"181 698 OFFCURVE",
"89 621 OFFCURVE",
"80 492 CURVE",
"164 492 LINE",
"178 586 OFFCURVE",
"223 625 OFFCURVE",
"278 625 CURVE SMOOTH",
"322 625 OFFCURVE",
"357 598 OFFCURVE",
"357 534 CURVE SMOOTH",
"357 433 OFFCURVE",
"297 385 OFFCURVE",
"239 385 CURVE SMOOTH",
"180 385 LINE",
"170 312 LINE",
"227 312 LINE SMOOTH",
"278 312 OFFCURVE",
"325 292 OFFCURVE",
"325 220 CURVE SMOOTH",
"325 109 OFFCURVE",
"265 61 OFFCURVE",
"200 61 CURVE SMOOTH",
"140 61 OFFCURVE",
"107 94 OFFCURVE",
"107 157 CURVE SMOOTH",
"107 163 OFFCURVE",
"107 179 OFFCURVE",
"111 202 CURVE",
"28 202 LINE",
"25 179 OFFCURVE",
"24 165 OFFCURVE",
"24 152 CURVE SMOOTH",
"24 51 OFFCURVE",
"84 -12 OFFCURVE",
"201 -12 CURVE SMOOTH"
);
}
);
width = 456;
},
{
layerId = "F1687A9F-F053-405E-AE0C-19A259C4FF7F";
paths = (
{
closed = 1;
nodes = (
"328 -12 OFFCURVE",
"425 77 OFFCURVE",
"425 220 CURVE SMOOTH",
"425 290 OFFCURVE",
"392 333 OFFCURVE",
"346 352 CURVE",
"346 356 LINE",
"407 388 OFFCURVE",
"458 440 OFFCURVE",
"458 542 CURVE SMOOTH",
"458 645 OFFCURVE",
"390 698 OFFCURVE",
"284 698 CURVE SMOOTH",
"180 698 OFFCURVE",
"91 624 OFFCURVE",
"79 482 CURVE",
"202 482 LINE",
"213 565 OFFCURVE",
"240 597 OFFCURVE",
"282 597 CURVE SMOOTH",
"314 597 OFFCURVE",
"333 577 OFFCURVE",
"333 533 CURVE SMOOTH",
"333 443 OFFCURVE",
"289 399 OFFCURVE",
"249 399 CURVE SMOOTH",
"214 399 LINE",
"200 298 LINE",
"233 298 LINE SMOOTH",
"270 298 OFFCURVE",
"301 281 OFFCURVE",
"301 221 CURVE SMOOTH",
"301 131 OFFCURVE",
"261 89 OFFCURVE",
"211 89 CURVE SMOOTH",
"169 89 OFFCURVE",
"148 116 OFFCURVE",
"148 163 CURVE SMOOTH",
"148 172 OFFCURVE",
"149 181 OFFCURVE",
"153 212 CURVE",
"29 212 LINE",
"25 180 OFFCURVE",
"24 167 OFFCURVE",
"24 154 CURVE SMOOTH",
"24 52 OFFCURVE",
"87 -12 OFFCURVE",
"209 -12 CURVE SMOOTH"
);
}
);
width = 456;
}
);
leftKerningGroup = three;
rightKerningGroup = three;
unicode = 0033;
},
{
glyphname = four;
layers = (
{
layerId = UUID0;
paths = (
{
closed = 1;
nodes = (
"333 0 LINE",
"357 169 LINE",
"427 169 LINE",
"437 242 LINE",
"367 242 LINE",
"417 596 LINE",
"377 596 LINE",
"357 543 OFFCURVE",
"343 507 OFFCURVE",
"316 458 CURVE",
"285 242 LINE",
"97 242 LINE",
"143 297 OFFCURVE",
"282 514 OFFCURVE",
"346 698 CURVE",
"263 698 LINE",
"201 542 OFFCURVE",
"111 374 OFFCURVE",
"21 243 CURVE",
"11 169 LINE",
"275 169 LINE",
"251 0 LINE"
);
}
);
width = 456;
},
{
layerId = "F1687A9F-F053-405E-AE0C-19A259C4FF7F";
paths = (
{
closed = 1;
nodes = (
"344 0 LINE",
"366 155 LINE",
"435 155 LINE",
"449 256 LINE",
"379 256 LINE",
"423 564 LINE",
"370 564 LINE",
"351 511 OFFCURVE",
"311 430 OFFCURVE",
"278 378 CURVE",
"261 256 LINE",
"119 256 LINE",
"165 310 OFFCURVE",
"306 520 OFFCURVE",
"369 698 CURVE",
"247 698 LINE",
"185 546 OFFCURVE",
"105 378 OFFCURVE",
"17 251 CURVE",
"3 155 LINE",
"247 155 LINE",
"225 0 LINE"
);
}
);
width = 456;
}
);
leftKerningGroup = four;
rightKerningGroup = four;
unicode = 0034;
},
{
glyphname = five;
layers = (
{
layerId = UUID0;
paths = (
{
closed = 1;
nodes = (
"322 -12 OFFCURVE",
"420 94 OFFCURVE",
"420 280 CURVE SMOOTH",
"420 392 OFFCURVE",
"361 446 OFFCURVE",
"280 446 CURVE SMOOTH",
"223 446 OFFCURVE",
"180 415 OFFCURVE",
"156 393 CURVE",
"199 602 LINE",
"440 602 LINE",
"452 686 LINE",
"140 686 LINE",
"63 306 LINE",
"139 293 LINE",
"166 340 OFFCURVE",
"208 372 OFFCURVE",
"252 372 CURVE SMOOTH",
"302 372 OFFCURVE",
"334 333 OFFCURVE",
"334 262 CURVE SMOOTH",
"334 125 OFFCURVE",
"264 60 OFFCURVE",
"202 60 CURVE SMOOTH",
"150 60 OFFCURVE",
"113 105 OFFCURVE",
"113 178 CURVE SMOOTH",
"113 189 OFFCURVE",
"114 201 OFFCURVE",
"116 213 CURVE",
"31 213 LINE",
"28 196 OFFCURVE",
"27 179 OFFCURVE",
"27 164 CURVE SMOOTH",
"27 53 OFFCURVE",
"93 -12 OFFCURVE",
"201 -12 CURVE SMOOTH"
);
}
);
width = 456;
},
{
layerId = "F1687A9F-F053-405E-AE0C-19A259C4FF7F";
paths = (
{
closed = 1;
nodes = (
"331 -12 OFFCURVE",
"432 94 OFFCURVE",
"432 278 CURVE SMOOTH",
"432 392 OFFCURVE",
"373 446 OFFCURVE",
"293 446 CURVE SMOOTH",
"246 446 OFFCURVE",
"213 428 OFFCURVE",
"191 412 CURVE",
"224 574 LINE",
"448 574 LINE",
"464 686 LINE",
"135 686 LINE",
"59 306 LINE",
"172 290 LINE",
"191 323 OFFCURVE",
"216 348 OFFCURVE",
"253 348 CURVE SMOOTH",
"285 348 OFFCURVE",
"308 317 OFFCURVE",
"308 260 CURVE SMOOTH",
"308 147 OFFCURVE",
"257 88 OFFCURVE",
"210 88 CURVE SMOOTH",
"170 88 OFFCURVE",
"148 122 OFFCURVE",
"148 177 CURVE SMOOTH",
"148 188 OFFCURVE",
"149 200 OFFCURVE",
"151 213 CURVE",
"27 213 LINE",
"25 197 OFFCURVE",
"24 182 OFFCURVE",
"24 168 CURVE SMOOTH",
"24 55 OFFCURVE",
"92 -12 OFFCURVE",
"205 -12 CURVE SMOOTH"
);
}
);
width = 456;
}
);
leftKerningGroup = five;
rightKerningGroup = five;
unicode = 0035;
},
{
glyphname = six;
layers = (
{
layerId = UUID0;
paths = (
{
closed = 1;
nodes = (
"320 -12 OFFCURVE",
"418 95 OFFCURVE",
"418 261 CURVE SMOOTH",
"418 359 OFFCURVE",
"373 431 OFFCURVE",
"274 431 CURVE SMOOTH",
"224 431 OFFCURVE",
"178 406 OFFCURVE",
"144 366 CURVE",
"168 525 OFFCURVE",
"203 625 OFFCURVE",
"289 625 CURVE SMOOTH",
"333 625 OFFCURVE",
"354 589 OFFCURVE",
"354 524 CURVE SMOOTH",
"354 509 OFFCURVE",
"352 493 OFFCURVE",
"350 475 CURVE",
"433 475 LINE",
"436 495 OFFCURVE",
"437 515 OFFCURVE",
"437 533 CURVE SMOOTH",
"437 630 OFFCURVE",
"395 698 OFFCURVE",
"293 698 CURVE SMOOTH",
"174 698 OFFCURVE",
"93 609 OFFCURVE",
"54 323 CURVE",
"47 275 OFFCURVE",
"44 233 OFFCURVE",
"44 197 CURVE SMOOTH",
"44 41 OFFCURVE",
"106 -12 OFFCURVE",
"209 -12 CURVE SMOOTH"
);
},
{
closed = 1;
nodes = (
"149 61 OFFCURVE",
"126 107 OFFCURVE",
"126 170 CURVE SMOOTH",
"126 269 OFFCURVE",
"172 359 OFFCURVE",
"251 359 CURVE SMOOTH",
"308 359 OFFCURVE",
"333 312 OFFCURVE",
"333 249 CURVE SMOOTH",
"333 177 OFFCURVE",
"299 61 OFFCURVE",
"204 61 CURVE SMOOTH"
);
}
);
width = 456;
},
{
layerId = "F1687A9F-F053-405E-AE0C-19A259C4FF7F";
paths = (
{
closed = 1;
nodes = (
"331 -12 OFFCURVE",
"427 96 OFFCURVE",
"427 264 CURVE SMOOTH",
"427 363 OFFCURVE",
"383 431 OFFCURVE",
"289 431 CURVE SMOOTH",
"246 431 OFFCURVE",
"204 411 OFFCURVE",
"177 377 CURVE",
"197 511 OFFCURVE",
"215 597 OFFCURVE",
"277 597 CURVE SMOOTH",
"311 597 OFFCURVE",
"324 572 OFFCURVE",
"324 526 CURVE SMOOTH",
"324 511 OFFCURVE",
"323 494 OFFCURVE",
"320 475 CURVE",
"442 475 LINE",
"445 494 OFFCURVE",
"446 512 OFFCURVE",
"446 530 CURVE SMOOTH",
"446 628 OFFCURVE",
"398 698 OFFCURVE",
"284 698 CURVE SMOOTH",
"167 698 OFFCURVE",
"85 609 OFFCURVE",
"47 323 CURVE SMOOTH",
"41 277 OFFCURVE",
"38 237 OFFCURVE",
"38 202 CURVE SMOOTH",
"38 42 OFFCURVE",
"105 -12 OFFCURVE",
"215 -12 CURVE SMOOTH"
);
},
{
closed = 1;
nodes = (
"176 89 OFFCURVE",
"158 123 OFFCURVE",
"158 173 CURVE SMOOTH",
"158 265 OFFCURVE",
"195 333 OFFCURVE",
"248 333 CURVE SMOOTH",
"286 333 OFFCURVE",
"303 300 OFFCURVE",
"303 250 CURVE SMOOTH",
"303 202 OFFCURVE",
"285 89 OFFCURVE",
"214 89 CURVE SMOOTH"
);
}
);
width = 456;
}
);
leftKerningGroup = six;
rightKerningGroup = six;
unicode = 0036;
},
{
glyphname = seven;
layers = (
{
layerId = UUID0;
paths = (
{
closed = 1;
nodes = (
"185 0 LINE",
"188 24 OFFCURVE",
"188 32 OFFCURVE",
"191 51 CURVE",
"222 273 OFFCURVE",
"367 491 OFFCURVE",
"481 633 CURVE",
"489 686 LINE",
"99 686 LINE",
"87 602 LINE",
"370 602 LINE",
"261 459 OFFCURVE",
"121 236 OFFCURVE",
"88 0 CURVE"
);
}
);
width = 456;
},
{
layerId = "F1687A9F-F053-405E-AE0C-19A259C4FF7F";
paths = (
{
closed = 1;
nodes = (
"205 0 LINE",
"208 24 OFFCURVE",
"208 32 OFFCURVE",
"211 51 CURVE SMOOTH",
"239 261 OFFCURVE",
"378 469 OFFCURVE",
"484 605 CURVE",
"496 686 LINE",
"90 686 LINE",
"74 574 LINE",
"351 574 LINE",
"228 435 OFFCURVE",
"100 220 OFFCURVE",
"69 0 CURVE"
);
}
);
width = 456;
}
);
leftKerningGroup = seven;
rightKerningGroup = seven;
unicode = 0037;
},
{
glyphname = eight;
layers = (
{
layerId = UUID0;
paths = (
{
closed = 1;
nodes = (
"339 -12 OFFCURVE",
"407 99 OFFCURVE",
"407 225 CURVE SMOOTH",
"407 281 OFFCURVE",
"387 326 OFFCURVE",
"339 352 CURVE",
"402 390 OFFCURVE",
"438 464 OFFCURVE",
"438 542 CURVE SMOOTH",
"438 630 OFFCURVE",
"388 698 OFFCURVE",
"283 698 CURVE SMOOTH",
"158 698 OFFCURVE",
"85 592 OFFCURVE",
"85 472 CURVE SMOOTH",
"85 422 OFFCURVE",
"103 379 OFFCURVE",
"140 352 CURVE",
"59 315 OFFCURVE",
"26 229 OFFCURVE",
"26 146 CURVE SMOOTH",
"26 56 OFFCURVE",
"74 -12 OFFCURVE",
"194 -12 CURVE SMOOTH"
);
},
{
closed = 1;
nodes = (
"140 61 OFFCURVE",
"111 97 OFFCURVE",
"111 157 CURVE SMOOTH",
"111 243 OFFCURVE",
"154 314 OFFCURVE",
"234 314 CURVE SMOOTH",
"293 314 OFFCURVE",
"323 278 OFFCURVE",
"323 218 CURVE SMOOTH",
"323 123 OFFCURVE",
"273 61 OFFCURVE",
"199 61 CURVE SMOOTH"
);
},
{
closed = 1;
nodes = (
"196 387 OFFCURVE",
"167 421 OFFCURVE",
"167 479 CURVE SMOOTH",
"167 553 OFFCURVE",
"207 625 OFFCURVE",
"278 625 CURVE SMOOTH",
"326 625 OFFCURVE",
"356 591 OFFCURVE",
"356 534 CURVE SMOOTH",
"356 444 OFFCURVE",
"306 387 OFFCURVE",
"245 387 CURVE SMOOTH"
);
}
);
width = 456;
},
{
layerId = "F1687A9F-F053-405E-AE0C-19A259C4FF7F";
paths = (
{
closed = 1;
nodes = (
"346 -12 OFFCURVE",
"418 99 OFFCURVE",
"418 225 CURVE SMOOTH",
"418 281 OFFCURVE",
"398 326 OFFCURVE",
"351 352 CURVE",
"413 392 OFFCURVE",
"449 468 OFFCURVE",
"449 538 CURVE SMOOTH",
"449 622 OFFCURVE",
"398 698 OFFCURVE",
"280 698 CURVE SMOOTH",
"152 698 OFFCURVE",
"80 591 OFFCURVE",
"80 470 CURVE SMOOTH",
"80 421 OFFCURVE",
"97 378 OFFCURVE",
"134 352 CURVE",
"55 315 OFFCURVE",
"21 230 OFFCURVE",
"21 149 CURVE SMOOTH",
"21 57 OFFCURVE",
"74 -12 OFFCURVE",
"202 -12 CURVE SMOOTH"
);
},
{
closed = 1;
nodes = (
"167 88 OFFCURVE",
"145 114 OFFCURVE",
"145 163 CURVE SMOOTH",
"145 222 OFFCURVE",
"169 301 OFFCURVE",
"236 301 CURVE SMOOTH",
"276 301 OFFCURVE",
"296 274 OFFCURVE",
"296 225 CURVE SMOOTH",
"296 136 OFFCURVE",
"258 88 OFFCURVE",
"206 88 CURVE SMOOTH"
);
},
{
closed = 1;
nodes = (
"217 400 OFFCURVE",
"199 423 OFFCURVE",
"199 469 CURVE SMOOTH",
"199 523 OFFCURVE",
"219 598 OFFCURVE",
"277 598 CURVE SMOOTH",
"309 598 OFFCURVE",
"328 575 OFFCURVE",
"328 531 CURVE SMOOTH",
"328 445 OFFCURVE",
"292 400 OFFCURVE",
"250 400 CURVE SMOOTH"
);
}
);
width = 456;
}
);
leftKerningGroup = eight;
rightKerningGroup = eight;
unicode = 0038;
},
{
glyphname = nine;
layers = (
{
layerId = UUID0;
paths = (
{
closed = 1;
nodes = (
"310 -12 OFFCURVE",
"391 77 OFFCURVE",
"430 363 CURVE SMOOTH",
"437 411 OFFCURVE",
"440 453 OFFCURVE",
"440 489 CURVE SMOOTH",
"440 645 OFFCURVE",
"378 698 OFFCURVE",
"275 698 CURVE SMOOTH",
"164 698 OFFCURVE",
"66 591 OFFCURVE",
"66 425 CURVE SMOOTH",
"66 327 OFFCURVE",
"111 255 OFFCURVE",
"210 255 CURVE SMOOTH",
"260 255 OFFCURVE",
"306 280 OFFCURVE",
"340 320 CURVE",
"316 161 OFFCURVE",
"281 61 OFFCURVE",
"195 61 CURVE SMOOTH",
"151 61 OFFCURVE",
"130 97 OFFCURVE",
"130 162 CURVE SMOOTH",
"130 177 OFFCURVE",
"132 193 OFFCURVE",
"134 211 CURVE",
"51 211 LINE",
"48 191 OFFCURVE",
"47 171 OFFCURVE",
"47 153 CURVE SMOOTH",
"47 56 OFFCURVE",
"89 -12 OFFCURVE",
"191 -12 CURVE SMOOTH"
);
},
{
closed = 1;
nodes = (
"176 327 OFFCURVE",
"151 374 OFFCURVE",
"151 437 CURVE SMOOTH",
"151 509 OFFCURVE",
"185 625 OFFCURVE",
"280 625 CURVE SMOOTH",
"335 625 OFFCURVE",
"358 579 OFFCURVE",
"358 516 CURVE SMOOTH",
"358 417 OFFCURVE",
"312 327 OFFCURVE",
"233 327 CURVE SMOOTH"
);
}
);
width = 456;
},
{
layerId = "F1687A9F-F053-405E-AE0C-19A259C4FF7F";
paths = (
{
closed = 1;
nodes = (
"317 -12 OFFCURVE",
"399 77 OFFCURVE",
"437 363 CURVE SMOOTH",
"443 409 OFFCURVE",
"446 449 OFFCURVE",
"446 484 CURVE SMOOTH",
"446 644 OFFCURVE",
"379 698 OFFCURVE",
"269 698 CURVE SMOOTH",
"153 698 OFFCURVE",
"57 590 OFFCURVE",
"57 422 CURVE SMOOTH",
"57 323 OFFCURVE",
"101 255 OFFCURVE",
"195 255 CURVE SMOOTH",
"238 255 OFFCURVE",
"280 275 OFFCURVE",
"307 309 CURVE",
"287 175 OFFCURVE",
"269 89 OFFCURVE",
"207 89 CURVE SMOOTH",
"173 89 OFFCURVE",
"160 114 OFFCURVE",
"160 160 CURVE SMOOTH",
"160 175 OFFCURVE",
"161 192 OFFCURVE",
"164 211 CURVE",
"42 211 LINE",
"39 192 OFFCURVE",
"38 174 OFFCURVE",
"38 156 CURVE SMOOTH",
"38 58 OFFCURVE",
"86 -12 OFFCURVE",
"200 -12 CURVE SMOOTH"
);
},
{
closed = 1;
nodes = (
"198 353 OFFCURVE",
"181 386 OFFCURVE",
"181 436 CURVE SMOOTH",
"181 484 OFFCURVE",
"199 597 OFFCURVE",
"270 597 CURVE SMOOTH",
"308 597 OFFCURVE",
"326 563 OFFCURVE",
"326 513 CURVE SMOOTH",
"326 421 OFFCURVE",
"289 353 OFFCURVE",
"236 353 CURVE SMOOTH"
);
}
);
width = 456;
}
);
leftKerningGroup = nine;
rightKerningGroup = nine;
unicode = 0039;
},
{
glyphname = zero.lf.zero;
layers = (
{
background = {
paths = (
{
closed = 1;
nodes = (
"148 66 LINE",
"380 642 LINE",
"328 642 LINE",
"96 66 LINE"
);
}
);
};
components = (
{
name = zero.zero;
}
);
layerId = UUID0;
width = 456;
},
{
background = {
paths = (
{
closed = 1;
nodes = (
"152 66 LINE",
"387 642 LINE",
"331 642 LINE",
"96 66 LINE"
);
}
);
};
components = (
{
name = zero.zero;
}
);
layerId = "F1687A9F-F053-405E-AE0C-19A259C4FF7F";
width = 456;
}
);
leftKerningGroup = zero.zero;
rightKerningGroup = zero.zero;
},
{
glyphname = zero.osf;
layers = (
{
layerId = UUID0;
paths = (
{
closed = 1;
nodes = (
"328 -10 OFFCURVE",
"415 158 OFFCURVE",
"415 423 CURVE SMOOTH",
"415 564 OFFCURVE",
"362 607 OFFCURVE",
"276 607 CURVE SMOOTH",
"139 607 OFFCURVE",
"52 439 OFFCURVE",
"52 173 CURVE SMOOTH",
"52 33 OFFCURVE",
"104 -10 OFFCURVE",
"190 -10 CURVE SMOOTH"
);
},
{
closed = 1;
nodes = (
"123 61 OFFCURVE",
"128 165 OFFCURVE",
"142 268 CURVE SMOOTH",
"150 329 LINE SMOOTH",
"165 445 OFFCURVE",
"194 536 OFFCURVE",
"266 536 CURVE SMOOTH",
"344 536 OFFCURVE",
"337 430 OFFCURVE",
"324 329 CURVE SMOOTH",
"316 268 LINE",
"298 143 OFFCURVE",
"270 61 OFFCURVE",
"200 61 CURVE SMOOTH"
);
}
);
width = 456;
},
{
layerId = "F1687A9F-F053-405E-AE0C-19A259C4FF7F";
paths = (
{
closed = 1;
nodes = (
"334 -10 OFFCURVE",
"423 153 OFFCURVE",
"423 418 CURVE SMOOTH",
"423 563 OFFCURVE",
"367 607 OFFCURVE",
"277 607 CURVE SMOOTH",
"133 607 OFFCURVE",
"44 443 OFFCURVE",
"44 177 CURVE SMOOTH",
"44 34 OFFCURVE",
"99 -10 OFFCURVE",
"190 -10 CURVE SMOOTH"
);
},
{
closed = 1;
nodes = (
"147 85 OFFCURVE",
"153 158 OFFCURVE",
"169 268 CURVE SMOOTH",
"178 329 LINE SMOOTH",
"194 439 OFFCURVE",
"208 512 OFFCURVE",
"264 512 CURVE SMOOTH",
"321 512 OFFCURVE",
"314 439 OFFCURVE",
"298 329 CURVE SMOOTH",
"289 268 LINE SMOOTH",
"272 153 OFFCURVE",
"259 85 OFFCURVE",
"204 85 CURVE SMOOTH"
);
}
);
width = 456;
}
);
leftKerningGroup = zero.osf;
rightKerningGroup = zero.osf;
},
{
glyphname = one.osf;
layers = (
{
layerId = UUID0;
paths = (
{
closed = 1;
nodes = (
"368 0 LINE",
"378 71 LINE",
"240 71 LINE",
"314 597 LINE",
"279 597 LINE",
"213 561 OFFCURVE",
"127 537 OFFCURVE",
"82 532 CURVE",
"74 479 LINE",
"215 479 LINE",
"158 71 LINE",
"18 71 LINE",
"8 0 LINE"
);
}
);
width = 456;
},
{
layerId = "F1687A9F-F053-405E-AE0C-19A259C4FF7F";
paths = (
{
closed = 1;
nodes = (
"386 0 LINE",
"400 96 LINE",
"269 96 LINE",
"339 597 LINE",
"281 597 LINE",
"217 561 OFFCURVE",
"132 534 OFFCURVE",
"82 529 CURVE",
"71 451 LINE",
"203 451 LINE",
"154 96 LINE",
"23 96 LINE",
"9 0 LINE"
);
}
);
width = 456;
}
);
leftKerningGroup = one;
rightKerningGroup = one;
},
{
glyphname = two.osf;
layers = (
{
layerId = UUID0;
paths = (
{
closed = 1;
nodes = (
"360 0 LINE",
"371 81 LINE",
"134 81 LINE",
"139 89 OFFCURVE",
"145 97 OFFCURVE",
"156 110 CURVE SMOOTH",
"241 210 OFFCURVE",
"423 321 OFFCURVE",
"423 482 CURVE SMOOTH",
"423 570 OFFCURVE",
"359 607 OFFCURVE",
"278 607 CURVE SMOOTH",
"159 607 OFFCURVE",
"83 525 OFFCURVE",
"83 399 CURVE SMOOTH",
"83 395 OFFCURVE",
"83 392 OFFCURVE",
"83 392 CURVE",
"168 392 LINE",
"173 427 LINE SMOOTH",
"181 484 OFFCURVE",
"210 534 OFFCURVE",
"268 534 CURVE SMOOTH",
"320 534 OFFCURVE",
"336 501 OFFCURVE",
"336 468 CURVE SMOOTH",
"336 350 OFFCURVE",
"176 253 OFFCURVE",
"91 156 CURVE SMOOTH",
"57 117 OFFCURVE",
"30 70 OFFCURVE",
"22 14 CURVE SMOOTH",
"20 0 LINE"
);
}
);
width = 456;
},
{
layerId = "F1687A9F-F053-405E-AE0C-19A259C4FF7F";
paths = (
{
closed = 1;
nodes = (
"370 0 LINE",
"385 105 LINE",
"172 105 LINE",
"176 112 OFFCURVE",
"191 129 OFFCURVE",
"196 134 CURVE SMOOTH",
"255 193 OFFCURVE",
"434 328 OFFCURVE",
"434 482 CURVE SMOOTH",
"434 564 OFFCURVE",
"366 607 OFFCURVE",
"283 607 CURVE SMOOTH",
"156 607 OFFCURVE",
"76 525 OFFCURVE",
"76 399 CURVE SMOOTH",
"76 395 OFFCURVE",
"76 392 OFFCURVE",
"76 392 CURVE",
"194 392 LINE",
"199 427 LINE SMOOTH",
"205 472 OFFCURVE",
"228 510 OFFCURVE",
"268 510 CURVE SMOOTH",
"302 510 OFFCURVE",
"311 484 OFFCURVE",
"311 464 CURVE SMOOTH",
"311 363 OFFCURVE",
"177 268 OFFCURVE",
"113 202 CURVE SMOOTH",
"68 155 OFFCURVE",
"25 95 OFFCURVE",
"16 24 CURVE SMOOTH",
"13 0 LINE"
);
}
);
width = 456;
}
);
leftKerningGroup = two;
rightKerningGroup = two;
},
{
glyphname = three.osf;
layers = (
{
layerId = UUID0;
paths = (
{
closed = 1;
nodes = (
"301 -10 OFFCURVE",
"386 76 OFFCURVE",
"386 190 CURVE SMOOTH",
"386 255 OFFCURVE",
"353 291 OFFCURVE",
"313 306 CURVE",
"314 310 LINE",
"357 332 OFFCURVE",
"415 376 OFFCURVE",
"415 476 CURVE SMOOTH",
"415 561 OFFCURVE",
"357 607 OFFCURVE",
"271 607 CURVE SMOOTH",
"175 607 OFFCURVE",
"104 543 OFFCURVE",
"88 444 CURVE SMOOTH",
"85 425 LINE",
"169 425 LINE",
"171 436 LINE SMOOTH",
"183 503 OFFCURVE",
"218 536 OFFCURVE",
"264 536 CURVE SMOOTH",
"301 536 OFFCURVE",
"330 513 OFFCURVE",
"330 462 CURVE SMOOTH",
"330 392 OFFCURVE",
"288 339 OFFCURVE",
"232 339 CURVE SMOOTH",
"184 339 LINE",
"174 268 LINE",
"220 268 LINE SMOOTH",
"264 268 OFFCURVE",
"302 250 OFFCURVE",
"302 190 CURVE SMOOTH",
"302 113 OFFCURVE",
"260 61 OFFCURVE",
"194 61 CURVE SMOOTH",
"135 61 OFFCURVE",
"110 102 OFFCURVE",
"120 166 CURVE SMOOTH",
"122 179 LINE",
"39 179 LINE",
"38 169 LINE SMOOTH",
"27 60 OFFCURVE",
"76 -10 OFFCURVE",
"189 -10 CURVE SMOOTH"
);
}
);
width = 456;
},
{
layerId = "F1687A9F-F053-405E-AE0C-19A259C4FF7F";
paths = (
{
closed = 1;
nodes = (
"317 -10 OFFCURVE",
"395 69 OFFCURVE",
"395 190 CURVE SMOOTH",
"395 254 OFFCURVE",
"362 291 OFFCURVE",
"322 306 CURVE",
"323 310 LINE",
"374 336 OFFCURVE",
"424 384 OFFCURVE",
"424 474 CURVE SMOOTH",
"424 561 OFFCURVE",
"361 607 OFFCURVE",
"270 607 CURVE SMOOTH",
"161 607 OFFCURVE",
"95 549 OFFCURVE",
"79 444 CURVE SMOOTH",
"75 417 LINE",
"195 417 LINE",
"198 436 LINE SMOOTH",
"206 486 OFFCURVE",
"227 512 OFFCURVE",
"260 512 CURVE SMOOTH",
"288 512 OFFCURVE",
"303 494 OFFCURVE",
"303 461 CURVE SMOOTH",
"303 401 OFFCURVE",
"272 351 OFFCURVE",
"233 351 CURVE SMOOTH",
"196 351 LINE",
"182 255 LINE",
"217 255 LINE SMOOTH",
"248 255 OFFCURVE",
"275 241 OFFCURVE",
"275 191 CURVE SMOOTH",
"275 127 OFFCURVE",
"246 85 OFFCURVE",
"200 85 CURVE SMOOTH",
"158 85 OFFCURVE",
"142 115 OFFCURVE",
"149 166 CURVE SMOOTH",
"152 187 LINE",
"32 187 LINE",
"29 169 LINE SMOOTH",
"11 59 OFFCURVE",
"74 -10 OFFCURVE",
"192 -10 CURVE SMOOTH"
);
}
);
width = 456;
}
);
leftKerningGroup = three;
rightKerningGroup = three;
},
